<svg width="70" height="67" viewBox="0 0 70 67" fill="none" xmlns="http://www.w3.org/2000/svg">
<path d="M67.0073 5.97051L67.1063 5.95602L68.3226 5.98007C68.8318 6.00658 69.1866 6.3589 69.1601 6.86811C69.1336 7.37732 68.7812 7.7321 68.272 7.70559L67.0557 7.68155C66.5465 7.65504 66.1917 7.30272 66.2182 6.79351C66.2592 6.38324 66.6115 6.02846 67.0073 5.97051Z" fill="#66247A"/>
<path d="M62.1064 0.118734L62.2054 0.104247C62.7146 0.130756 63.0694 0.483075 63.0429 0.992288L63.0188 2.20861C62.9923 2.71782 62.64 3.0726 62.1308 3.04609C61.6216 3.01958 61.2668 2.66726 61.2933 2.15805L61.3318 1.04068C61.3583 0.531469 61.7106 0.176682 62.1064 0.118734Z" fill="#66247A"/>
<path d="M66.0458 2.16883C66.3427 2.12537 66.5551 2.19534 66.7964 2.4632C67.1512 2.81552 67.1247 3.32473 66.7724 3.67952L65.8843 4.517C65.532 4.87178 65.0228 4.84528 64.668 4.49296C64.3132 4.14064 64.3397 3.63143 64.6921 3.27664L65.5801 2.43915C65.7635 2.31124 65.848 2.1978 66.0458 2.16883Z" fill="#66247A"/>
<path d="M6.625 45.5252C6.425 45.5252 6.125 45.4252 6.025 45.2252L5.225 44.4252C4.925 44.1252 4.925 43.5252 5.225 43.2252C5.525 42.9252 6.125 42.9252 6.425 43.2252L7.225 44.0252C7.525 44.3252 7.525 44.9252 7.225 45.2252C7.125 45.4252 6.825 45.5252 6.625 45.5252Z" fill="#66247A"/>
<path d="M11.4258 50.3253C11.2258 50.3253 10.9258 50.2253 10.8258 50.0253L10.0258 49.2253C9.72578 48.9253 9.72578 48.3253 10.0258 48.0253C10.3258 47.7253 10.9258 47.7253 11.2258 48.0253L12.0258 48.8253C12.3258 49.1253 12.3258 49.7253 12.0258 50.0253C11.9258 50.2253 11.7258 50.3253 11.4258 50.3253Z" fill="#66247A"/>
<path d="M10.6258 45.5252C10.4258 45.5252 10.1258 45.4252 10.0258 45.2252C9.72578 44.9252 9.72578 44.3252 10.0258 44.0252L10.8258 43.2252C11.1258 42.9252 11.7258 42.9252 12.0258 43.2252C12.3258 43.5252 12.3258 44.1252 12.0258 44.4252L11.2258 45.2252C11.1258 45.4252 10.8258 45.5252 10.6258 45.5252Z" fill="#66247A"/>
<path d="M5.825 50.3253C5.625 50.3253 5.325 50.2253 5.225 50.0253C4.925 49.7253 4.925 49.1253 5.225 48.8253L6.025 48.0253C6.325 47.7253 6.925 47.7253 7.225 48.0253C7.525 48.3253 7.525 48.9253 7.225 49.2253L6.425 50.0253C6.225 50.2253 6.025 50.3253 5.825 50.3253Z" fill="#66247A"/>
<path d="M40.3186 60.9988C40.032 61.4086 39.475 61.5071 39.0653 61.2205L38.7375 60.9912C38.3278 60.7046 38.2293 60.1476 38.5159 59.7379C38.8024 59.3281 39.3595 59.2296 39.7692 59.5162L40.097 59.7455C40.5067 60.0321 40.6052 60.5891 40.3186 60.9988Z" fill="#66247A"/>
<path d="M43.5139 63.2342C43.2273 63.6439 42.6703 63.7424 42.2606 63.4558L41.9328 63.2266C41.5231 62.94 41.4246 62.3829 41.7112 61.9732C41.9978 61.5635 42.5548 61.465 42.9645 61.7516L43.2923 61.9809C43.702 62.2674 43.8005 62.8245 43.5139 63.2342Z" fill="#66247A"/>
<path d="M46.6292 65.4119C46.3426 65.8216 45.7855 65.9201 45.3758 65.6336L45.048 65.4043C44.6383 65.1177 44.5398 64.5607 44.8264 64.1509C45.113 63.7412 45.67 63.6427 46.0798 63.9293L46.4075 64.1586C46.8172 64.4452 46.9157 65.0022 46.6292 65.4119Z" fill="#66247A"/>
<path d="M15.4132 20.2827C15.5861 20.7519 15.3491 21.2655 14.88 21.4384L14.5046 21.5767C14.0355 21.7496 13.5218 21.5126 13.3489 21.0435C13.1761 20.5743 13.4131 20.0607 13.8822 19.8878L14.2575 19.7495C14.7267 19.5766 15.2403 19.8136 15.4132 20.2827Z" fill="#66247A"/>
<path d="M19.0714 18.9343C19.2443 19.4035 19.0073 19.9171 18.5382 20.09L18.1628 20.2283C17.6937 20.4012 17.18 20.1642 17.0072 19.6951C16.8343 19.2259 17.0713 18.7123 17.5404 18.5394L17.9157 18.4011C18.3849 18.2282 18.8985 18.4652 19.0714 18.9343Z" fill="#66247A"/>
<path d="M22.6378 17.6194C22.8107 18.0886 22.5737 18.6022 22.1046 18.7751L21.7292 18.9134C21.2601 19.0863 20.7465 18.8493 20.5736 18.3801C20.4007 17.911 20.6377 17.3973 21.1068 17.2244L21.4822 17.0861C21.9513 16.9132 22.4649 17.1502 22.6378 17.6194Z" fill="#66247A"/>
<path d="M2.09961 33.9083L16.1996 39.2083L21.5996 57.0083C21.8996 58.1083 23.2996 58.6083 24.1996 57.8083L31.9996 51.3083C32.7996 50.6083 33.9996 50.6083 34.7996 51.2083L48.9996 61.7083C49.9996 62.4083 51.3996 61.9083 51.5996 60.7083L61.9996 10.0083C62.2996 8.70827 60.9996 7.60827 59.7996 8.10827L2.09961 30.7083C0.599609 31.3083 0.599609 33.4083 2.09961 33.9083ZM20.6996 36.4083L48.1996 19.2083C48.6996 18.9083 49.1996 19.6083 48.7996 20.0083L26.0996 41.4083C25.2996 42.2083 24.7996 43.2083 24.5996 44.3083L23.7996 50.1083C23.6996 50.9083 22.5996 51.0083 22.3996 50.2083L19.3996 39.6083C19.0996 38.3083 19.5996 37.0083 20.6996 36.4083Z" fill="#F8F1FA"/>
<path d="M50 63.0083C49.4 63.0083 48.9 62.8083 48.4 62.5083L34.3 52.1083C33.8 51.7083 33.1 51.8083 32.7 52.1083L24.9 58.6083C24.2 59.2083 23.3 59.4083 22.5 59.1083C21.6 58.8083 21 58.2083 20.7 57.3083L15.3 40.0083L1.7 34.8083C0.7 34.4083 0 33.4083 0 32.3083C0 31.2083 0.7 30.2083 1.7 29.8083L59.4 7.20835C60.3 6.80835 61.3 7.00835 62 7.60835C62.8 8.20835 63.1 9.20835 62.9 10.2083L52.6 60.9083C52.4 61.8083 51.8 62.5083 50.9 62.9083C50.6 62.9083 50.3 63.0083 50 63.0083ZM33.5 49.8083C34.2 49.8083 34.9 50.0083 35.5 50.4083L49.6 60.8083C49.8 61.0083 50.1 60.9083 50.2 60.9083C50.3 60.9083 50.5 60.7083 50.6 60.4083L61 9.80835C61.1 9.40835 60.9 9.20835 60.8 9.10835C60.7 9.00835 60.5 8.90835 60.2 9.00835L2.4 31.7083C2 31.8083 2 32.2083 2 32.3083C2 32.4083 2 32.8083 2.4 32.9083L16.5 38.2083C16.8 38.3083 17 38.5083 17.1 38.8083L22.5 56.6083C22.6 56.9083 22.8 57.0083 22.9 57.1083C23 57.1083 23.3 57.2083 23.5 57.0083L31.3 50.5083C32 50.0083 32.8 49.8083 33.5 49.8083ZM23.1 51.7083C22.3 51.7083 21.7 51.2083 21.5 50.4083L18.5 39.8083C18 38.2083 18.7 36.4083 20.1 35.5083L47.6 18.3083C48.3 17.9083 49.1 18.0083 49.5 18.7083C50 19.3083 49.9 20.2083 49.3 20.7083L26.8 42.1083C26.2 42.7083 25.8 43.5083 25.6 44.4083L24.8 50.2083C24.7 51.0083 24 51.6083 23.2 51.7083C23.2 51.7083 23.2 51.7083 23.1 51.7083ZM21.2 37.2083C20.5 37.6083 20.2 38.5083 20.4 39.2083L23 48.4083L23.6 44.0083C23.8 42.7083 24.4 41.5083 25.4 40.5083L44.3 22.6083L21.2 37.2083Z" fill="#66247A"/>
</svg>
