<svg width="63" height="89" viewBox="0 0 63 89" fill="none" xmlns="http://www.w3.org/2000/svg">
<path d="M27.5 52L21 53H20.5L19.5 53.5L20 73C21.5 76.6667 26.5 84 34.5 84C42.5 84 47.5 77 49 73.5V54.5L46 52H27.5Z" fill="#F8F1FA"/>
<rect x="9" y="13" width="51" height="34" rx="8" fill="#F8F1FA"/>
<rect x="14" y="18" width="41" height="24" rx="3" fill="white"/>
<path d="M2.01916 73.9192H1.91916L0.71916 73.7192C0.21916 73.6192 -0.0808398 73.2192 0.0191602 72.7192C0.11916 72.2192 0.51916 71.9192 1.01916 72.0192L2.21916 72.2192C2.71916 72.3192 3.01916 72.7192 2.91916 73.2192C2.81916 73.6192 2.41916 73.9192 2.01916 73.9192Z" fill="#66247A"/>
<path d="M6.02033 80.4192H5.92033C5.42033 80.3192 5.12033 79.9192 5.22033 79.4192L5.42033 78.2192C5.52033 77.7192 5.92033 77.4192 6.42033 77.5192C6.92033 77.6192 7.22033 78.0192 7.12033 78.5192L6.92033 79.6192C6.82033 80.1192 6.42033 80.4192 6.02033 80.4192Z" fill="#66247A"/>
<path d="M2.41936 77.8192C2.11936 77.8192 1.91936 77.7192 1.71936 77.4192C1.41936 77.0192 1.51936 76.5192 1.91936 76.2192L2.91936 75.5192C3.31936 75.2192 3.81936 75.3192 4.11935 75.7192C4.41935 76.1192 4.31936 76.6192 3.91936 76.9192L2.91936 77.6192C2.71936 77.7192 2.61936 77.8192 2.41936 77.8192Z" fill="#66247A"/>
<path d="M13.1258 7.32495C12.9258 7.32495 12.6258 7.22495 12.5258 7.02495C12.2258 6.72495 12.2258 6.12495 12.5258 5.82495L13.4258 4.92495C13.7258 4.62495 14.3258 4.62495 14.6258 4.92495C14.9258 5.22495 14.9258 5.82495 14.6258 6.12495L13.7258 7.02495C13.5258 7.22495 13.3258 7.32495 13.1258 7.32495Z" fill="#66247A"/>
<path d="M17.825 2.625C17.625 2.625 17.325 2.525 17.225 2.325C16.925 2.025 16.925 1.425 17.225 1.125L18.125 0.225C18.425 -0.075 19.025 -0.075 19.325 0.225C19.625 0.525 19.625 1.125 19.325 1.425L18.425 2.325C18.225 2.525 18.025 2.625 17.825 2.625Z" fill="#66247A"/>
<path d="M18.6254 7.32495C18.4254 7.32495 18.1254 7.22495 18.0254 7.02495L17.1254 6.12495C16.8254 5.82495 16.8254 5.22495 17.1254 4.92495C17.4254 4.62495 18.0254 4.62495 18.3254 4.92495L19.2254 5.82495C19.5254 6.12495 19.5254 6.72495 19.2254 7.02495C19.1254 7.22495 18.8254 7.32495 18.6254 7.32495Z" fill="#66247A"/>
<path d="M14.0258 2.62485C13.8258 2.62485 13.5258 2.52485 13.4258 2.32485L12.5258 1.52485C12.2258 1.22485 12.2258 0.624854 12.5258 0.324854C12.8258 0.0248535 13.4258 0.0248535 13.7258 0.324854L14.6258 1.22485C14.9258 1.52485 14.9258 2.02485 14.6258 2.42485C14.4258 2.52485 14.2258 2.62485 14.0258 2.62485Z" fill="#66247A"/>
<path d="M4.025 9.22505C3.825 9.22505 3.525 9.12505 3.425 8.92505L3.225 8.72505C2.925 8.42505 2.925 7.82505 3.225 7.52505C3.525 7.22505 4.125 7.22505 4.425 7.52505L4.625 7.72505C4.925 8.02505 4.925 8.62505 4.625 8.92505C4.525 9.12505 4.225 9.22505 4.025 9.22505Z" fill="#66247A"/>
<path d="M52.6111 82.6636C52.6142 82.4636 52.5188 82.1621 52.3203 82.059L51.5327 81.2469C51.2373 80.9423 50.6374 80.9331 50.3328 81.2284C50.0283 81.5238 50.0191 82.1237 50.3144 82.4283L51.102 83.2405C51.3974 83.545 51.9973 83.5543 52.3019 83.2589C52.5034 83.162 52.608 82.8635 52.6111 82.6636Z" fill="#66247A"/>
<path d="M7.32578 12.5249C7.12578 12.5249 6.82578 12.4249 6.72578 12.2249L6.52578 12.0249C6.22578 11.7249 6.22578 11.1249 6.52578 10.8249C6.82578 10.5249 7.42578 10.5249 7.72578 10.8249L7.92578 11.0249C8.22578 11.3249 8.22578 11.9249 7.92578 12.2249C7.82578 12.4249 7.62578 12.5249 7.32578 12.5249Z" fill="#66247A"/>
<path d="M3.825 12.5249C3.625 12.5249 3.325 12.4249 3.225 12.2249C2.925 11.9249 2.925 11.3249 3.225 11.0249L3.425 10.8249C3.725 10.5249 4.325 10.5249 4.625 10.8249C4.925 11.1249 4.925 11.7249 4.625 12.0249L4.425 12.2249C4.225 12.4249 4.025 12.5249 3.825 12.5249Z" fill="#66247A"/>
<path d="M7.12656 9.22505C6.92656 9.22505 6.62656 9.12505 6.52656 8.92505C6.12656 8.62505 6.12656 8.02505 6.52656 7.72505L6.72656 7.52505C7.02656 7.22505 7.62656 7.22505 7.92656 7.52505C8.22656 7.82505 8.22656 8.42505 7.92656 8.72505L7.72656 8.92505C7.52656 9.12505 7.32656 9.22505 7.12656 9.22505Z" fill="#66247A"/>
<path d="M57.3357 87.5376C57.3388 87.3376 57.2434 87.0361 57.0449 86.9331L56.2573 86.1209C55.962 85.8163 55.362 85.8071 55.0575 86.1025C54.7529 86.3978 54.7437 86.9977 55.039 87.3023L55.8267 88.1145C56.122 88.4191 56.7219 88.4283 57.0265 88.1329C57.228 88.036 57.3311 87.8376 57.3357 87.5376Z" fill="#66247A"/>
<path d="M52.5491 86.664C52.5522 86.464 52.4568 86.1625 52.2584 86.0594C51.963 85.7549 51.3631 85.7456 51.0585 86.041L50.2463 86.8286C49.9418 87.124 49.9326 87.7239 50.2279 88.0285C50.5233 88.3331 51.1232 88.3423 51.4278 88.0469L52.24 87.2593C52.4415 87.1624 52.5461 86.8639 52.5491 86.664Z" fill="#66247A"/>
<path d="M57.4222 81.9374C57.4253 81.7374 57.3299 81.4359 57.1314 81.3329C56.8361 81.0283 56.2362 81.0191 55.9316 81.3144L55.1194 82.1021C54.8148 82.3974 54.8056 82.9973 55.101 83.3019C55.3963 83.6065 55.9963 83.6157 56.3008 83.3203L57.113 82.5327C57.3161 82.3358 57.4191 82.1374 57.4222 81.9374Z" fill="#66247A"/>
<path d="M7.98758 52.1544C7.99065 51.9544 7.89526 51.6529 7.69682 51.5499L7.50145 51.2469C7.20609 50.9423 6.60617 50.9331 6.3016 51.2284C5.99703 51.5238 5.98781 52.1237 6.28317 52.4283L6.48008 52.6313C6.77543 52.9359 7.37536 52.9451 7.67993 52.6498C7.88144 52.5528 7.9845 52.3544 7.98758 52.1544Z" fill="#66247A"/>
<path d="M11.2372 55.5051C11.2402 55.3051 11.1449 55.0036 10.9464 54.9006L10.7495 54.6975C10.4541 54.393 9.85421 54.3838 9.54964 54.6791C9.24507 54.9745 9.23586 55.5744 9.53122 55.879L9.72813 56.082C10.0235 56.3866 10.6234 56.3958 10.928 56.1004C11.131 55.9035 11.2341 55.7051 11.2372 55.5051Z" fill="#66247A"/>
<path d="M11.293 51.9052C11.296 51.7053 11.2007 51.4038 11.0022 51.3007C10.7069 50.9961 10.1069 50.9869 9.80236 51.2823L9.59931 51.4792C9.29474 51.7745 9.28552 52.3745 9.58088 52.679C9.87624 52.9836 10.4762 52.9928 10.7807 52.6975L10.9838 52.5006C11.1853 52.4036 11.2884 52.2052 11.293 51.9052Z" fill="#66247A"/>
<path d="M7.9414 55.1528C7.94447 54.9528 7.84909 54.6513 7.65064 54.5483C7.35529 54.2437 6.75536 54.2345 6.45079 54.5298L6.24775 54.7267C5.94317 55.0221 5.93396 55.622 6.22932 55.9266C6.52468 56.2312 7.12461 56.2404 7.42918 55.945L7.63222 55.7481C7.83373 55.6512 7.93679 55.4528 7.9414 55.1528Z" fill="#66247A"/>
<path d="M56.3386 54.0537C56.7136 53.723 56.7491 53.1584 56.4184 52.7834L56.1538 52.4834C55.8231 52.1084 55.2586 52.0729 54.8836 52.4036C54.5085 52.7343 54.4731 53.2989 54.8038 53.6739L55.0683 53.9739C55.399 54.3489 55.9636 54.3844 56.3386 54.0537Z" fill="#66247A"/>
<path d="M58.9167 56.979C59.2918 56.6483 59.3272 56.0837 58.9965 55.7087L58.732 55.4087C58.4013 55.0337 57.8367 54.9982 57.4617 55.3289C57.0867 55.6596 57.0512 56.2242 57.3819 56.5992L57.6464 56.8992C57.9771 57.2742 58.5417 57.3097 58.9167 56.979Z" fill="#66247A"/>
<path d="M61.4304 59.8291C61.8054 59.4984 61.8409 58.9338 61.5102 58.5588L61.2456 58.2588C60.9149 57.8838 60.3504 57.8483 59.9754 58.179C59.6003 58.5097 59.5649 59.0743 59.8956 59.4493L60.1601 59.7493C60.4908 60.1243 61.0554 60.1598 61.4304 59.8291Z" fill="#66247A"/>
<path d="M55.9988 40.4995V25.6415C55.9988 25.0509 55.5201 24.5721 54.9295 24.5721C54.339 24.5721 53.8602 25.0509 53.8602 25.6415V40.4995C53.8602 41.1704 53.3144 41.716 52.6437 41.716H16.07C15.3992 41.716 14.8535 41.1702 14.8535 40.4995V19.9269C14.8535 19.2561 15.3993 18.7104 16.07 18.7104H52.6437C53.3145 18.7104 53.8602 19.2562 53.8602 19.9269V27.0697C53.8602 27.6602 54.339 28.139 54.9295 28.139C55.5201 28.139 55.9988 27.6602 55.9988 27.0697V19.9269C55.9988 18.0768 54.4937 16.5718 52.6437 16.5718H16.07C14.2199 16.5718 12.7148 18.077 12.7148 19.9269V40.4997C12.7148 42.3498 14.22 43.8548 16.07 43.8548H52.6437C54.4937 43.8547 55.9988 42.3496 55.9988 40.4995Z" fill="#66247A"/>
<path d="M21.8574 26.7843V33.6419C21.8574 35.492 23.3626 36.9971 25.2126 36.9971C27.0625 36.9971 28.5677 35.4919 28.5677 33.6419V26.7843C28.5677 24.9343 27.0625 23.4292 25.2126 23.4292C23.3626 23.4292 21.8574 24.9344 21.8574 26.7843ZM26.429 26.7843V33.6419C26.429 34.3128 25.8833 34.8584 25.2126 34.8584C24.5419 34.8584 23.9961 34.3126 23.9961 33.6419V26.7843C23.9961 26.1135 24.5419 25.5679 25.2126 25.5679C25.8833 25.5679 26.429 26.1137 26.429 26.7843Z" fill="#66247A"/>
<path d="M40.1465 26.7843V33.6419C40.1465 35.492 41.6517 36.9971 43.5016 36.9971C45.3516 36.9971 46.8568 35.4919 46.8568 33.6419V26.7843C46.8568 24.9343 45.3516 23.4292 43.5016 23.4292C41.6517 23.4292 40.1465 24.9344 40.1465 26.7843ZM44.7181 26.7843V33.6419C44.7181 34.3128 44.1723 34.8584 43.5016 34.8584C42.8309 34.8584 42.2852 34.3126 42.2852 33.6419V26.7843C42.2852 26.1135 42.8309 25.5679 43.5016 25.5679C44.1723 25.5679 44.7181 26.1137 44.7181 26.7843Z" fill="#66247A"/>
<path d="M58.2844 66.99V62.6161C58.2844 62.1155 58.1121 61.6247 57.7996 61.2342L53.8215 56.2617C53.3994 55.734 52.7697 55.4313 52.094 55.4313H50.2839V55.3577C50.2839 52.8774 48.2661 50.8597 45.7858 50.8597H38.8547V48.4267H52.6434C57.0143 48.4267 60.5703 44.8708 60.5703 40.4998V19.9269C60.5702 15.5559 57.0143 12 52.6433 12H16.0697C11.6987 12 8.14276 15.5559 8.14276 19.9269V40.4997C8.14276 44.8705 11.6987 48.4266 16.0697 48.4266H29.8584V50.8595H22.9273C20.447 50.8595 18.4292 52.8773 18.4292 55.3576V55.4312H16.619C15.9434 55.4312 15.3137 55.7338 14.8916 56.2615L10.9136 61.2339C10.601 61.6247 10.4287 62.1155 10.4287 62.6161V66.99C8.46314 67.4712 7 69.2468 7 71.3586C7 73.8388 9.01777 75.8566 11.4981 75.8566C12.0886 75.8566 12.5674 75.3778 12.5674 74.7873C12.5674 74.1967 12.0886 73.7179 11.4981 73.7179C10.197 73.7179 9.13867 72.6596 9.13867 71.3586C9.13867 70.0575 10.197 68.9992 11.4981 68.9992C12.7991 68.9992 13.8574 70.0575 13.8574 71.3586C13.8574 71.9491 14.3362 72.4279 14.9268 72.4279C15.5173 72.4279 15.9961 71.9491 15.9961 71.3586C15.9961 69.2467 14.533 67.4712 12.5674 66.99V62.6161C12.5674 62.5996 12.5731 62.5833 12.5835 62.5702L16.5616 57.5976C16.5757 57.5801 16.5967 57.57 16.619 57.57H18.4292V58.7866C18.4292 59.3771 18.908 59.8559 19.4985 59.8559C20.0891 59.8559 20.5679 59.3771 20.5679 58.7866V55.3577C20.5679 54.0567 21.6262 52.9983 22.9273 52.9983H23.0008V55.3577C23.0008 61.2585 27.5254 66.1207 33.2871 66.6615V82.8203C26.1819 82.2728 20.5679 76.316 20.5679 69.0727V56.3581C20.5679 55.7675 20.0891 55.2887 19.4985 55.2887C18.908 55.2887 18.4292 55.7675 18.4292 56.3581V69.0727C18.4292 77.855 25.5741 85 34.3565 85C43.1389 85 50.2837 77.855 50.2837 69.0727V57.5698H52.0939C52.1164 57.5698 52.1374 57.5799 52.1514 57.5975L56.1296 62.5703C56.1398 62.5832 56.1455 62.5996 56.1455 62.6161V66.99C54.18 67.4712 52.7168 69.2468 52.7168 71.3586C52.7168 71.9491 53.1956 72.4279 53.7862 72.4279C54.3767 72.4279 54.8555 71.9491 54.8555 71.3586C54.8555 70.0575 55.9139 68.9992 57.2149 68.9992C58.5159 68.9992 59.5743 70.0575 59.5743 71.3586C59.5743 72.6596 58.5159 73.7179 57.2149 73.7179C56.6243 73.7179 56.1455 74.1967 56.1455 74.7873C56.1455 75.3778 56.6243 75.8566 57.2149 75.8566C59.6952 75.8566 61.7129 73.8388 61.7129 71.3586C61.7131 69.2467 60.2499 67.4712 58.2844 66.99ZM10.2814 40.4995V19.9269C10.2814 16.7352 12.8779 14.1387 16.0697 14.1387H52.6434C55.835 14.1387 58.4316 16.7352 58.4316 19.9269V40.4997C58.4316 43.6913 55.8352 46.2879 52.6434 46.2879H16.0697C12.8779 46.2878 10.2814 43.6911 10.2814 40.4995ZM31.9971 48.4264H36.716V50.8594H31.9971V48.4264ZM25.1395 55.3576V52.9982H43.5734V55.3576C43.5734 60.4399 39.4387 64.5745 34.3565 64.5745C29.2743 64.5745 25.1395 60.4398 25.1395 55.3576ZM48.1451 69.0727C48.1451 76.316 42.531 82.2726 35.4258 82.8203V66.6613C41.1875 66.1205 45.7121 61.2583 45.7121 55.3576V52.9982H45.7857C47.0867 52.9982 48.1451 54.0566 48.1451 55.3576V69.0727Z" fill="#66247A"/>
</svg>
