<svg width="63" height="65" viewBox="0 0 63 65" fill="none" xmlns="http://www.w3.org/2000/svg">
<path d="M50.5008 1.80005H20.5008V8.10005C20.5008 9.70005 19.2008 11 17.6008 11H11.3008V21V21.9V22.8V35.3L29.5008 49.7001C30.5008 50.5 32.1008 50.5 33.1008 49.7001L51.3008 35.5V22.8V21.9V21V2.40005C51.2008 2.00005 50.9008 1.80005 50.5008 1.80005ZM41.0008 29.1L31.6008 38.5C31.4008 38.7001 31.2008 38.8 31.0008 38.8C30.8008 38.8 30.5008 38.7001 30.4008 38.5L24.6008 32.7001C24.3008 32.4001 24.3008 31.8 24.6008 31.5C24.9008 31.2001 25.5008 31.2001 25.8008 31.5L30.9008 36.6L39.7008 27.8C40.0008 27.5 40.6008 27.5 40.9008 27.8C41.4008 28.2 41.4008 28.8001 41.0008 29.1ZM31.6008 22C31.6008 22.3 31.4008 22.6 31.1008 22.8C31.0008 22.9 30.8008 22.9 30.7008 22.9H17.0008C16.8008 22.9 16.7008 22.8 16.6008 22.8C16.3008 22.6 16.1008 22.4 16.1008 22V21.9C16.2008 21.5 16.5008 21.1 17.0008 21.1H30.7008C31.1008 21.1 31.5008 21.4 31.6008 21.9C31.6008 22 31.6008 22 31.6008 22ZM17.0008 14H45.3008C45.8008 14 46.2008 14.4 46.2008 14.9C46.2008 15.4 45.8008 15.8 45.3008 15.8H17.0008C16.5008 15.8 16.1008 15.4 16.1008 14.9C16.1008 14.4 16.5008 14 17.0008 14Z" fill="white"/>
<path d="M55.7008 22.8H52.9008V34.1L56.4008 31.4C56.8008 31.1 57.3008 31.2001 57.6008 31.6C57.9008 32 57.8008 32.5 57.4008 32.8L34.1008 51.1C33.3008 51.8 32.2008 52.1 31.2008 52.1C30.2008 52.1 29.1008 51.8 28.3008 51.1L4.80078 32.5C4.40078 32.2 4.40078 31.6 4.70078 31.3C5.00078 30.9 5.60078 30.9001 5.90078 31.2001L9.40078 34V22.8H6.70078C4.00078 22.8 1.80078 25.0001 1.80078 27.7001V58.2001C1.80078 60.9001 4.00078 63.1 6.70078 63.1H55.7008C58.4008 63.1 60.6008 60.9001 60.6008 58.2001V27.7001C60.6008 25.0001 58.4008 22.8 55.7008 22.8ZM16.9008 46.1L6.10078 54.7001C5.90078 54.8 5.70078 54.9001 5.50078 54.9001C5.20078 54.9001 5.00078 54.8 4.80078 54.6C4.50078 54.2 4.60078 53.7001 4.90078 53.4001L15.6008 44.8C16.0008 44.5 16.5008 44.6001 16.8008 44.9001C17.3008 45.2001 17.2008 45.8 16.9008 46.1ZM57.5008 54.6C57.3008 54.8 57.1008 54.9001 56.8008 54.9001C56.6008 54.9001 56.4008 54.8 56.2008 54.7001L45.5008 46.1C45.1008 45.8 45.1008 45.2001 45.4008 44.9001C45.7008 44.5001 46.3008 44.5 46.6008 44.8L57.3008 53.4001C57.7008 53.7001 57.8008 54.2 57.5008 54.6Z" fill="#F8F1FA"/>
<path d="M18.7004 8.1V3L12.4004 9.3H17.5004C18.2004 9.2 18.7004 8.7 18.7004 8.1Z" fill="#F8F1FA"/>
<path d="M55.7 21H52.9V2.4C52.9 1.1 51.8 0 50.5 0H19.8H19.7H19.6C19.3 0 19.1 0.1 18.9 0.3C18.9 0.3 18.8 0.3 18.8 0.4L9.8 9.4C9.8 9.4 9.8 9.5 9.7 9.5C9.5 9.7 9.4 9.9 9.4 10.2V10.3V10.4V21H6.7C3 21 0 24 0 27.7V58.2C0 61.9 3 64.9 6.7 64.9H55.7C59.4 64.9 62.4 61.9 62.4 58.2V27.7C62.3 24 59.4 21 55.7 21ZM60.6 58.2C60.6 60.9 58.4 63.1 55.7 63.1H6.7C4 63.1 1.8 60.9 1.8 58.2V27.7C1.8 25 4 22.8 6.7 22.8H9.5V33.9L6 31.1C5.6 30.8 5.1 30.9 4.8 31.2C4.5 31.6 4.6 32.1 4.9 32.4L28.3 51C29.1 51.7 30.2 52 31.2 52C32.2 52 33.3 51.7 34.1 51L57.5 32.7C57.9 32.4 58 31.8 57.7 31.5C57.4 31.1 56.8 31 56.5 31.3L53 34V22.8H55.8C58.5 22.8 60.7 25 60.7 27.7V58.2H60.6ZM18.7 3V8.1C18.7 8.7 18.2 9.3 17.5 9.3H12.4L18.7 3ZM11.2 21V11H17.5C19.1 11 20.4 9.7 20.4 8.1V1.8H50.5C50.9 1.8 51.1 2.1 51.1 2.4V21V21.9V22.8V35.5L33 49.7C31.9 50.5 30.4 50.5 29.4 49.7L11.2 35.3V22.8V21.9V21Z" fill="#66247A"/>
<path d="M15.7994 44.7001L4.99939 53.4001C4.59939 53.7001 4.59939 54.3001 4.89939 54.6001C5.09939 54.8001 5.29939 54.9001 5.59939 54.9001C5.79939 54.9001 5.99939 54.8001 6.19939 54.7001L16.8994 46.1001C17.2994 45.8001 17.2994 45.2001 16.9994 44.9001C16.6994 44.5001 16.0994 44.4001 15.7994 44.7001Z" fill="#66247A"/>
<path d="M46.5999 44.6999C46.1999 44.3999 45.6999 44.4999 45.3999 44.7999C45.0999 45.1999 45.1999 45.6999 45.4999 45.9999L56.1999 54.5999C56.3999 54.6999 56.5999 54.7999 56.7999 54.7999C57.0999 54.7999 57.2999 54.6999 57.4999 54.4999C57.7999 54.0999 57.6999 53.5999 57.3999 53.2999L46.5999 44.6999Z" fill="#66247A"/>
<path d="M39.7996 27.9001L30.9996 36.6001L25.8996 31.5001C25.5996 31.2001 24.9996 31.2001 24.6996 31.5001C24.3996 31.8001 24.3996 32.4001 24.6996 32.7001L30.4996 38.5001C30.6996 38.7001 30.8996 38.8001 31.0996 38.8001C31.2996 38.8001 31.5996 38.7001 31.6996 38.5001L41.0996 29.1001C41.3996 28.8001 41.3996 28.2001 41.0996 27.9001C40.6996 27.5001 40.0996 27.5001 39.7996 27.9001Z" fill="#66247A"/>
<path d="M16.9996 15.8H45.2996C45.7996 15.8 46.1996 15.4 46.1996 14.9C46.1996 14.4 45.7996 14 45.2996 14H16.9996C16.4996 14 16.0996 14.4 16.0996 14.9C16.0996 15.4 16.4996 15.8 16.9996 15.8Z" fill="#66247A"/>
<path d="M16.5996 22.8001C16.6996 22.9001 16.8996 22.9001 16.9996 22.9001H30.6996C30.8996 22.9001 30.9996 22.8001 31.0996 22.8001C31.3996 22.6001 31.5996 22.4001 31.5996 22.0001V21.9001C31.4996 21.5001 31.1996 21.1001 30.6996 21.1001H16.9996C16.5996 21.1001 16.1996 21.4001 16.0996 21.9001V22.0001C16.0996 22.4001 16.2996 22.6001 16.5996 22.8001Z" fill="#66247A"/>
</svg>
