<svg width="160" height="36" viewBox="0 0 160 36" fill="none" xmlns="http://www.w3.org/2000/svg">
<path d="M1.82239 0H7.96912L4.10811 11.5212H6.08495L0 29.7143L1.97683 14.1467H0L1.82239 0Z" fill="url(#paint0_linear)"/>
<path d="M12.1384 29.7143H1.94531L3.98392 23.6603H11.5515C16.2156 23.6603 16.0303 16.9884 11.5515 16.9884H6.20787L8.03026 11.5212H11.2117C15.5669 11.5212 15.4434 5.46719 11.2117 5.46719H8.06115L9.88354 0H11.7677C16.926 0 20.7253 3.30502 20.7253 7.69112C20.7253 10.2239 19.4588 12.6023 17.3585 14.0541C19.953 15.444 21.4666 18.0077 21.4666 21.1892C21.5283 25.946 17.3276 29.7143 12.1384 29.7143Z" fill="url(#paint1_linear)"/>
<path d="M73.451 29.4054H68.6016V5.25098H73.451V29.4054Z" fill="url(#paint2_linear)"/>
<path d="M49.1419 22.4249C49.1419 24.1237 50.1303 25.1121 51.9218 25.1121H54.1148V29.4056H50.6554C46.7017 29.4056 44.2924 26.9963 44.2924 23.0735V15.5059H41.0801L49.0801 7.01172V11.614H54.0222V15.5059H49.1419V22.4249Z" fill="url(#paint3_linear)"/>
<path d="M54.0234 15.5059L61.9926 7.01172V11.614H66.9347V15.5059H62.0543V22.4249C62.0543 24.1237 63.0428 25.1121 64.8343 25.1121H67.0273V29.4056H63.5678C59.6142 29.4056 57.2049 26.9963 57.2049 23.0735V15.5059H54.0234Z" fill="url(#paint4_linear)"/>
<path d="M41.7598 20.5096C41.7598 25.8841 37.6207 29.9305 32.0918 29.9305C26.5628 29.9305 22.4238 25.8841 22.4238 20.5096C22.4238 15.1351 26.5628 11.1196 32.0918 11.1196C37.6207 11.1505 41.7598 15.166 41.7598 20.5096ZM27.335 20.5096C27.335 23.4131 29.3119 25.3899 32.0918 25.3899C34.8717 25.3899 36.8485 23.4131 36.8485 20.5096C36.8485 17.637 34.8717 15.6293 32.0918 15.6293C29.3119 15.6602 27.335 17.6679 27.335 20.5096Z" fill="url(#paint5_linear)"/>
<path d="M93.3746 20.4787C93.3746 15.3513 89.6063 11.1196 84.1082 11.1196C78.7955 11.1196 74.8418 15.166 74.8418 20.5096C74.8418 25.8532 78.8572 29.9305 84.1082 29.9305C88.2781 29.9305 91.7067 27.4594 92.9731 23.5675H87.9075C87.1661 24.8648 85.7762 25.637 84.1082 25.637C81.7607 25.637 80.1545 24.2779 79.7221 21.8378H93.282C93.3438 21.4054 93.3746 20.942 93.3746 20.4787ZM84.1082 15.2586C86.3013 15.2586 87.8457 16.4324 88.5561 18.6254H79.8766C80.4325 16.4941 81.9461 15.2586 84.1082 15.2586Z" fill="url(#paint6_linear)"/>
<path d="M103.877 13.2817C105.39 11.9226 107.398 11.1504 109.622 11.1504C115.027 11.1504 119.012 15.1658 119.012 20.5404C119.012 25.9458 115.027 29.9921 109.622 29.9921C107.769 29.9921 106.07 29.4361 104.711 28.4786V35.8299H99.8613V11.6446H103.043L103.877 13.2817ZM104.34 20.5095C104.34 23.3203 106.41 25.3898 109.22 25.3898C112.031 25.3898 114.101 23.3203 114.101 20.5095C114.101 17.7295 112.031 15.6292 109.22 15.6292C106.379 15.66 104.34 17.7604 104.34 20.5095Z" fill="url(#paint7_linear)"/>
<path d="M135.598 11.6446L135.104 13.3126C133.56 11.9535 131.521 11.1504 129.204 11.1504C123.83 11.1504 119.814 15.1658 119.814 20.5404C119.814 25.9149 123.83 29.9612 129.204 29.9612C131.49 29.9612 133.467 29.1581 135.011 27.8299L135.444 29.4361H139.212V11.6446H135.598ZM129.606 25.3898C126.795 25.3898 124.726 23.2894 124.726 20.5095C124.726 17.6987 126.795 15.6292 129.606 15.6292C132.417 15.6292 134.486 17.6987 134.486 20.5095C134.486 23.3203 132.448 25.3898 129.606 25.3898Z" fill="url(#paint8_linear)"/>
<path d="M150.394 22.5792L154.873 11.6139H160L152.216 29.1583C150.054 34.0077 148.17 35.7992 144.155 35.7992H142.178V31.4749H143.846C146.193 31.4749 146.78 30.8572 147.892 28.139L147.954 28.0155L140.355 11.583H145.637L150.394 22.5792Z" fill="url(#paint9_linear)"/>
<defs>
<linearGradient id="paint0_linear" x1="3.43482" y1="7.36946" x2="24.6716" y2="-59.2915" gradientUnits="userSpaceOnUse">
<stop stop-color="#6D2077"/>
<stop offset="1" stop-color="#004C97"/>
</linearGradient>
<linearGradient id="paint1_linear" x1="15.6595" y1="11.2642" x2="36.8964" y2="-55.3969" gradientUnits="userSpaceOnUse">
<stop stop-color="#6D2077"/>
<stop offset="1" stop-color="#004C97"/>
</linearGradient>
<linearGradient id="paint2_linear" x1="67.6725" y1="27.8345" x2="88.9094" y2="-38.8267" gradientUnits="userSpaceOnUse">
<stop stop-color="#6D2077"/>
<stop offset="1" stop-color="#004C97"/>
</linearGradient>
<linearGradient id="paint3_linear" x1="47.9066" y1="21.5377" x2="69.1434" y2="-45.1234" gradientUnits="userSpaceOnUse">
<stop stop-color="#6D2077"/>
<stop offset="1" stop-color="#004C97"/>
</linearGradient>
<linearGradient id="paint4_linear" x1="59.6335" y1="25.2732" x2="80.8702" y2="-41.3877" gradientUnits="userSpaceOnUse">
<stop stop-color="#6D2077"/>
<stop offset="1" stop-color="#004C97"/>
</linearGradient>
<linearGradient id="paint5_linear" x1="33.2544" y1="16.8695" x2="54.4912" y2="-49.7915" gradientUnits="userSpaceOnUse">
<stop stop-color="#6D2077"/>
<stop offset="1" stop-color="#004C97"/>
</linearGradient>
<linearGradient id="paint6_linear" x1="80.5035" y1="31.9218" x2="101.74" y2="-34.7393" gradientUnits="userSpaceOnUse">
<stop stop-color="#6D2077"/>
<stop offset="1" stop-color="#004C97"/>
</linearGradient>
<linearGradient id="paint7_linear" x1="102.401" y1="38.8978" x2="123.638" y2="-27.7632" gradientUnits="userSpaceOnUse">
<stop stop-color="#6D2077"/>
<stop offset="1" stop-color="#004C97"/>
</linearGradient>
<linearGradient id="paint8_linear" x1="122.773" y1="45.3879" x2="144.01" y2="-21.2731" gradientUnits="userSpaceOnUse">
<stop stop-color="#6D2077"/>
<stop offset="1" stop-color="#004C97"/>
</linearGradient>
<linearGradient id="paint9_linear" x1="137.889" y1="50.2035" x2="159.125" y2="-16.4576" gradientUnits="userSpaceOnUse">
<stop stop-color="#6D2077"/>
<stop offset="1" stop-color="#004C97"/>
</linearGradient>
</defs>
</svg>
