<svg width="840" height="188" viewBox="0 0 840 188" fill="none" xmlns="http://www.w3.org/2000/svg">
<path d="M9.80339 0H42.0551L21.7965 60.4517H32.1689L0.241333 155.91L10.6137 74.2276H0.241333L9.80339 0Z" fill="white"/>
<path d="M63.9344 155.91H10.4517L21.1482 124.145H60.8551C85.3275 124.145 84.3551 89.1379 60.8551 89.1379H32.8172L42.3792 60.4517H59.0724C81.9241 60.4517 81.2758 28.6862 59.0724 28.6862H42.5413L52.1034 0H61.9896C89.0551 0 108.99 17.3414 108.99 40.3552C108.99 53.6448 102.345 66.1241 91.3241 73.7414C104.938 81.0345 112.879 94.4862 112.879 111.179C113.203 136.138 91.162 155.91 63.9344 155.91Z" fill="white"/>
<path d="M385.641 154.29H360.197V27.5517H385.641V154.29Z" fill="white"/>
<path d="M258.093 117.662C258.093 126.576 263.279 131.762 272.679 131.762H284.186V154.29H266.034C245.29 154.29 232.648 141.648 232.648 121.066V81.3587H215.793L257.769 36.7897V60.938H283.7V81.3587H258.093V117.662Z" fill="white"/>
<path d="M283.7 81.3587L325.514 36.7897V60.938H351.445V81.3587H325.838V117.662C325.838 126.576 331.024 131.762 340.424 131.762H351.931V154.29H333.779C313.034 154.29 300.393 141.648 300.393 121.066V81.3587H283.7Z" fill="white"/>
<path d="M219.359 107.614C219.359 135.814 197.641 157.045 168.631 157.045C139.621 157.045 117.903 135.814 117.903 107.614C117.903 79.4138 139.621 58.3448 168.631 58.3448C197.641 58.5069 219.359 79.5759 219.359 107.614ZM143.672 107.614C143.672 122.848 154.045 133.221 168.631 133.221C183.217 133.221 193.59 122.848 193.59 107.614C193.59 92.5414 183.217 82.0069 168.631 82.0069C154.045 82.169 143.672 92.7034 143.672 107.614Z" fill="white"/>
<path d="M490.176 107.452C490.176 80.5483 470.403 58.3448 441.555 58.3448C413.679 58.3448 392.934 79.5759 392.934 107.614C392.934 135.652 414.003 157.045 441.555 157.045C463.434 157.045 481.424 144.079 488.069 123.659H461.49C457.6 130.466 450.307 134.517 441.555 134.517C429.238 134.517 420.81 127.386 418.541 114.583H489.69C490.014 112.314 490.176 109.883 490.176 107.452ZM441.555 80.0621C453.062 80.0621 461.166 86.2207 464.893 97.7276H419.352C422.269 86.5448 430.21 80.0621 441.555 80.0621Z" fill="white"/>
<path d="M545.279 69.6896C553.221 62.5586 563.755 58.5069 575.424 58.5069C603.786 58.5069 624.693 79.5758 624.693 107.776C624.693 136.138 603.786 157.369 575.424 157.369C565.7 157.369 556.786 154.452 549.655 149.428V188H524.21V61.1H540.903L545.279 69.6896ZM547.71 107.614C547.71 122.362 558.569 133.221 573.317 133.221C588.066 133.221 598.924 122.362 598.924 107.614C598.924 93.0275 588.066 82.0069 573.317 82.0069C558.407 82.1689 547.71 93.1896 547.71 107.614Z" fill="white"/>
<path d="M711.724 61.1L709.131 69.8517C701.028 62.7207 690.331 58.5069 678.176 58.5069C649.976 58.5069 628.907 79.5758 628.907 107.776C628.907 135.976 649.976 157.207 678.176 157.207C690.169 157.207 700.541 152.993 708.645 146.024L710.914 154.452H730.686V61.1H711.724ZM680.283 133.221C665.534 133.221 654.676 122.2 654.676 107.614C654.676 92.8655 665.534 82.0069 680.283 82.0069C695.031 82.0069 705.89 92.8655 705.89 107.614C705.89 122.362 695.193 133.221 680.283 133.221Z" fill="white"/>
<path d="M789.355 118.472L812.855 60.9379H839.759L798.917 152.993C787.572 178.438 777.686 187.838 756.617 187.838H746.245V165.148H754.997C767.314 165.148 770.393 161.907 776.228 147.645L776.552 146.997L736.683 60.7759H764.397L789.355 118.472Z" fill="white"/>
</svg>
