<?xml version="1.0" standalone="no"?>
<!DOCTYPE svg PUBLIC "-//W3C//DTD SVG 1.1//EN" "http://www.w3.org/Graphics/SVG/1.1/DTD/svg11.dtd" >
<svg xmlns="http://www.w3.org/2000/svg" xmlns:xlink="http://www.w3.org/1999/xlink" version="1.1">
<metadata>
Created by FontForge 20170910 at Tue Aug  7 12:02:48 2012
 By Jimmy Wärting
Spaced and kerned with iKern.
</metadata>
<defs>
<font id="MuseoSansCyrl-900Italic" horiz-adv-x="400" >
  <font-face 
    font-family="Museo Sans Cyrl 900"
    font-weight="700"
    font-style="italic"
    font-stretch="normal"
    units-per-em="1000"
    panose-1="2 0 0 0 0 0 0 0 0 0"
    ascent="750"
    descent="-250"
    x-height="515"
    cap-height="715"
    bbox="-191 -210 1227 918"
    underline-thickness="50"
    underline-position="-100"
    slope="-11"
    stemh="150"
    stemv="175"
    unicode-range="U+0020-FB04"
  />
<missing-glyph horiz-adv-x="510" 
d="M5 0v700h500v-700h-500zM255 395l170 255h-340zM455 95v510l-170 -255zM55 95l170 255l-170 255v-510zM85 50h340l-170 255z" />
    <glyph glyph-name="f_f" unicode="ff" horiz-adv-x="763" 
d="M35 0l74 380h-63l27 135h63l2 13c26 167 183 191 261 191c20 0 40 -1 63 -3l-30 -146c-4 1 -13 2 -26 2c-34 0 -91 -7 -97 -50l-1 -7h210l2 13c26 167 183 191 261 191c21 0 41 -1 63 -3l-30 -146c-4 1 -13 2 -26 2c-34 0 -91 -7 -97 -50l-1 -7h95l-26 -135h-95l-74 -380
h-173l74 380h-209l-74 -380h-173z" />
    <glyph glyph-name="fi" unicode="fi" horiz-adv-x="673" 
d="M35 0l74 380h-63l27 135h63l2 13c26 167 183 191 261 191c21 0 42 -1 63 -3l-30 -146c-3 1 -15 2 -26 2c-34 0 -91 -7 -97 -50l-1 -7h350l-100 -515h-172l73 380h-177l-74 -380h-173zM500 580l26 135h169l-26 -135h-169z" />
    <glyph glyph-name="fl" unicode="fl" horiz-adv-x="703" 
d="M37 0l72 371h-63l27 135h63l4 22c30 169 183 191 261 191c21 0 43 -1 63 -3l-30 -146c-3 1 -14 2 -26 2c-34 0 -89 -6 -97 -50l-3 -16h95l-26 -135h-95l-72 -371h-173zM412 137c0 18 2 39 7 63l100 515h173l-96 -496c-3 -13 -5 -30 -5 -39c0 -26 18 -33 39 -33
c5 0 10 0 21 1l-29 -150c-10 -1 -30 -3 -47 -3c-91 0 -163 34 -163 142z" />
    <glyph glyph-name="f_f_i" unicode="ffi" horiz-adv-x="1056" 
d="M35 0l74 380h-63l27 135h63l2 13c26 167 183 191 261 191c20 0 41 -2 63 -3l-30 -146c-4 1 -14 2 -26 2c-34 0 -91 -7 -97 -50l-1 -7h210l2 13c26 167 183 191 261 191c20 0 41 -1 63 -3l-30 -146c-7 1 -15 2 -26 2c-34 0 -91 -7 -97 -50l-1 -7h351l-100 -515h-172
l73 380h-178l-74 -380h-173l74 380h-209l-74 -380h-173zM883 580l26 135h169l-26 -135h-169z" />
    <glyph glyph-name="f_f_l" unicode="ffl" horiz-adv-x="1084" 
d="M35 0l74 380h-63l27 135h63l2 13c26 167 183 191 261 191c20 0 40 -1 63 -3l-30 -146c-4 1 -13 2 -26 2c-34 0 -91 -7 -97 -50l-1 -7h210l2 13c26 167 183 191 261 191c21 0 41 -1 63 -3l-30 -146c-4 1 -13 2 -26 2c-34 0 -91 -7 -97 -50l-1 -7h95l-26 -135h-95l-74 -380
h-173l74 380h-209l-74 -380h-173zM793 137c0 18 2 39 7 63l100 515h173l-96 -496c-3 -13 -5 -30 -5 -39c0 -26 18 -33 39 -33c5 0 10 0 21 1l-29 -150c-10 -1 -30 -3 -47 -3c-91 0 -163 34 -163 142z" />
    <glyph glyph-name="f_j" unicode="fj" horiz-adv-x="675" 
d="M35 0l74 380h-63l27 135h63l2 13c26 167 183 191 261 191c20 0 41 -1 63 -3l-30 -146c-7 1 -15 2 -26 2c-34 0 -91 -7 -97 -50l-1 -7h351l-102 -526c-34 -175 -187 -197 -264 -197c-20 0 -39 1 -61 3l28 144c6 -1 13 -1 22 -1c34 0 94 8 105 66l73 376h-178l-74 -380
h-173zM501 580l26 135h169l-26 -135h-169z" />
    <glyph glyph-name=".notdef" horiz-adv-x="510" 
d="M5 0v700h500v-700h-500zM255 395l170 255h-340zM455 95v510l-170 -255zM55 95l170 255l-170 255v-510zM85 50h340l-170 255z" />
    <glyph glyph-name="space" unicode=" " horiz-adv-x="250" 
 />
    <glyph glyph-name="exclam" unicode="!" horiz-adv-x="310" 
d="M65 221l80 494h180l-112 -494h-148zM19 0l29 150h158l-29 -150h-158z" />
    <glyph glyph-name="quotedbl" unicode="&#x22;" horiz-adv-x="437" 
d="M289 490l47 240h122l-47 -240h-122zM98 490l47 240h122l-47 -240h-122z" />
    <glyph glyph-name="numbersign" unicode="#" horiz-adv-x="714" 
d="M46 0l66 180h-97l42 120h98l36 95h-96l43 120h96l74 200h137l-74 -200h108l74 200h137l-74 -200h102l-43 -120h-102l-36 -95h100l-43 -120h-100l-66 -180h-137l66 180h-108l-66 -180h-137zM292 300h108l36 95h-108z" />
    <glyph glyph-name="dollar" unicode="$" horiz-adv-x="600" 
d="M2 90l104 124c40 -40 108 -65 169 -65c34 0 86 15 86 63c0 74 -267 93 -267 292c0 129 112 209 233 221l18 90h109l-18 -94c55 -10 127 -34 168 -77l-94 -129c-37 31 -102 51 -153 51c-35 0 -88 -18 -88 -62c0 -78 269 -90 269 -292c0 -118 -102 -214 -245 -223l-16 -88
h-109l18 95c-63 13 -126 38 -184 94z" />
    <glyph glyph-name="percent" unicode="%" horiz-adv-x="884" 
d="M256 382c-101 0 -170 67 -170 159c0 96 96 186 197 186s171 -71 171 -163c0 -97 -99 -182 -198 -182zM36 0l674 715h159l-674 -715h-159zM264 502c31 0 62 27 62 61c0 25 -19 44 -50 44s-62 -30 -62 -62c0 -25 19 -43 50 -43zM454 147c0 96 96 186 197 186
s171 -71 171 -163c0 -97 -99 -182 -198 -182c-101 0 -170 67 -170 159zM582 151c0 -25 19 -43 50 -43s62 27 62 61c0 25 -19 44 -50 44s-62 -30 -62 -62z" />
    <glyph glyph-name="ampersand" unicode="&#x26;" horiz-adv-x="700" 
d="M25 194c0 78 67 161 156 187v2s-62 27 -62 115c0 165 146 229 267 229c38 0 73 -7 108 -19l-64 -130c-10 3 -24 4 -38 4c-46 0 -99 -28 -99 -89c0 -30 20 -54 61 -54h87l17 88h172l-17 -88h89l-29 -150h-89l-13 -69c-29 -153 -134 -232 -293 -232
c-161 0 -253 87 -253 206zM209 207c0 -34 30 -60 75 -60c66 0 108 36 117 83l11 59h-98c-44 0 -105 -19 -105 -82z" />
    <glyph glyph-name="quotesingle" unicode="'" horiz-adv-x="249" 
d="M98 490l47 240h125l-47 -240h-125z" />
    <glyph glyph-name="parenleft" unicode="(" horiz-adv-x="335" 
d="M95 -95c-35 80 -59 173 -59 276c0 211 60 399 214 569h147c-142 -175 -211 -372 -211 -573c0 -93 14 -184 46 -272h-137z" />
    <glyph glyph-name="parenright" unicode=")" horiz-adv-x="334" 
d="M-51 -95c142 175 211 372 211 573c0 93 -14 184 -46 272h137c35 -80 59 -173 59 -276c0 -211 -60 -399 -214 -569h-147z" />
    <glyph glyph-name="asterisk" unicode="*" horiz-adv-x="500" 
d="M195 309l-110 90l93 88l-101 21l73 140l93 -45l11 112h152l-34 -112l112 46l20 -146l-122 -26l60 -81l-131 -88l-41 99z" />
    <glyph glyph-name="plus" unicode="+" horiz-adv-x="600" 
d="M174 0l43 222h-205l25 130h205l43 223h136l-43 -223h205l-25 -130h-205l-43 -222h-136z" />
    <glyph glyph-name="comma" unicode="," horiz-adv-x="306" 
d="M-64 -111l127 277h169l-167 -277h-129z" />
    <glyph glyph-name="hyphen" unicode="-" horiz-adv-x="433" 
d="M42 212l29 150h314l-29 -150h-314z" />
    <glyph glyph-name="period" unicode="." horiz-adv-x="284" 
d="M3 0l31 164h164l-31 -164h-164z" />
    <glyph glyph-name="slash" unicode="/" horiz-adv-x="476" 
d="M-32 -42l408 792h154l-409 -792h-153z" />
    <glyph glyph-name="zero" unicode="0" horiz-adv-x="642" 
d="M50 238c0 182 80 489 329 489c175 0 237 -102 237 -248c0 -181 -82 -491 -330 -491c-175 0 -236 103 -236 250zM231 246c0 -59 17 -98 61 -98c96 0 142 212 142 321c0 59 -17 98 -61 98c-97 0 -142 -214 -142 -321z" />
    <glyph glyph-name="one" unicode="1" horiz-adv-x="553" 
d="M3 0l27 150h152l57 285c5 27 12 55 12 55h-2s-13 -20 -36 -38l-50 -39l-87 118l236 184h151l-110 -565h152l-29 -150h-473z" />
    <glyph glyph-name="two" unicode="2" horiz-adv-x="603" 
d="M3 0c0 202 131 293 247 363c88 53 156 85 156 141c0 36 -27 58 -67 58c-53 0 -95 -34 -125 -76l-123 96c47 57 123 145 266 145c117 0 232 -70 232 -203c0 -143 -134 -221 -239 -281c-66 -38 -110 -64 -119 -93h295l-29 -150h-494z" />
    <glyph glyph-name="three" unicode="3" horiz-adv-x="589" 
d="M-12 82l100 124c32 -35 90 -53 142 -53c82 0 123 40 123 85c0 46 -44 65 -114 65h-59l-20 85l107 113c40 42 76 67 76 67v2s-24 -5 -69 -5h-163l29 150h451l-21 -109l-176 -177c62 -16 135 -74 135 -183c0 -125 -96 -258 -295 -258c-91 0 -183 29 -246 94z" />
    <glyph glyph-name="four" unicode="4" horiz-adv-x="634" 
d="M2 173l19 106l346 436h229l-77 -397h85l-28 -145h-85l-34 -173h-173l34 173h-316zM216 318h130l31 160c8 39 21 80 21 80h-2s-25 -43 -49 -74l-131 -164v-2z" />
    <glyph glyph-name="five" unicode="5" horiz-adv-x="589" 
d="M-1 82l102 125c32 -30 85 -54 134 -54c69 0 127 43 127 101c0 50 -43 76 -101 76c-55 0 -100 -24 -100 -24l-92 36l102 373h405l-29 -150h-248l-17 -64c-3 -10 -9 -28 -9 -28h2s25 5 54 5c121 0 214 -89 214 -215c0 -151 -134 -275 -310 -275c-84 0 -175 31 -234 94z" />
    <glyph glyph-name="six" unicode="6" horiz-adv-x="619" 
d="M45 260c0 207 156 467 407 467c56 0 120 -8 170 -33l-71 -142c-30 9 -62 15 -97 15c-84 0 -142 -52 -177 -118h2c19 16 61 25 88 25c138 0 203 -97 203 -215c0 -128 -102 -271 -264 -271c-139 0 -261 89 -261 272zM223 258c0 -67 42 -110 86 -110c54 0 89 53 89 104
c0 42 -24 81 -89 81c-57 0 -86 -34 -86 -75z" />
    <glyph glyph-name="seven" unicode="7" horiz-adv-x="569" 
d="M-2 0l349 501c34 50 59 65 59 65v2s-10 -3 -46 -3h-271l29 150h513l-24 -122l-415 -593h-194z" />
    <glyph glyph-name="eight" unicode="8" horiz-adv-x="627" 
d="M26 196c0 97 104 174 136 195c-28 30 -48 67 -48 116c0 106 91 220 259 220c133 0 231 -69 231 -190c0 -86 -83 -169 -105 -189c37 -30 64 -69 64 -126c0 -112 -106 -234 -286 -234c-169 0 -251 94 -251 208zM377 416c18 19 51 60 51 104c0 33 -23 53 -64 53
c-49 0 -76 -31 -76 -67c0 -41 40 -65 89 -90zM210 209c0 -38 29 -67 72 -67c51 0 101 29 101 80c0 38 -50 63 -108 93c-26 -21 -65 -60 -65 -106z" />
    <glyph glyph-name="nine" unicode="9" horiz-adv-x="620" 
d="M20 21l71 142c29 -10 63 -15 97 -15c84 0 142 52 177 118h-2s-40 -25 -88 -25c-138 0 -203 97 -203 215c0 128 105 271 267 271c139 0 258 -89 258 -272c0 -207 -156 -467 -407 -467c-56 0 -120 8 -170 33zM333 382c57 0 86 34 86 75c0 67 -42 110 -86 110
c-54 0 -89 -53 -89 -104c0 -42 24 -81 89 -81z" />
    <glyph glyph-name="colon" unicode=":" horiz-adv-x="283" 
d="M70 351l32 164h164l-32 -164h-164zM1 0l32 164h164l-32 -164h-164z" />
    <glyph glyph-name="semicolon" unicode=";" horiz-adv-x="317" 
d="M100 351l32 164h158l-32 -164h-158zM-64 -111l127 277h169l-167 -277h-129z" />
    <glyph glyph-name="less" unicode="&#x3c;" horiz-adv-x="600" 
d="M24 234v107l504 223v-145l-330 -131v-2l330 -130v-145z" />
    <glyph glyph-name="equal" unicode="=" horiz-adv-x="600" 
d="M42 337v130h506v-130h-506zM42 107v130h506v-130h-506z" />
    <glyph glyph-name="greater" unicode="&#x3e;" horiz-adv-x="600" 
d="M67 11v145l330 130v2l-330 131v145l504 -223v-107z" />
    <glyph glyph-name="question" unicode="?" horiz-adv-x="518" 
d="M128 221l9 50c26 144 205 171 205 253c0 29 -26 49 -60 49c-38 0 -73 -21 -103 -43l-79 127c44 35 127 73 210 73c110 0 214 -62 214 -180c0 -177 -207 -212 -223 -293l-7 -36h-166zM90 0l29 150h158l-29 -150h-158z" />
    <glyph glyph-name="at" unicode="@" horiz-adv-x="850" 
d="M32 177c0 238 203 438 453 438c204 0 273 -88 273 -204c0 -18 -3 -41 -7 -61l-33 -173h74l-23 -119h-268c-141 0 -209 77 -209 166c0 91 86 192 248 192h64s1 4 1 7c0 38 -65 57 -123 57c-157 0 -279 -156 -279 -292c0 -105 68 -190 210 -190l-25 -128
c-211 0 -356 130 -356 307zM464 228c0 -29 17 -51 55 -51h39l26 134h-37c-52 0 -83 -41 -83 -83z" />
    <glyph glyph-name="A" unicode="A" horiz-adv-x="668" 
d="M-57 0l372 715h201l99 -715h-175l-15 150h-223l-72 -150h-187zM270 290h141l-14 139c-4 45 -6 123 -6 123h-2s-29 -78 -51 -123z" />
    <glyph glyph-name="B" unicode="B" horiz-adv-x="650" 
d="M18 0l139 715h230c47 0 90 -4 125 -16c72 -25 113 -82 113 -154c0 -65 -41 -134 -111 -169v-2c62 -23 86 -80 86 -137c0 -114 -76 -190 -175 -221c-36 -12 -75 -16 -114 -16h-293zM278 438h90c49 0 77 41 77 80c0 27 -15 47 -55 47h-87zM222 150h105c19 0 35 4 49 12
c27 17 44 49 44 80c0 32 -20 56 -63 56h-106z" />
    <glyph glyph-name="C" unicode="C" horiz-adv-x="717" 
d="M45 305c0 230 190 422 420 422c97 0 207 -29 276 -103l-99 -120c-42 36 -107 63 -171 63c-159 0 -245 -137 -245 -250c0 -92 53 -169 166 -169c77 0 150 38 209 85l68 -139c-67 -60 -182 -106 -287 -106c-209 0 -337 131 -337 317z" />
    <glyph glyph-name="D" unicode="D" horiz-adv-x="738" 
d="M19 0l138 715h229c207 0 331 -104 331 -283c0 -239 -172 -432 -419 -432h-279zM223 150h72c147 0 242 120 242 266c0 98 -61 149 -161 149h-72z" />
    <glyph glyph-name="E" unicode="E" horiz-adv-x="575" 
d="M18 0l140 715h447l-29 -150h-273l-25 -130h217l-30 -150h-217l-26 -135h287l-29 -150h-462z" />
    <glyph glyph-name="F" unicode="F" horiz-adv-x="540" 
d="M19 0l138 715h437l-28 -150h-263l-29 -150h217l-28 -150h-218l-52 -265h-174z" />
    <glyph glyph-name="G" unicode="G" horiz-adv-x="773" 
d="M45 304c0 230 185 423 431 423c92 0 205 -27 275 -92l-101 -121c-37 31 -107 53 -170 53c-171 0 -253 -131 -253 -251c0 -115 78 -168 168 -168c54 0 111 22 155 52l11 55h-101l29 149h256l-79 -404h-146l4 20c3 15 7 30 7 30h-2c-41 -41 -109 -62 -175 -62
c-157 0 -309 114 -309 316z" />
    <glyph glyph-name="H" unicode="H" horiz-adv-x="762" 
d="M18 0l139 715h175l-56 -286h260l56 286h175l-139 -715h-175l54 280h-260l-54 -280h-175z" />
    <glyph glyph-name="I" unicode="I" horiz-adv-x="327" 
d="M18 0l139 715h175l-139 -715h-175z" />
    <glyph glyph-name="J" unicode="J" horiz-adv-x="563" 
d="M-3 178c0 15 1 33 5 52l8 42h175l-7 -37c-2 -12 -4 -24 -4 -33c0 -40 23 -54 53 -54c37 0 66 23 76 75l67 342h-191l29 150h366l-98 -505c-29 -151 -137 -222 -253 -222c-118 0 -226 64 -226 190z" />
    <glyph glyph-name="K" unicode="K" horiz-adv-x="682" 
d="M18 0l139 715h175l-54 -276h67l205 276h203l-271 -351v-2l130 -362h-186l-95 290h-82l-56 -290h-175z" />
    <glyph glyph-name="L" unicode="L" horiz-adv-x="549" 
d="M18 0l139 715h175l-110 -565h292l-30 -150h-466z" />
    <glyph glyph-name="M" unicode="M" horiz-adv-x="878" 
d="M-7 0l191 715h191l47 -302c7 -46 12 -118 12 -118h2s35 71 60 118l163 302h192l-81 -715h-172l41 322c7 54 23 120 23 120h-2s-38 -76 -63 -120l-116 -207h-152l-36 207c-8 45 -15 122 -15 122h-2s-9 -68 -23 -122l-84 -322h-176z" />
    <glyph glyph-name="N" unicode="N" horiz-adv-x="749" 
d="M18 0l139 715h170l133 -334c19 -47 36 -122 36 -122h2s7 77 16 122l65 334h175l-139 -715h-169l-134 333c-19 47 -37 122 -37 122h-2s-6 -77 -15 -122l-65 -333h-175z" />
    <glyph glyph-name="O" unicode="O" horiz-adv-x="820" 
d="M44 307c0 227 200 420 419 420c204 0 337 -131 337 -312c0 -231 -204 -427 -420 -427c-205 0 -336 134 -336 319zM224 317c0 -101 65 -169 158 -169c117 0 237 112 237 256c0 98 -65 163 -158 163c-120 0 -237 -110 -237 -250z" />
    <glyph glyph-name="P" unicode="P" horiz-adv-x="631" 
d="M18 0l139 715h273c42 0 78 -7 109 -22c67 -32 104 -98 104 -181c0 -120 -68 -222 -164 -267c-34 -16 -72 -24 -110 -24h-133l-43 -221h-175zM265 371h85c22 0 43 4 59 15c33 22 54 63 54 110c0 42 -24 69 -72 69h-88z" />
    <glyph glyph-name="Q" unicode="Q" horiz-adv-x="820" 
d="M44 307c0 227 200 420 419 420c204 0 337 -131 337 -312c0 -114 -46 -203 -111 -274l60 -61l-110 -102l-59 70c-56 -38 -116 -60 -200 -60c-205 0 -336 134 -336 319zM224 317c0 -101 65 -169 158 -169c31 0 62 8 91 22l-62 67l110 102l59 -71c24 39 39 86 39 136
c0 98 -65 163 -158 163c-120 0 -237 -110 -237 -250z" />
    <glyph glyph-name="R" unicode="R" horiz-adv-x="653" 
d="M18 0l139 715h266c39 0 75 -5 105 -17c67 -27 107 -84 107 -164c0 -85 -40 -199 -149 -242v-2s7 -12 18 -43l92 -247h-188l-80 241h-88l-47 -241h-175zM269 391h75c62 0 111 39 111 110c0 42 -28 64 -73 64h-79z" />
    <glyph glyph-name="S" unicode="S" horiz-adv-x="580" 
d="M-7 90l104 124c40 -38 107 -65 169 -65c34 0 86 15 86 63c0 75 -267 94 -267 292c0 141 133 223 266 223c89 0 180 -24 244 -83l-94 -129c-33 27 -95 51 -153 51c-35 0 -88 -18 -88 -62c0 -79 269 -91 269 -292c0 -123 -112 -224 -266 -224c-95 0 -207 32 -270 102z" />
    <glyph glyph-name="T" unicode="T" horiz-adv-x="630" 
d="M169 0l110 565h-216l29 150h607l-29 -150h-216l-110 -565h-175z" />
    <glyph glyph-name="U" unicode="U" horiz-adv-x="734" 
d="M56 210c0 19 2 38 6 58l87 447h175l-88 -452c-2 -10 -3 -19 -3 -28c0 -57 40 -87 105 -87c77 0 131 40 146 115l88 452h175l-89 -457c-32 -161 -154 -270 -326 -270c-149 0 -276 77 -276 222z" />
    <glyph glyph-name="V" unicode="V" horiz-adv-x="685" 
d="M188 0l-115 715h187l47 -407c5 -45 5 -115 5 -115h2s27 70 49 115l206 407h199l-392 -715h-188z" />
    <glyph glyph-name="W" unicode="W" horiz-adv-x="995" 
d="M134 0l-46 715h182l11 -447c1 -44 -2 -75 -2 -75h2s7 31 26 75l196 447h145l21 -447c2 -34 -2 -75 -2 -75h2s7 35 23 75l179 447h191l-314 -715h-203l-19 361c-1 28 -1 56 2 84h-2s-11 -38 -31 -84l-160 -361h-201z" />
    <glyph glyph-name="X" unicode="X" horiz-adv-x="655" 
d="M-49 0l286 360l-149 355h191l52 -144c16 -45 28 -91 28 -91h2s25 45 59 91l105 144h204l-291 -364l151 -351h-187l-56 147c-17 45 -28 88 -28 88h-2s-25 -43 -59 -88l-109 -147h-197z" />
    <glyph glyph-name="Y" unicode="Y" horiz-adv-x="625" 
d="M162 0l57 293l-149 422h189l48 -172c13 -49 23 -103 23 -103h2s31 53 63 103l109 172h210l-322 -429l-55 -286h-175z" />
    <glyph glyph-name="Z" unicode="Z" horiz-adv-x="634" 
d="M-21 0l22 110l340 391c40 45 68 65 68 65v2s-22 -3 -54 -3h-253l28 150h540l-22 -108l-343 -393c-39 -45 -68 -65 -68 -65v-2s23 3 55 3h273l-29 -150h-557z" />
    <glyph glyph-name="bracketleft" unicode="[" horiz-adv-x="354" 
d="M-6 -95l165 845h246l-24 -120h-102l-117 -605h102l-24 -120h-246z" />
    <glyph glyph-name="backslash" unicode="\" horiz-adv-x="447" 
d="M216 -42l-103 792h138l103 -792h-138z" />
    <glyph glyph-name="bracketright" unicode="]" horiz-adv-x="353" 
d="M-16 25h102l117 605h-102l24 120h246l-165 -845h-245z" />
    <glyph glyph-name="asciicircum" unicode="^" horiz-adv-x="630" 
d="M56 241l203 474h107l203 -474h-145l-112 300l-111 -300h-145z" />
    <glyph glyph-name="underscore" unicode="_" horiz-adv-x="614" 
d="M-43 0h596l-25 -130h-595z" />
    <glyph glyph-name="grave" unicode="`" horiz-adv-x="484" 
d="M168 761l-88 150h165l51 -150h-128z" />
    <glyph glyph-name="a" unicode="a" horiz-adv-x="547" 
d="M-8 124c0 152 195 197 327 197h8c2 9 3 13 3 21c0 30 -24 45 -66 45c-52 0 -103 -24 -149 -47l-37 130c35 20 132 57 220 57c87 0 204 -34 204 -164c0 -15 -2 -32 -5 -50l-60 -313h-158l6 31c3 17 9 32 9 32h-2c-22 -28 -76 -75 -152 -75c-77 0 -148 49 -148 136z
M161 153c0 -19 10 -36 43 -36c45 0 94 47 102 89l3 16h-18c-37 0 -130 -8 -130 -69z" />
    <glyph glyph-name="b" unicode="b" horiz-adv-x="634" 
d="M1 0l138 715h173l-38 -194c-5 -26 -11 -46 -11 -46h2c34 33 87 52 135 52c125 0 199 -88 199 -224c0 -187 -141 -315 -282 -315c-54 0 -113 18 -145 63h-2s-1 -13 -4 -29l-4 -22h-161zM214 221c0 -49 25 -90 81 -90c59 0 129 58 129 159c0 56 -31 91 -81 91
c-53 0 -129 -58 -129 -160z" />
    <glyph glyph-name="c" unicode="c" horiz-adv-x="554" 
d="M19 224c0 147 126 303 322 303c75 0 155 -21 210 -76l-87 -108c-28 24 -77 40 -115 40c-97 0 -155 -81 -155 -149c0 -53 32 -102 106 -102c54 0 109 30 154 62l44 -131c-51 -42 -142 -75 -222 -75c-170 0 -257 105 -257 236z" />
    <glyph glyph-name="d" unicode="d" horiz-adv-x="636" 
d="M20 209c0 191 136 318 289 318c43 0 101 -11 130 -46h2s1 13 3 23l41 211h173l-139 -715h-162l7 34c3 16 7 30 7 30h-2c-35 -47 -91 -76 -149 -76c-126 0 -200 87 -200 221zM195 222c0 -56 31 -91 81 -91c55 0 128 62 128 159c0 49 -24 91 -80 91
c-59 0 -129 -58 -129 -159z" />
    <glyph glyph-name="e" unicode="e" horiz-adv-x="566" 
d="M19 213c0 179 127 314 297 314c146 0 220 -83 220 -202c0 -35 -8 -67 -19 -101h-325v-6c0 -51 37 -86 101 -86c53 0 109 24 153 52l44 -129c-40 -31 -129 -67 -208 -67c-176 0 -263 104 -263 225zM215 323h152c1 6 1 10 1 18c0 35 -20 59 -55 59c-50 0 -82 -33 -98 -77z
" />
    <glyph glyph-name="f" unicode="f" horiz-adv-x="385" 
d="M38 0l72 371h-63l27 135h63l4 22c30 169 183 191 261 191c21 0 43 -1 63 -3l-30 -146c-3 1 -14 2 -26 2c-34 0 -89 -6 -97 -50l-3 -16h95l-26 -135h-95l-72 -371h-173z" />
    <glyph glyph-name="g" unicode="g" horiz-adv-x="624" 
d="M62 -33c29 -19 85 -33 141 -33c61 0 125 23 138 99l3 17c1 6 4 19 4 19h-1c-34 -36 -70 -54 -124 -54c-136 0 -200 97 -200 216c0 144 100 296 275 296c47 0 106 -12 138 -55h3s1 10 2 16l5 27h162l-93 -478c-37 -187 -180 -247 -308 -247c-69 0 -155 14 -213 53z
M198 246c0 -49 23 -87 79 -87c76 0 119 84 119 149c0 60 -39 75 -83 75c-72 0 -115 -62 -115 -137z" />
    <glyph glyph-name="h" unicode="h" horiz-adv-x="627" 
d="M1 0l139 715h173l-44 -226c-5 -26 -10 -44 -10 -44h2c29 46 97 82 163 82c89 0 162 -39 162 -146c0 -17 -3 -36 -7 -57l-63 -324h-173l58 296c2 12 3 23 3 30c0 31 -15 44 -46 44c-68 0 -126 -67 -140 -142l-44 -228h-173z" />
    <glyph glyph-name="i" unicode="i" horiz-adv-x="289" 
d="M115 580l26 135h169l-26 -135h-169zM1 0l99 515h173l-100 -515h-172z" />
    <glyph glyph-name="j" unicode="j" horiz-adv-x="290" 
d="M115 580l26 135h169l-26 -135h-169zM1 4l99 511h173l-102 -526c-34 -175 -187 -197 -264 -197c-20 0 -39 1 -61 3l28 144c6 -1 13 -1 22 -1c34 0 94 8 105 66z" />
    <glyph glyph-name="k" unicode="k" horiz-adv-x="596" 
d="M1 0l139 715h173l-72 -370h47l136 170h201l-207 -244v-2l115 -269h-183l-75 200h-62l-39 -200h-173z" />
    <glyph glyph-name="l" unicode="l" horiz-adv-x="324" 
d="M31 137c0 18 2 39 7 63l100 515h173l-96 -496c-3 -13 -5 -30 -5 -39c0 -26 18 -33 39 -33c5 0 10 0 21 1l-29 -150c-10 -1 -30 -3 -47 -3c-91 0 -163 34 -163 142z" />
    <glyph glyph-name="m" unicode="m" horiz-adv-x="909" 
d="M1 0l100 515h167l-8 -40c-3 -16 -10 -37 -10 -37h2c28 36 81 89 156 89c71 0 119 -29 137 -87h2c33 43 99 87 172 87c88 0 147 -38 147 -141c0 -21 -3 -45 -8 -72l-60 -314h-173l59 300c3 16 3 22 3 30c0 24 -9 40 -34 40c-63 0 -109 -74 -125 -157l-42 -213h-173l59 300
c3 16 3 22 3 30c0 24 -9 40 -34 40c-61 0 -109 -74 -125 -157l-42 -213h-173z" />
    <glyph glyph-name="n" unicode="n" horiz-adv-x="627" 
d="M1 0l100 515h167l-5 -26c-5 -26 -13 -51 -13 -51h2c29 46 101 89 172 89c89 0 162 -39 162 -146c0 -17 -3 -36 -7 -57l-63 -324h-173l58 296c2 12 3 23 3 30c0 31 -15 44 -46 44c-68 0 -126 -67 -140 -142l-44 -228h-173z" />
    <glyph glyph-name="o" unicode="o" horiz-adv-x="640" 
d="M18 219c0 181 160 308 321 308c155 0 267 -91 267 -231c0 -182 -161 -308 -321 -308c-155 0 -267 90 -267 231zM193 227c0 -60 40 -95 95 -95c69 0 143 59 143 153c0 61 -40 98 -94 98c-68 0 -144 -62 -144 -156z" />
    <glyph glyph-name="p" unicode="p" horiz-adv-x="633" 
d="M172 -2l-38 -198h-172l138 715h156l-5 -26c-3 -17 -9 -33 -9 -33h2c36 44 94 71 155 71c124 0 199 -88 199 -224c0 -187 -141 -315 -282 -315c-52 0 -101 17 -135 54h-2s-2 -18 -7 -44zM214 222c0 -50 24 -91 80 -91c60 0 129 58 129 159c0 56 -30 91 -80 91
c-53 0 -129 -58 -129 -159z" />
    <glyph glyph-name="q" unicode="q" horiz-adv-x="635" 
d="M20 209c0 191 136 318 289 318c63 0 110 -20 139 -55h2s1 11 4 28l3 15h162l-139 -715h-173l39 202c5 26 11 44 11 44h-2c-21 -22 -68 -58 -135 -58c-126 0 -200 87 -200 221zM195 222c0 -56 31 -91 81 -91c55 0 128 62 128 159c0 49 -24 91 -80 91
c-59 0 -129 -58 -129 -159z" />
    <glyph glyph-name="r" unicode="r" horiz-adv-x="428" 
d="M1 0l100 515h166l-17 -87c-3 -17 -8 -32 -8 -32h1c33 70 106 128 179 128c10 0 19 -1 30 -2l-33 -170c-10 1 -20 3 -34 3c-52 0 -150 -41 -177 -180l-34 -175h-173z" />
    <glyph glyph-name="s" unicode="s" horiz-adv-x="468" 
d="M-17 58l82 116c31 -28 85 -46 132 -46c36 0 55 9 55 30c0 51 -204 38 -204 200c0 102 97 169 218 169c66 0 134 -20 189 -57l-68 -120c-28 22 -81 37 -126 37c-34 0 -53 -9 -53 -29c0 -49 205 -35 205 -204c0 -100 -85 -166 -209 -166c-78 0 -161 26 -221 70z" />
    <glyph glyph-name="t" unicode="t" horiz-adv-x="407" 
d="M60 160c0 12 2 26 5 40l34 171h-65l26 135h71l29 148h166l-29 -148h109l-26 -135h-109l-28 -147c-2 -9 -3 -22 -3 -27c0 -42 38 -50 76 -50c7 0 14 0 27 1l-29 -150c-14 -1 -28 -3 -46 -3c-113 0 -208 46 -208 165z" />
    <glyph glyph-name="u" unicode="u" horiz-adv-x="620" 
d="M25 134c0 17 3 36 7 57l63 324h173l-58 -296c-2 -12 -3 -23 -3 -30c0 -31 15 -44 46 -44c66 0 120 67 134 142l44 228h173l-100 -515h-167l5 26c5 26 13 51 13 51h-2c-29 -46 -95 -89 -166 -89c-89 0 -162 39 -162 146z" />
    <glyph glyph-name="v" unicode="v" horiz-adv-x="563" 
d="M122 0l-77 515h171l26 -274c2 -16 2 -89 2 -89h2s19 55 36 89l133 274h183l-276 -515h-200z" />
    <glyph glyph-name="w" unicode="w" horiz-adv-x="825" 
d="M95 0l-44 515h172l4 -304c0 -28 -4 -54 -4 -54h2c1 0 7 26 19 54l131 304h145l11 -304c1 -18 -2 -54 -2 -54h2s5 26 17 54l123 304h184l-245 -515h-192l-11 238c-1 28 0 55 0 55h-2s-8 -27 -20 -55l-105 -238h-185z" />
    <glyph glyph-name="x" unicode="x" horiz-adv-x="549" 
d="M-47 0l216 260l-122 255h182l42 -110c5 -13 11 -38 11 -38h2s13 25 22 38l78 110h200l-220 -265l119 -250h-178l-46 111c-3 9 -9 30 -9 30h-2s-11 -21 -18 -30l-80 -111h-197z" />
    <glyph glyph-name="y" unicode="y" horiz-adv-x="567" 
d="M-4 -50c13 -10 34 -16 51 -16c30 0 66 8 93 52l15 24l-121 505h180l42 -255c5 -28 5 -76 5 -76h2s18 45 31 73l115 258h194l-322 -570c-64 -113 -153 -155 -225 -155c-46 0 -95 14 -135 40z" />
    <glyph glyph-name="z" unicode="z" horiz-adv-x="544" 
d="M-22 0l16 86l229 237c32 32 53 47 53 47v2s-12 -2 -44 -2h-176l29 145h459l-16 -87l-229 -237c-31 -31 -56 -47 -56 -47v-2s14 3 47 3h187l-29 -145h-470z" />
    <glyph glyph-name="braceleft" unicode="{" horiz-adv-x="395" 
d="M70 38c0 12 1 25 4 39l16 83c2 10 3 18 3 26c0 40 -26 68 -69 70l29 150c53 2 92 40 104 99l20 103c26 132 143 147 228 147c14 0 29 -1 42 -2l-24 -124c-3 1 -14 2 -25 2c-29 0 -74 -8 -83 -54l-26 -132c-12 -59 -59 -98 -109 -114v-2c40 -14 63 -58 63 -107
c0 -10 -1 -20 -3 -32l-22 -112c-1 -4 -1 -8 -1 -12c0 -36 38 -42 64 -42c8 0 16 1 25 2l-24 -124c-9 -1 -22 -2 -44 -2c-48 0 -168 18 -168 138z" />
    <glyph glyph-name="bar" unicode="|" horiz-adv-x="356" 
d="M109 -165v967h144v-967h-144z" />
    <glyph glyph-name="braceright" unicode="}" horiz-adv-x="395" 
d="M8 24c29 0 74 8 83 54l28 139c12 59 57 98 109 114v2c-34 12 -63 48 -63 107c0 10 1 20 3 32l20 105c1 4 1 8 1 12c0 36 -38 42 -64 42c-11 0 -19 -1 -25 -2l24 124c10 1 29 2 44 2c48 0 168 -18 168 -138c0 -12 -2 -25 -4 -39l-14 -76c-2 -10 -3 -18 -3 -26
c0 -42 27 -68 69 -70l-29 -150c-23 0 -87 -15 -104 -99l-22 -110c-27 -132 -144 -147 -228 -147c-14 0 -27 1 -42 2l24 124c7 -1 15 -2 25 -2z" />
    <glyph glyph-name="asciitilde" unicode="~" horiz-adv-x="622" 
d="M43 191c0 134 58 203 174 203c93 0 120 -80 172 -80c32 0 55 25 55 76h133c0 -134 -58 -203 -173 -203c-93 0 -120 80 -173 80c-31 0 -54 -25 -54 -76h-134z" />
    <glyph glyph-name="exclamdown" unicode="&#xa1;" horiz-adv-x="291" 
d="M78 365l29 150h158l-29 -150h-158zM-41 -200l112 494h148l-80 -494h-180z" />
    <glyph glyph-name="cent" unicode="&#xa2;" horiz-adv-x="600" 
d="M192 -12l18 92c-96 30 -164 116 -164 236c0 191 147 308 273 326l16 84h110l-17 -91c75 -19 139 -87 154 -168l-155 -56c-6 40 -32 73 -80 73c-55 0 -127 -67 -127 -163c0 -59 33 -89 78 -89c47 0 88 29 113 71l149 -63c-51 -87 -134 -158 -242 -171l-16 -81h-110z" />
    <glyph glyph-name="sterling" unicode="&#xa3;" horiz-adv-x="600" 
d="M-12 0l29 150h54l29 149h-43l22 112h42l22 110c24 122 131 206 264 206c73 0 146 -34 194 -90l-109 -108c-21 22 -57 41 -90 41c-38 0 -75 -25 -83 -64l-19 -95h166l-22 -112h-165l-29 -149h290l-29 -150h-523z" />
    <glyph glyph-name="yen" unicode="&#xa5;" horiz-adv-x="600" 
d="M151 0l33 167h-163l18 96h163l6 28l-15 49h-139l19 96h92l-83 279h191l28 -143c13 -66 22 -133 22 -133h2s29 68 66 133l79 143h208l-192 -279h93l-19 -96h-140l-33 -49l-6 -28h164l-18 -96h-164l-33 -167h-179z" />
    <glyph glyph-name="section" unicode="&#xa7;" horiz-adv-x="529" 
d="M125 179l-22 263c-13 152 70 285 243 285c77 0 156 -28 213 -82l-86 -98c-29 26 -82 42 -127 42c-90 0 -125 -61 -117 -150l22 -260h-126zM-15 20l86 98c29 -26 83 -42 127 -42c90 0 125 61 117 150l-22 260h126l22 -263c13 -152 -70 -285 -243 -285
c-76 0 -158 28 -213 82z" />
    <glyph glyph-name="dieresis" unicode="&#xa8;" horiz-adv-x="485" 
d="M217 771l28 140h126l-28 -140h-126zM8 771l28 140h126l-28 -140h-126z" />
    <glyph glyph-name="copyright" unicode="&#xa9;" horiz-adv-x="820" 
d="M61 358c0 204 161 368 359 368c202 0 363 -164 363 -368s-161 -370 -363 -370c-198 0 -359 166 -359 370zM174 358c0 -149 107 -267 246 -267c142 0 251 118 251 267c0 148 -109 265 -251 265c-139 0 -246 -117 -246 -265zM250 355c0 106 80 187 172 187
c76 0 139 -43 162 -115l-100 -39c-7 25 -28 49 -58 49s-59 -33 -59 -82c0 -54 25 -82 59 -82c27 0 49 21 58 49l100 -39c-18 -53 -68 -115 -162 -115c-92 0 -172 81 -172 187z" />
    <glyph glyph-name="ordfeminine" unicode="&#xaa;" horiz-adv-x="431" 
d="M185 383c-49 0 -92 33 -92 87c0 119 153 124 199 124h10s3 11 3 17c0 18 -16 27 -41 27c-31 0 -60 -13 -86 -25l-25 78c37 21 94 34 148 34c81 0 121 -41 121 -107c0 -10 -1 -21 -3 -33l-38 -195h-108l7 39h-2c-16 -24 -52 -46 -93 -46zM233 472c24 0 49 22 53 45l1 5
h-10c-31 0 -64 -8 -64 -35c0 -10 9 -15 20 -15zM57 268l16 85h305l-17 -85h-304z" />
    <glyph glyph-name="guillemotleft" unicode="&#xab;" horiz-adv-x="664" 
d="M418 77l-130 205l213 206h167l-227 -213l130 -198h-153zM158 77l-130 205l191 206h164l-202 -213l130 -198h-153z" />
    <glyph glyph-name="logicalnot" unicode="&#xac;" horiz-adv-x="652" 
d="M65 337v130h506v-335h-135v205h-371z" />
    <glyph glyph-name="registered" unicode="&#xae;" horiz-adv-x="820" 
d="M61 358c0 204 161 368 359 368c202 0 363 -164 363 -368s-161 -370 -363 -370c-198 0 -359 166 -359 370zM174 358c0 -149 107 -267 246 -267c142 0 251 118 251 267c0 148 -109 265 -251 265c-139 0 -246 -117 -246 -265zM290 187v347h163c75 0 122 -45 122 -115
c0 -56 -41 -84 -58 -89v-2s4 -3 13 -20l63 -121h-118l-49 118h-28v-118h-108zM398 377h27c26 0 40 15 40 42c0 28 -14 41 -38 41h-29v-83z" />
    <glyph glyph-name="macron" unicode="&#xaf;" horiz-adv-x="485" 
d="M42 782l22 112h275l-22 -112h-275z" />
    <glyph glyph-name="degree" unicode="&#xb0;" horiz-adv-x="437" 
d="M253 385c-99 0 -168 66 -168 155c0 99 97 190 195 190c99 0 169 -68 169 -156c0 -102 -99 -189 -196 -189zM261 505c30 0 62 27 62 58c0 28 -21 47 -51 47c-32 0 -61 -30 -61 -60c0 -27 20 -45 50 -45z" />
    <glyph glyph-name="plusminus" unicode="&#xb1;" horiz-adv-x="600" 
d="M196 0v222h-205v130h205v223h136v-223h205v-130h-205v-222h-136zM1 -70h526v-130h-526v130z" />
    <glyph glyph-name="twosuperior" unicode="&#xb2;" 
d="M63 423c0 234 253 229 253 309c0 18 -19 27 -39 27c-31 0 -59 -25 -80 -45l-75 78c42 43 97 82 166 82c76 0 159 -41 159 -129c0 -146 -205 -172 -222 -214h186l-21 -108h-327z" />
    <glyph glyph-name="threesuperior" unicode="&#xb3;" 
d="M223 413c-57 0 -119 21 -162 68l72 83c15 -19 51 -36 91 -36c36 0 60 18 60 45c0 22 -25 33 -55 33h-37l-18 57l74 69c9 8 28 23 28 23v2s-21 -2 -34 -2h-103l21 109h294l-15 -79l-99 -92c48 -16 74 -64 74 -116c0 -79 -69 -164 -191 -164z" />
    <glyph glyph-name="acute" unicode="&#xb4;" horiz-adv-x="484" 
d="M44 761l111 150h177l-148 -150h-140z" />
    <glyph glyph-name="mu" unicode="&#xb5;" horiz-adv-x="633" 
d="M139 -96l-20 -104h-147l139 715h173l-58 -296c-2 -12 -3 -23 -3 -30c0 -31 15 -44 46 -44c66 0 120 67 134 142l44 228h173l-100 -515h-167l5 26c5 26 13 51 13 51h-2c-29 -46 -95 -89 -166 -89c-19 0 -37 2 -53 5h-2s-1 -49 -9 -89z" />
    <glyph glyph-name="mu" unicode="&#x3bc;" horiz-adv-x="633" 
d="M139 -96l-20 -104h-147l139 715h173l-58 -296c-2 -12 -3 -23 -3 -30c0 -31 15 -44 46 -44c66 0 120 67 134 142l44 228h173l-100 -515h-167l5 26c5 26 13 51 13 51h-2c-29 -46 -95 -89 -166 -89c-19 0 -37 2 -53 5h-2s-1 -49 -9 -89z" />
    <glyph glyph-name="paragraph" unicode="&#xb6;" horiz-adv-x="678" 
d="M202 -50l57 291c-98 0 -192 88 -192 210c0 145 134 264 269 264h372l-29 -150h-237l-120 -615h-120zM384 -50l110 565h120l-110 -565h-120z" />
    <glyph glyph-name="periodcentered" unicode="&#xb7;" horiz-adv-x="278" 
d="M43 213l31 164h158l-31 -164h-158z" />
    <glyph glyph-name="cedilla" unicode="&#xb8;" horiz-adv-x="484" 
d="M106 -82l57 111l70 -17l-21 -48c27 -5 62 -24 62 -66c0 -83 -76 -108 -132 -108c-25 0 -51 3 -75 9l16 85c8 -4 33 -8 44 -8c23 0 43 8 43 26c0 14 -18 18 -37 18c-8 0 -17 -1 -27 -2z" />
    <glyph glyph-name="onesuperior" unicode="&#xb9;" 
d="M83 423l21 108h89l26 136c4 19 10 32 10 32h-2s-7 -10 -14 -15l-27 -20l-59 84l148 116h108l-64 -333h90l-21 -108h-305z" />
    <glyph glyph-name="ordmasculine" unicode="&#xba;" horiz-adv-x="477" 
d="M266 385c-93 0 -162 57 -162 146c0 114 103 194 207 194c94 0 162 -57 162 -146c0 -114 -104 -194 -207 -194zM276 488c37 0 77 31 77 82c0 32 -22 53 -51 53c-37 0 -78 -34 -78 -84c0 -32 22 -51 52 -51zM64 268l17 85h338l-17 -85h-338z" />
    <glyph glyph-name="guillemotright" unicode="&#xbb;" horiz-adv-x="664" 
d="M275 77l202 213l-130 198h153l130 -205l-191 -206h-164zM-10 77l227 213l-130 198h153l130 -205l-213 -206h-167z" />
    <glyph glyph-name="onequarter" unicode="&#xbc;" horiz-adv-x="1020" 
d="M750 0l17 87h-196l15 84l216 270h157l-48 -247h53l-20 -107h-53l-17 -87h-124zM717 194h70l18 90c5 25 14 50 14 50h-2s-14 -28 -30 -46l-70 -92v-2zM344 0h-126l474 715h126zM51 274l21 108h89l26 136c4 19 10 32 10 32h-2s-7 -10 -14 -15l-27 -20l-59 84l148 116h108
l-64 -333h90l-21 -108h-305z" />
    <glyph glyph-name="onehalf" unicode="&#xbd;" horiz-adv-x="1010" 
d="M346 0h-126l474 715h126zM49 274l21 108h89l26 136c4 19 10 32 10 32h-2s-7 -10 -14 -15l-27 -20l-59 84l148 116h108l-64 -333h90l-21 -108h-305zM587 0c0 234 253 229 253 309c0 18 -19 27 -39 27c-31 0 -59 -25 -80 -45l-75 78c42 43 97 82 166 82
c76 0 159 -41 159 -129c0 -146 -205 -172 -222 -214h186l-21 -108h-327z" />
    <glyph glyph-name="threequarters" unicode="&#xbe;" horiz-adv-x="1023" 
d="M203 264c-57 0 -119 21 -162 68l72 83c15 -19 51 -36 91 -36c36 0 60 18 60 45c0 22 -25 33 -55 33h-37l-18 57l74 69c9 8 28 23 28 23v2s-21 -2 -34 -2h-103l21 109h294l-15 -79l-99 -92c48 -16 74 -64 74 -116c0 -79 -69 -164 -191 -164zM346 0h-126l474 715h126z
M752 0l17 87h-196l15 84l216 270h157l-48 -247h53l-20 -107h-53l-17 -87h-124zM719 194h70l18 90c5 25 14 50 14 50h-2s-14 -28 -30 -46l-70 -92v-2z" />
    <glyph glyph-name="questiondown" unicode="&#xbf;" horiz-adv-x="512" 
d="M223 365l29 150h158l-29 -150h-158zM-23 -30c0 177 207 212 223 293l6 31h166l-8 -45c-26 -144 -205 -171 -205 -253c0 -29 26 -49 60 -49c38 0 73 21 103 43l79 -127c-45 -36 -131 -73 -210 -73c-110 0 -214 62 -214 180z" />
    <glyph glyph-name="Agrave" unicode="&#xc0;" horiz-adv-x="668" 
d="M-57 0l372 715h201l99 -715h-175l-15 150h-223l-72 -150h-187zM270 290h141l-14 139c-4 45 -6 123 -6 123h-2s-29 -78 -51 -123zM354 761l-88 150h165l51 -150h-128z" />
    <glyph glyph-name="Aacute" unicode="&#xc1;" horiz-adv-x="668" 
d="M-57 0l372 715h201l99 -715h-175l-15 150h-223l-72 -150h-187zM270 290h141l-14 139c-4 45 -6 123 -6 123h-2s-29 -78 -51 -123zM351 761l111 150h177l-148 -150h-140z" />
    <glyph glyph-name="Acircumflex" unicode="&#xc2;" horiz-adv-x="668" 
d="M-57 0l372 715h201l99 -715h-175l-15 150h-223l-72 -150h-187zM270 290h141l-14 139c-4 45 -6 123 -6 123h-2s-29 -78 -51 -123zM238 761l129 150h168l69 -150h-130l-31 82h-2l-63 -82h-140z" />
    <glyph glyph-name="Atilde" unicode="&#xc3;" horiz-adv-x="668" 
d="M-57 0l372 715h201l99 -715h-175l-15 150h-223l-72 -150h-187zM270 290h141l-14 139c-4 45 -6 123 -6 123h-2s-29 -78 -51 -123zM233 761c20 98 69 153 149 153c61 0 74 -60 108 -60c22 0 37 19 44 57h113c-19 -98 -69 -153 -148 -153c-58 0 -76 60 -109 60
c-22 0 -36 -19 -44 -57h-113z" />
    <glyph glyph-name="Adieresis" unicode="&#xc4;" horiz-adv-x="668" 
d="M-57 0l372 715h201l99 -715h-175l-15 150h-223l-72 -150h-187zM270 290h141l-14 139c-4 45 -6 123 -6 123h-2s-29 -78 -51 -123zM470 771l28 140h126l-28 -140h-126zM261 771l28 140h126l-28 -140h-126z" />
    <glyph glyph-name="Aring" unicode="&#xc5;" horiz-adv-x="668" 
d="M-57 0l372 715h201l99 -715h-175l-15 150h-223l-72 -150h-187zM270 290h141l-14 139c-4 45 -6 123 -6 123h-2s-29 -78 -51 -123zM428 747c-51 0 -99 23 -99 73c0 68 67 98 122 98c51 0 100 -24 100 -76c0 -66 -70 -95 -123 -95zM433 797c23 0 43 18 43 43
c0 17 -11 28 -29 28c-22 0 -42 -18 -42 -45c0 -16 10 -26 28 -26z" />
    <glyph glyph-name="AE" unicode="&#xc6;" horiz-adv-x="963" 
d="M-64 0l432 715h626l-29 -150h-273l-25 -130h218l-30 -150h-218l-26 -135h286l-29 -150h-461l56 288h-166l-167 -288h-194zM378 428h112l26 137h-58z" />
    <glyph glyph-name="Ccedilla" unicode="&#xc7;" horiz-adv-x="717" 
d="M261 -82l39 77c-160 30 -255 149 -255 310c0 230 190 422 420 422c97 0 207 -29 276 -103l-99 -120c-42 36 -107 63 -171 63c-159 0 -245 -137 -245 -250c0 -92 53 -169 166 -169c77 0 150 38 209 85l68 -139c-67 -60 -182 -106 -287 -106h-5l-10 -24
c27 -5 62 -24 62 -66c0 -83 -76 -108 -132 -108c-25 0 -51 3 -75 9l16 85c8 -4 33 -8 44 -8c23 0 43 8 43 26c0 14 -18 18 -37 18c-8 0 -17 -1 -27 -2z" />
    <glyph glyph-name="Egrave" unicode="&#xc8;" horiz-adv-x="575" 
d="M18 0l140 715h447l-29 -150h-273l-25 -130h217l-30 -150h-217l-26 -135h287l-29 -150h-462zM326 761l-88 150h165l51 -150h-128z" />
    <glyph glyph-name="Eacute" unicode="&#xc9;" horiz-adv-x="575" 
d="M18 0l140 715h447l-29 -150h-273l-25 -130h217l-30 -150h-217l-26 -135h287l-29 -150h-462zM323 761l111 150h177l-148 -150h-140z" />
    <glyph glyph-name="Ecircumflex" unicode="&#xca;" horiz-adv-x="575" 
d="M18 0l140 715h447l-29 -150h-273l-25 -130h217l-30 -150h-217l-26 -135h287l-29 -150h-462zM210 761l129 150h168l69 -150h-130l-31 82h-2l-63 -82h-140z" />
    <glyph glyph-name="Edieresis" unicode="&#xcb;" horiz-adv-x="575" 
d="M18 0l140 715h447l-29 -150h-273l-25 -130h217l-30 -150h-217l-26 -135h287l-29 -150h-462zM442 771l28 140h126l-28 -140h-126zM233 771l28 140h126l-28 -140h-126z" />
    <glyph glyph-name="Igrave" unicode="&#xcc;" horiz-adv-x="327" 
d="M18 0l139 715h175l-139 -715h-175zM182 761l-88 150h165l51 -150h-128z" />
    <glyph glyph-name="Iacute" unicode="&#xcd;" horiz-adv-x="327" 
d="M18 0l139 715h175l-139 -715h-175zM178 761l111 150h177l-148 -150h-140z" />
    <glyph glyph-name="Icircumflex" unicode="&#xce;" horiz-adv-x="327" 
d="M18 0l139 715h175l-139 -715h-175zM65 761l129 150h168l69 -150h-130l-31 82h-2l-63 -82h-140z" />
    <glyph glyph-name="Idieresis" unicode="&#xcf;" horiz-adv-x="327" 
d="M18 0l139 715h175l-139 -715h-175zM297 771l28 140h126l-28 -140h-126zM88 771l28 140h126l-28 -140h-126z" />
    <glyph glyph-name="Eth" unicode="&#xd0;" horiz-adv-x="742" 
d="M23 0l55 284h-57l27 140h57l56 291h229c207 0 331 -104 331 -283c0 -239 -172 -432 -419 -432h-279zM227 150h72c147 0 242 120 242 266c0 98 -61 149 -161 149h-72l-28 -141h104l-27 -140h-104z" />
    <glyph glyph-name="Ntilde" unicode="&#xd1;" horiz-adv-x="749" 
d="M18 0l139 715h170l133 -334c19 -47 36 -122 36 -122h2s7 77 16 122l65 334h175l-139 -715h-169l-134 333c-19 47 -37 122 -37 122h-2s-6 -77 -15 -122l-65 -333h-175zM270 761c20 98 69 153 149 153c61 0 74 -60 108 -60c22 0 37 19 44 57h113
c-19 -98 -69 -153 -148 -153c-58 0 -76 60 -109 60c-22 0 -36 -19 -44 -57h-113z" />
    <glyph glyph-name="Ograve" unicode="&#xd2;" horiz-adv-x="820" 
d="M44 307c0 227 200 420 419 420c204 0 337 -131 337 -312c0 -231 -204 -427 -420 -427c-205 0 -336 134 -336 319zM224 317c0 -101 65 -169 158 -169c117 0 237 112 237 256c0 98 -65 163 -158 163c-120 0 -237 -110 -237 -250zM427 761l-88 150h165l51 -150h-128z" />
    <glyph glyph-name="Oacute" unicode="&#xd3;" horiz-adv-x="820" 
d="M44 307c0 227 200 420 419 420c204 0 337 -131 337 -312c0 -231 -204 -427 -420 -427c-205 0 -336 134 -336 319zM224 317c0 -101 65 -169 158 -169c117 0 237 112 237 256c0 98 -65 163 -158 163c-120 0 -237 -110 -237 -250zM424 761l111 150h177l-148 -150h-140z" />
    <glyph glyph-name="Ocircumflex" unicode="&#xd4;" horiz-adv-x="820" 
d="M44 307c0 227 200 420 419 420c204 0 337 -131 337 -312c0 -231 -204 -427 -420 -427c-205 0 -336 134 -336 319zM224 317c0 -101 65 -169 158 -169c117 0 237 112 237 256c0 98 -65 163 -158 163c-120 0 -237 -110 -237 -250zM311 761l129 150h168l69 -150h-130l-31 82
h-2l-63 -82h-140z" />
    <glyph glyph-name="Otilde" unicode="&#xd5;" horiz-adv-x="820" 
d="M44 307c0 227 200 420 419 420c204 0 337 -131 337 -312c0 -231 -204 -427 -420 -427c-205 0 -336 134 -336 319zM224 317c0 -101 65 -169 158 -169c117 0 237 112 237 256c0 98 -65 163 -158 163c-120 0 -237 -110 -237 -250zM306 761c20 98 69 153 149 153
c61 0 74 -60 108 -60c22 0 37 19 44 57h113c-19 -98 -69 -153 -148 -153c-58 0 -76 60 -109 60c-22 0 -36 -19 -44 -57h-113z" />
    <glyph glyph-name="Odieresis" unicode="&#xd6;" horiz-adv-x="820" 
d="M44 307c0 227 200 420 419 420c204 0 337 -131 337 -312c0 -231 -204 -427 -420 -427c-205 0 -336 134 -336 319zM224 317c0 -101 65 -169 158 -169c117 0 237 112 237 256c0 98 -65 163 -158 163c-120 0 -237 -110 -237 -250zM543 771l28 140h126l-28 -140h-126z
M334 771l28 140h126l-28 -140h-126z" />
    <glyph glyph-name="multiply" unicode="&#xd7;" horiz-adv-x="600" 
d="M26 92l182 195l-182 196l92 92l179 -192l180 192l92 -92l-183 -196l183 -195l-92 -92l-180 192l-179 -192z" />
    <glyph glyph-name="Oslash" unicode="&#xd8;" horiz-adv-x="820" 
d="M46 25l69 74c-46 55 -71 126 -71 208c0 227 200 420 419 420c74 0 138 -17 191 -48l59 64l65 -52l-59 -64c52 -54 81 -128 81 -212c0 -231 -204 -427 -420 -427c-80 0 -149 20 -203 56l-66 -72zM241 235l293 316c-21 10 -46 16 -73 16c-120 0 -237 -110 -237 -250
c0 -31 6 -59 17 -82zM296 171c24 -15 53 -23 86 -23c117 0 237 112 237 256c0 35 -9 65 -23 90z" />
    <glyph glyph-name="Ugrave" unicode="&#xd9;" horiz-adv-x="734" 
d="M56 210c0 19 2 38 6 58l87 447h175l-88 -452c-2 -10 -3 -19 -3 -28c0 -57 40 -87 105 -87c77 0 131 40 146 115l88 452h175l-89 -457c-32 -161 -154 -270 -326 -270c-149 0 -276 77 -276 222zM385 761l-88 150h165l51 -150h-128z" />
    <glyph glyph-name="Uacute" unicode="&#xda;" horiz-adv-x="734" 
d="M56 210c0 19 2 38 6 58l87 447h175l-88 -452c-2 -10 -3 -19 -3 -28c0 -57 40 -87 105 -87c77 0 131 40 146 115l88 452h175l-89 -457c-32 -161 -154 -270 -326 -270c-149 0 -276 77 -276 222zM382 761l111 150h177l-148 -150h-140z" />
    <glyph glyph-name="Ucircumflex" unicode="&#xdb;" horiz-adv-x="734" 
d="M56 210c0 19 2 38 6 58l87 447h175l-88 -452c-2 -10 -3 -19 -3 -28c0 -57 40 -87 105 -87c77 0 131 40 146 115l88 452h175l-89 -457c-32 -161 -154 -270 -326 -270c-149 0 -276 77 -276 222zM269 761l129 150h168l69 -150h-130l-31 82h-2l-63 -82h-140z" />
    <glyph glyph-name="Udieresis" unicode="&#xdc;" horiz-adv-x="734" 
d="M56 210c0 19 2 38 6 58l87 447h175l-88 -452c-2 -10 -3 -19 -3 -28c0 -57 40 -87 105 -87c77 0 131 40 146 115l88 452h175l-89 -457c-32 -161 -154 -270 -326 -270c-149 0 -276 77 -276 222zM501 771l28 140h126l-28 -140h-126zM292 771l28 140h126l-28 -140h-126z" />
    <glyph glyph-name="Yacute" unicode="&#xdd;" horiz-adv-x="625" 
d="M162 0l57 293l-149 422h189l48 -172c13 -49 23 -103 23 -103h2s31 53 63 103l109 172h210l-322 -429l-55 -286h-175zM321 761l111 150h177l-148 -150h-140z" />
    <glyph glyph-name="Thorn" unicode="&#xde;" horiz-adv-x="631" 
d="M18 0l139 715h175l-21 -106h99c135 0 213 -81 213 -203c0 -163 -124 -291 -274 -291h-134l-22 -115h-175zM245 265h85c69 0 113 54 113 125c0 42 -24 69 -72 69h-89z" />
    <glyph glyph-name="germandbls" unicode="&#xdf;" horiz-adv-x="626" 
d="M1 0l104 537c24 126 147 190 267 190c122 0 219 -66 219 -169c0 -116 -105 -138 -105 -189c0 -56 97 -89 97 -184c0 -109 -104 -192 -215 -192c-45 0 -92 4 -135 21l28 139c26 -11 59 -16 91 -16c24 0 58 10 58 47c0 55 -100 90 -100 172c0 102 107 135 107 185
c0 25 -19 42 -53 42c-41 0 -80 -16 -90 -68l-100 -515h-173z" />
    <glyph glyph-name="agrave" unicode="&#xe0;" horiz-adv-x="547" 
d="M-8 124c0 152 195 197 327 197h8c2 9 3 13 3 21c0 30 -24 45 -66 45c-52 0 -103 -24 -149 -47l-37 130c35 20 132 57 220 57c87 0 204 -34 204 -164c0 -15 -2 -32 -5 -50l-60 -313h-158l6 31c3 17 9 32 9 32h-2c-22 -28 -76 -75 -152 -75c-77 0 -148 49 -148 136z
M161 153c0 -19 10 -36 43 -36c45 0 94 47 102 89l3 16h-18c-37 0 -130 -8 -130 -69zM249 565l-88 150h165l51 -150h-128z" />
    <glyph glyph-name="aacute" unicode="&#xe1;" horiz-adv-x="547" 
d="M-8 124c0 152 195 197 327 197h8c2 9 3 13 3 21c0 30 -24 45 -66 45c-52 0 -103 -24 -149 -47l-37 130c35 20 132 57 220 57c87 0 204 -34 204 -164c0 -15 -2 -32 -5 -50l-60 -313h-158l6 31c3 17 9 32 9 32h-2c-22 -28 -76 -75 -152 -75c-77 0 -148 49 -148 136z
M161 153c0 -19 10 -36 43 -36c45 0 94 47 102 89l3 16h-18c-37 0 -130 -8 -130 -69zM246 565l111 150h177l-148 -150h-140z" />
    <glyph glyph-name="acircumflex" unicode="&#xe2;" horiz-adv-x="547" 
d="M-8 124c0 152 195 197 327 197h8c2 9 3 13 3 21c0 30 -24 45 -66 45c-52 0 -103 -24 -149 -47l-37 130c35 20 132 57 220 57c87 0 204 -34 204 -164c0 -15 -2 -32 -5 -50l-60 -313h-158l6 31c3 17 9 32 9 32h-2c-22 -28 -76 -75 -152 -75c-77 0 -148 49 -148 136z
M161 153c0 -19 10 -36 43 -36c45 0 94 47 102 89l3 16h-18c-37 0 -130 -8 -130 -69zM133 565l129 150h168l69 -150h-130l-31 82h-2l-63 -82h-140z" />
    <glyph glyph-name="atilde" unicode="&#xe3;" horiz-adv-x="547" 
d="M-8 124c0 152 195 197 327 197h8c2 9 3 13 3 21c0 30 -24 45 -66 45c-52 0 -103 -24 -149 -47l-37 130c35 20 132 57 220 57c87 0 204 -34 204 -164c0 -15 -2 -32 -5 -50l-60 -313h-158l6 31c3 17 9 32 9 32h-2c-22 -28 -76 -75 -152 -75c-77 0 -148 49 -148 136z
M161 153c0 -19 10 -36 43 -36c45 0 94 47 102 89l3 16h-18c-37 0 -130 -8 -130 -69zM128 565c20 98 69 153 149 153c61 0 74 -60 108 -60c22 0 37 19 44 57h113c-19 -98 -69 -153 -148 -153c-58 0 -76 60 -109 60c-22 0 -36 -19 -44 -57h-113z" />
    <glyph glyph-name="adieresis" unicode="&#xe4;" horiz-adv-x="547" 
d="M-8 124c0 152 195 197 327 197h8c2 9 3 13 3 21c0 30 -24 45 -66 45c-52 0 -103 -24 -149 -47l-37 130c35 20 132 57 220 57c87 0 204 -34 204 -164c0 -15 -2 -32 -5 -50l-60 -313h-158l6 31c3 17 9 32 9 32h-2c-22 -28 -76 -75 -152 -75c-77 0 -148 49 -148 136z
M161 153c0 -19 10 -36 43 -36c45 0 94 47 102 89l3 16h-18c-37 0 -130 -8 -130 -69zM365 575l28 140h126l-28 -140h-126zM156 575l28 140h126l-28 -140h-126z" />
    <glyph glyph-name="aring" unicode="&#xe5;" horiz-adv-x="547" 
d="M-8 124c0 152 195 197 327 197h8c2 9 3 13 3 21c0 30 -24 45 -66 45c-52 0 -103 -24 -149 -47l-37 130c35 20 132 57 220 57c87 0 204 -34 204 -164c0 -15 -2 -32 -5 -50l-60 -313h-158l6 31c3 17 9 32 9 32h-2c-22 -28 -76 -75 -152 -75c-77 0 -148 49 -148 136z
M161 153c0 -19 10 -36 43 -36c45 0 94 47 102 89l3 16h-18c-37 0 -130 -8 -130 -69zM323 551c-51 0 -99 23 -99 73c0 68 67 98 122 98c51 0 100 -24 100 -76c0 -66 -70 -95 -123 -95zM328 601c23 0 43 18 43 43c0 17 -11 28 -29 28c-22 0 -42 -18 -42 -45
c0 -16 10 -26 28 -26z" />
    <glyph glyph-name="ae" unicode="&#xe6;" horiz-adv-x="852" 
d="M-9 121c0 156 199 202 331 202h7c2 10 2 14 2 18c0 33 -29 46 -65 46c-45 0 -106 -23 -149 -47l-37 130c65 33 141 57 220 57c54 0 107 -18 146 -53h2c45 33 96 53 153 53c146 0 220 -83 220 -202c0 -34 -8 -70 -19 -101h-325c0 -11 2 -21 4 -30c12 -45 53 -62 97 -62
c51 0 112 25 153 52l44 -129c-38 -29 -127 -67 -208 -67c-101 0 -171 36 -214 91h-2c-11 -18 -63 -91 -189 -91c-89 0 -171 46 -171 133zM500 323h152s1 12 1 18c0 32 -20 56 -55 56c-50 0 -82 -33 -98 -74zM165 153c0 -19 13 -33 42 -33c45 0 94 49 102 91l2 13h-16
c-37 0 -130 -10 -130 -71z" />
    <glyph glyph-name="ccedilla" unicode="&#xe7;" horiz-adv-x="555" 
d="M162 -82l40 78c-121 25 -183 117 -183 228c0 147 126 303 322 303c75 0 155 -21 210 -76l-87 -108c-28 24 -77 40 -115 40c-97 0 -155 -81 -155 -149c0 -53 32 -102 106 -102c54 0 109 30 154 62l44 -131c-51 -42 -140 -74 -220 -75l-10 -24c27 -5 62 -24 62 -66
c0 -83 -76 -108 -132 -108c-25 0 -51 3 -75 9l16 85c8 -4 33 -8 44 -8c23 0 43 8 43 26c0 14 -18 18 -37 18c-8 0 -17 -1 -27 -2z" />
    <glyph glyph-name="egrave" unicode="&#xe8;" horiz-adv-x="566" 
d="M19 213c0 179 127 314 297 314c146 0 220 -83 220 -202c0 -35 -8 -67 -19 -101h-325v-6c0 -51 37 -86 101 -86c53 0 109 24 153 52l44 -129c-40 -31 -129 -67 -208 -67c-176 0 -263 104 -263 225zM272 565l-88 150h165l51 -150h-128zM215 323h152c1 6 1 10 1 18
c0 35 -20 59 -55 59c-50 0 -82 -33 -98 -77z" />
    <glyph glyph-name="eacute" unicode="&#xe9;" horiz-adv-x="566" 
d="M19 213c0 179 127 314 297 314c146 0 220 -83 220 -202c0 -35 -8 -67 -19 -101h-325v-6c0 -51 37 -86 101 -86c53 0 109 24 153 52l44 -129c-40 -31 -129 -67 -208 -67c-176 0 -263 104 -263 225zM269 565l111 150h177l-148 -150h-140zM215 323h152c1 6 1 10 1 18
c0 35 -20 59 -55 59c-50 0 -82 -33 -98 -77z" />
    <glyph glyph-name="ecircumflex" unicode="&#xea;" horiz-adv-x="566" 
d="M19 213c0 179 127 314 297 314c146 0 220 -83 220 -202c0 -35 -8 -67 -19 -101h-325v-6c0 -51 37 -86 101 -86c53 0 109 24 153 52l44 -129c-40 -31 -129 -67 -208 -67c-176 0 -263 104 -263 225zM156 565l129 150h168l69 -150h-130l-31 82h-2l-63 -82h-140zM215 323h152
c1 6 1 10 1 18c0 35 -20 59 -55 59c-50 0 -82 -33 -98 -77z" />
    <glyph glyph-name="edieresis" unicode="&#xeb;" horiz-adv-x="566" 
d="M19 213c0 179 127 314 297 314c146 0 220 -83 220 -202c0 -35 -8 -67 -19 -101h-325v-6c0 -51 37 -86 101 -86c53 0 109 24 153 52l44 -129c-40 -31 -129 -67 -208 -67c-176 0 -263 104 -263 225zM179 575l28 140h126l-28 -140h-126zM388 575l28 140h126l-28 -140h-126z
M215 323h152c1 6 1 10 1 18c0 35 -20 59 -55 59c-50 0 -82 -33 -98 -77z" />
    <glyph glyph-name="igrave" unicode="&#xec;" horiz-adv-x="289" 
d="M1 0l99 515h173l-100 -515h-172zM124 565l-88 150h165l51 -150h-128z" />
    <glyph glyph-name="iacute" unicode="&#xed;" horiz-adv-x="289" 
d="M1 0l99 515h173l-100 -515h-172zM120 565l111 150h177l-148 -150h-140z" />
    <glyph glyph-name="icircumflex" unicode="&#xee;" horiz-adv-x="289" 
d="M1 0l99 515h173l-100 -515h-172zM8 565l129 150h168l69 -150h-130l-31 82h-2l-63 -82h-140z" />
    <glyph glyph-name="idieresis" unicode="&#xef;" horiz-adv-x="289" 
d="M1 0l99 515h173l-100 -515h-172zM240 575l28 140h126l-28 -140h-126zM31 575l28 140h126l-28 -140h-126z" />
    <glyph glyph-name="eth" unicode="&#xf0;" horiz-adv-x="589" 
d="M15 202c0 130 111 262 279 262c39 0 76 -16 76 -16h2c-10 25 -33 52 -62 76l-213 -80l20 98l104 39c-31 16 -63 28 -90 33l70 124c74 -19 144 -48 201 -89l188 70l-19 -98l-98 -37c53 -61 85 -140 85 -237c0 -138 -83 -359 -303 -359c-159 0 -240 97 -240 214zM190 204
c0 -40 17 -72 66 -72c72 0 118 75 118 137c0 38 -24 63 -70 63c-77 0 -114 -65 -114 -128z" />
    <glyph glyph-name="ntilde" unicode="&#xf1;" horiz-adv-x="627" 
d="M1 0l100 515h167l-5 -26c-5 -26 -13 -51 -13 -51h2c29 46 101 89 172 89c89 0 162 -39 162 -146c0 -17 -3 -36 -7 -57l-63 -324h-173l58 296c2 12 3 23 3 30c0 31 -15 44 -46 44c-68 0 -126 -67 -140 -142l-44 -228h-173zM178 565c20 98 69 153 149 153
c61 0 74 -60 108 -60c22 0 37 19 44 57h113c-19 -98 -69 -153 -148 -153c-58 0 -76 60 -109 60c-22 0 -36 -19 -44 -57h-113z" />
    <glyph glyph-name="ograve" unicode="&#xf2;" horiz-adv-x="640" 
d="M18 219c0 181 160 308 321 308c155 0 267 -91 267 -231c0 -182 -161 -308 -321 -308c-155 0 -267 90 -267 231zM193 227c0 -60 40 -95 95 -95c69 0 143 59 143 153c0 61 -40 98 -94 98c-68 0 -144 -62 -144 -156zM300 565l-88 150h165l51 -150h-128z" />
    <glyph glyph-name="oacute" unicode="&#xf3;" horiz-adv-x="640" 
d="M18 219c0 181 160 308 321 308c155 0 267 -91 267 -231c0 -182 -161 -308 -321 -308c-155 0 -267 90 -267 231zM193 227c0 -60 40 -95 95 -95c69 0 143 59 143 153c0 61 -40 98 -94 98c-68 0 -144 -62 -144 -156zM297 565l111 150h177l-148 -150h-140z" />
    <glyph glyph-name="ocircumflex" unicode="&#xf4;" horiz-adv-x="640" 
d="M18 219c0 181 160 308 321 308c155 0 267 -91 267 -231c0 -182 -161 -308 -321 -308c-155 0 -267 90 -267 231zM193 227c0 -60 40 -95 95 -95c69 0 143 59 143 153c0 61 -40 98 -94 98c-68 0 -144 -62 -144 -156zM184 565l129 150h168l69 -150h-130l-31 82h-2l-63 -82
h-140z" />
    <glyph glyph-name="otilde" unicode="&#xf5;" horiz-adv-x="640" 
d="M18 219c0 181 160 308 321 308c155 0 267 -91 267 -231c0 -182 -161 -308 -321 -308c-155 0 -267 90 -267 231zM193 227c0 -60 40 -95 95 -95c69 0 143 59 143 153c0 61 -40 98 -94 98c-68 0 -144 -62 -144 -156zM179 565c20 98 69 153 149 153c61 0 74 -60 108 -60
c22 0 37 19 44 57h113c-19 -98 -69 -153 -148 -153c-58 0 -76 60 -109 60c-22 0 -36 -19 -44 -57h-113z" />
    <glyph glyph-name="odieresis" unicode="&#xf6;" horiz-adv-x="640" 
d="M18 219c0 181 160 308 321 308c155 0 267 -91 267 -231c0 -182 -161 -308 -321 -308c-155 0 -267 90 -267 231zM193 227c0 -60 40 -95 95 -95c69 0 143 59 143 153c0 61 -40 98 -94 98c-68 0 -144 -62 -144 -156zM416 575l28 140h126l-28 -140h-126zM207 575l28 140h126
l-28 -140h-126z" />
    <glyph glyph-name="divide" unicode="&#xf7;" horiz-adv-x="600" 
d="M225 440v135h146v-135h-146zM25 222v130h546v-130h-546zM225 0v135h146v-135h-146z" />
    <glyph glyph-name="oslash" unicode="&#xf8;" horiz-adv-x="640" 
d="M23 1l57 61c-39 40 -62 93 -62 157c0 181 160 308 321 308c54 0 104 -11 145 -32l60 64l62 -50l-58 -62c36 -39 58 -90 58 -151c0 -182 -161 -308 -321 -308c-52 0 -99 10 -138 28l-62 -66zM199 189l175 187c-11 5 -24 7 -37 7c-68 0 -144 -62 -144 -156
c0 -14 2 -27 6 -38zM258 135c9 -2 19 -3 30 -3c69 0 143 59 143 153c0 11 -2 22 -4 32z" />
    <glyph glyph-name="ugrave" unicode="&#xf9;" horiz-adv-x="620" 
d="M25 134c0 17 3 36 7 57l63 324h173l-58 -296c-2 -12 -3 -23 -3 -30c0 -31 15 -44 46 -44c66 0 120 67 134 142l44 228h173l-100 -515h-167l5 26c5 26 13 51 13 51h-2c-29 -46 -95 -89 -166 -89c-89 0 -162 39 -162 146zM287 565l-88 150h165l51 -150h-128z" />
    <glyph glyph-name="uacute" unicode="&#xfa;" horiz-adv-x="620" 
d="M25 134c0 17 3 36 7 57l63 324h173l-58 -296c-2 -12 -3 -23 -3 -30c0 -31 15 -44 46 -44c66 0 120 67 134 142l44 228h173l-100 -515h-167l5 26c5 26 13 51 13 51h-2c-29 -46 -95 -89 -166 -89c-89 0 -162 39 -162 146zM284 565l111 150h177l-148 -150h-140z" />
    <glyph glyph-name="ucircumflex" unicode="&#xfb;" horiz-adv-x="620" 
d="M25 134c0 17 3 36 7 57l63 324h173l-58 -296c-2 -12 -3 -23 -3 -30c0 -31 15 -44 46 -44c66 0 120 67 134 142l44 228h173l-100 -515h-167l5 26c5 26 13 51 13 51h-2c-29 -46 -95 -89 -166 -89c-89 0 -162 39 -162 146zM171 565l129 150h168l69 -150h-130l-31 82h-2
l-63 -82h-140z" />
    <glyph glyph-name="udieresis" unicode="&#xfc;" horiz-adv-x="620" 
d="M25 134c0 17 3 36 7 57l63 324h173l-58 -296c-2 -12 -3 -23 -3 -30c0 -31 15 -44 46 -44c66 0 120 67 134 142l44 228h173l-100 -515h-167l5 26c5 26 13 51 13 51h-2c-29 -46 -95 -89 -166 -89c-89 0 -162 39 -162 146zM403 575l28 140h126l-28 -140h-126zM194 575
l28 140h126l-28 -140h-126z" />
    <glyph glyph-name="yacute" unicode="&#xfd;" horiz-adv-x="567" 
d="M-4 -50c13 -10 34 -16 51 -16c30 0 66 8 93 52l15 24l-121 505h180l42 -255c5 -28 5 -76 5 -76h2s18 45 31 73l115 258h194l-322 -570c-64 -113 -153 -155 -225 -155c-46 0 -95 14 -135 40zM260 565l111 150h177l-148 -150h-140z" />
    <glyph glyph-name="thorn" unicode="&#xfe;" horiz-adv-x="633" 
d="M172 -2l-38 -198h-172l177 915h170l-40 -208c-3 -17 -9 -33 -9 -33h2c35 34 87 53 137 53c124 0 199 -88 199 -224c0 -187 -141 -315 -282 -315c-46 0 -103 17 -135 54h-2s-2 -18 -7 -44zM214 222c0 -50 24 -91 80 -91c60 0 129 58 129 159c0 56 -30 91 -80 91
c-53 0 -129 -58 -129 -159z" />
    <glyph glyph-name="ydieresis" unicode="&#xff;" horiz-adv-x="567" 
d="M-4 -50c13 -10 34 -16 51 -16c30 0 66 8 93 52l15 24l-121 505h180l42 -255c5 -28 5 -76 5 -76h2s18 45 31 73l115 258h194l-322 -570c-64 -113 -153 -155 -225 -155c-46 0 -95 14 -135 40zM379 575l28 140h126l-28 -140h-126zM170 575l28 140h126l-28 -140h-126z" />
    <glyph glyph-name="Amacron" unicode="&#x100;" horiz-adv-x="668" 
d="M-57 0l372 715h201l99 -715h-175l-15 150h-223l-72 -150h-187zM270 290h141l-14 139c-4 45 -6 123 -6 123h-2s-29 -78 -51 -123zM293 782l22 112h275l-22 -112h-275z" />
    <glyph glyph-name="amacron" unicode="&#x101;" horiz-adv-x="547" 
d="M-8 124c0 152 195 197 327 197h8c2 9 3 13 3 21c0 30 -24 45 -66 45c-52 0 -103 -24 -149 -47l-37 130c35 20 132 57 220 57c87 0 204 -34 204 -164c0 -15 -2 -32 -5 -50l-60 -313h-158l6 31c3 17 9 32 9 32h-2c-22 -28 -76 -75 -152 -75c-77 0 -148 49 -148 136z
M161 153c0 -19 10 -36 43 -36c45 0 94 47 102 89l3 16h-18c-37 0 -130 -8 -130 -69zM188 586l22 112h275l-22 -112h-275z" />
    <glyph glyph-name="Abreve" unicode="&#x102;" horiz-adv-x="668" 
d="M-57 0l372 715h201l99 -715h-175l-15 150h-223l-72 -150h-187zM270 290h141l-14 139c-4 45 -6 123 -6 123h-2s-29 -78 -51 -123zM437 756c-90 0 -164 43 -164 120c0 11 2 23 5 35h117c-3 -9 -4 -17 -4 -24c0 -33 25 -45 47 -45c27 0 64 18 71 69h117
c-19 -108 -99 -155 -189 -155z" />
    <glyph glyph-name="abreve" unicode="&#x103;" horiz-adv-x="547" 
d="M-8 124c0 152 195 197 327 197h8c2 9 3 13 3 21c0 30 -24 45 -66 45c-52 0 -103 -24 -149 -47l-37 130c35 20 132 57 220 57c87 0 204 -34 204 -164c0 -15 -2 -32 -5 -50l-60 -313h-158l6 31c3 17 9 32 9 32h-2c-22 -28 -76 -75 -152 -75c-77 0 -148 49 -148 136z
M161 153c0 -19 10 -36 43 -36c45 0 94 47 102 89l3 16h-18c-37 0 -130 -8 -130 -69zM332 560c-90 0 -164 43 -164 120c0 11 2 23 5 35h117c-3 -9 -4 -17 -4 -24c0 -33 25 -45 47 -45c27 0 64 18 71 69h117c-19 -108 -99 -155 -189 -155z" />
    <glyph glyph-name="Aogonek" unicode="&#x104;" horiz-adv-x="668" 
d="M-57 0l372 715h201l99 -715c-21 -17 -54 -47 -54 -64c0 -19 33 -22 33 -22l-66 -124s-115 11 -115 84c0 51 42 95 87 126h-60l-15 150h-223l-72 -150h-187zM270 290h141l-14 139c-4 45 -6 123 -6 123h-2s-29 -78 -51 -123z" />
    <glyph glyph-name="aogonek" unicode="&#x105;" horiz-adv-x="547" 
d="M-8 124c0 152 195 197 327 197h8c2 9 3 13 3 21c0 30 -24 45 -66 45c-52 0 -103 -24 -149 -47l-37 130c35 20 132 57 220 57c87 0 204 -34 204 -164c0 -15 -2 -32 -5 -50l-60 -313c-21 -17 -54 -47 -54 -64c0 -19 33 -22 33 -22l-66 -124s-115 11 -115 84
c0 51 42 95 87 126h-43l6 31c3 17 9 32 9 32h-2c-22 -28 -76 -75 -152 -75c-77 0 -148 49 -148 136zM161 153c0 -19 10 -36 43 -36c45 0 94 47 102 89l3 16h-18c-37 0 -130 -8 -130 -69z" />
    <glyph glyph-name="Cacute" unicode="&#x106;" horiz-adv-x="717" 
d="M45 305c0 230 190 422 420 422c97 0 207 -29 276 -103l-99 -120c-42 36 -107 63 -171 63c-159 0 -245 -137 -245 -250c0 -92 53 -169 166 -169c77 0 150 38 209 85l68 -139c-67 -60 -182 -106 -287 -106c-209 0 -337 131 -337 317zM417 761l111 150h177l-148 -150h-140z
" />
    <glyph glyph-name="cacute" unicode="&#x107;" horiz-adv-x="554" 
d="M19 224c0 147 126 303 322 303c75 0 155 -21 210 -76l-87 -108c-28 24 -77 40 -115 40c-97 0 -155 -81 -155 -149c0 -53 32 -102 106 -102c54 0 109 30 154 62l44 -131c-51 -42 -142 -75 -222 -75c-170 0 -257 105 -257 236zM273 565l111 150h177l-148 -150h-140z" />
    <glyph glyph-name="Ccircumflex" unicode="&#x108;" horiz-adv-x="717" 
d="M45 305c0 230 190 422 420 422c97 0 207 -29 276 -103l-99 -120c-42 36 -107 63 -171 63c-159 0 -245 -137 -245 -250c0 -92 53 -169 166 -169c77 0 150 38 209 85l68 -139c-67 -60 -182 -106 -287 -106c-209 0 -337 131 -337 317zM304 761l129 150h168l69 -150h-130
l-31 82h-2l-63 -82h-140z" />
    <glyph glyph-name="ccircumflex" unicode="&#x109;" horiz-adv-x="554" 
d="M19 224c0 147 126 303 322 303c75 0 155 -21 210 -76l-87 -108c-28 24 -77 40 -115 40c-97 0 -155 -81 -155 -149c0 -53 32 -102 106 -102c54 0 109 30 154 62l44 -131c-51 -42 -142 -75 -222 -75c-170 0 -257 105 -257 236zM160 565l129 150h168l69 -150h-130l-31 82h-2
l-63 -82h-140z" />
    <glyph glyph-name="Cdotaccent" unicode="&#x10a;" horiz-adv-x="717" 
d="M45 305c0 230 190 422 420 422c97 0 207 -29 276 -103l-99 -120c-42 36 -107 63 -171 63c-159 0 -245 -137 -245 -250c0 -92 53 -169 166 -169c77 0 150 38 209 85l68 -139c-67 -60 -182 -106 -287 -106c-209 0 -337 131 -337 317zM425 779l26 132h143l-26 -132h-143z
" />
    <glyph glyph-name="cdotaccent" unicode="&#x10b;" horiz-adv-x="554" 
d="M19 224c0 147 126 303 322 303c75 0 155 -21 210 -76l-87 -108c-28 24 -77 40 -115 40c-97 0 -155 -81 -155 -149c0 -53 32 -102 106 -102c54 0 109 30 154 62l44 -131c-51 -42 -142 -75 -222 -75c-170 0 -257 105 -257 236zM281 583l26 132h143l-26 -132h-143z" />
    <glyph glyph-name="Ccaron" unicode="&#x10c;" horiz-adv-x="717" 
d="M45 305c0 230 190 422 420 422c97 0 207 -29 276 -103l-99 -120c-42 36 -107 63 -171 63c-159 0 -245 -137 -245 -250c0 -92 53 -169 166 -169c77 0 150 38 209 85l68 -139c-67 -60 -182 -106 -287 -106c-209 0 -337 131 -337 317zM413 761l-69 150h130l31 -82h2l63 82
h140l-129 -150h-168z" />
    <glyph glyph-name="ccaron" unicode="&#x10d;" horiz-adv-x="554" 
d="M19 224c0 147 126 303 322 303c75 0 155 -21 210 -76l-87 -108c-28 24 -77 40 -115 40c-97 0 -155 -81 -155 -149c0 -53 32 -102 106 -102c54 0 109 30 154 62l44 -131c-51 -42 -142 -75 -222 -75c-170 0 -257 105 -257 236zM269 565l-69 150h130l31 -82h2l63 82h140
l-129 -150h-168z" />
    <glyph glyph-name="Dcaron" unicode="&#x10e;" horiz-adv-x="738" 
d="M19 0l138 715h229c207 0 331 -104 331 -283c0 -239 -172 -432 -419 -432h-279zM223 150h72c147 0 242 120 242 266c0 98 -61 149 -161 149h-72zM355 761l-69 150h130l31 -82h2l63 82h140l-129 -150h-168z" />
    <glyph glyph-name="dcaron" unicode="&#x10f;" horiz-adv-x="656" 
d="M20 209c0 191 136 318 289 318c43 0 101 -11 130 -46h2s1 13 3 23l41 211h173l-139 -715h-162l7 34c3 16 7 30 7 30h-2c-35 -47 -91 -76 -149 -76c-126 0 -200 87 -200 221zM195 222c0 -56 31 -91 81 -91c55 0 128 62 128 159c0 49 -24 91 -80 91
c-59 0 -129 -58 -129 -159zM703 715h136v-18c0 -54 -15 -89 -53 -143h-123c27 49 42 81 42 131c0 10 -1 19 -2 30z" />
    <glyph glyph-name="Dcroat" unicode="&#x110;" horiz-adv-x="742" 
d="M23 0l55 284h-57l27 140h57l56 291h229c207 0 331 -104 331 -283c0 -239 -172 -432 -419 -432h-279zM227 150h72c147 0 242 120 242 266c0 98 -61 149 -161 149h-72l-28 -141h104l-27 -140h-104z" />
    <glyph glyph-name="dcroat" unicode="&#x111;" horiz-adv-x="635" 
d="M20 209c0 191 136 318 289 318c43 0 101 -11 130 -46h2s1 13 3 23l9 50h-125l19 95h125l13 66h173l-13 -66h67l-19 -95h-67l-107 -554h-162l7 34c3 16 6 29 6 29h-2c-35 -47 -90 -75 -148 -75c-126 0 -200 87 -200 221zM195 222c0 -56 31 -91 81 -91c55 0 128 62 128 159
c0 49 -24 91 -80 91c-59 0 -129 -58 -129 -159z" />
    <glyph glyph-name="Emacron" unicode="&#x112;" horiz-adv-x="575" 
d="M18 0l140 715h447l-29 -150h-273l-25 -130h217l-30 -150h-217l-26 -135h287l-29 -150h-462zM265 782l22 112h275l-22 -112h-275z" />
    <glyph glyph-name="emacron" unicode="&#x113;" horiz-adv-x="566" 
d="M19 213c0 179 127 314 297 314c146 0 220 -83 220 -202c0 -35 -8 -67 -19 -101h-325v-6c0 -51 37 -86 101 -86c53 0 109 24 153 52l44 -129c-40 -31 -129 -67 -208 -67c-176 0 -263 104 -263 225zM211 586l22 112h275l-22 -112h-275zM215 323h152c1 6 1 10 1 18
c0 35 -20 59 -55 59c-50 0 -82 -33 -98 -77z" />
    <glyph glyph-name="Ebreve" unicode="&#x114;" horiz-adv-x="575" 
d="M18 0l140 715h447l-29 -150h-273l-25 -130h217l-30 -150h-217l-26 -135h287l-29 -150h-462zM409 756c-90 0 -164 43 -164 120c0 11 2 23 5 35h117c-3 -9 -4 -17 -4 -24c0 -33 25 -45 47 -45c27 0 64 18 71 69h117c-19 -108 -99 -155 -189 -155z" />
    <glyph glyph-name="ebreve" unicode="&#x115;" horiz-adv-x="566" 
d="M19 213c0 179 127 314 297 314c146 0 220 -83 220 -202c0 -35 -8 -67 -19 -101h-325v-6c0 -51 37 -86 101 -86c53 0 109 24 153 52l44 -129c-40 -31 -129 -67 -208 -67c-176 0 -263 104 -263 225zM355 560c-90 0 -164 43 -164 120c0 11 2 23 5 35h117
c-3 -9 -4 -17 -4 -24c0 -33 25 -45 47 -45c27 0 64 18 71 69h117c-19 -108 -99 -155 -189 -155zM215 323h152c1 6 1 10 1 18c0 35 -20 59 -55 59c-50 0 -82 -33 -98 -77z" />
    <glyph glyph-name="Edotaccent" unicode="&#x116;" horiz-adv-x="575" 
d="M18 0l140 715h447l-29 -150h-273l-25 -130h217l-30 -150h-217l-26 -135h287l-29 -150h-462zM331 779l26 132h143l-26 -132h-143z" />
    <glyph glyph-name="edotaccent" unicode="&#x117;" horiz-adv-x="566" 
d="M19 213c0 179 127 314 297 314c146 0 220 -83 220 -202c0 -35 -8 -67 -19 -101h-325v-6c0 -51 37 -86 101 -86c53 0 109 24 153 52l44 -129c-40 -31 -129 -67 -208 -67c-176 0 -263 104 -263 225zM277 583l26 132h143l-26 -132h-143zM215 323h152c1 6 1 10 1 18
c0 35 -20 59 -55 59c-50 0 -82 -33 -98 -77z" />
    <glyph glyph-name="Eogonek" unicode="&#x118;" horiz-adv-x="575" 
d="M18 0l140 715h447l-29 -150h-273l-25 -130h217l-30 -150h-217l-26 -135h287l-29 -150c-21 -17 -56 -47 -56 -64c0 -19 36 -22 36 -22l-66 -124s-115 11 -115 84c0 50 41 93 84 124v2h-345z" />
    <glyph glyph-name="eogonek" unicode="&#x119;" horiz-adv-x="567" 
d="M19 213c0 179 127 314 297 314c146 0 220 -83 220 -202c0 -47 -19 -101 -19 -101h-323c-1 -4 -1 -9 -1 -12c0 -48 39 -80 100 -80c75 0 153 52 153 52l44 -129c-31 -23 -141 -72 -141 -119c0 -19 38 -22 38 -22l-66 -124s-115 11 -115 84c0 45 31 82 71 112v2
c-173 2 -258 105 -258 225zM215 323h152s1 12 1 18c0 32 -20 56 -55 56c-50 0 -82 -33 -98 -74z" />
    <glyph glyph-name="Ecaron" unicode="&#x11a;" horiz-adv-x="575" 
d="M18 0l140 715h447l-29 -150h-273l-25 -130h217l-30 -150h-217l-26 -135h287l-29 -150h-462zM319 761l-69 150h130l31 -82h2l63 82h140l-129 -150h-168z" />
    <glyph glyph-name="ecaron" unicode="&#x11b;" horiz-adv-x="566" 
d="M19 213c0 179 127 314 297 314c146 0 220 -83 220 -202c0 -35 -8 -67 -19 -101h-325v-6c0 -51 37 -86 101 -86c53 0 109 24 153 52l44 -129c-40 -31 -129 -67 -208 -67c-176 0 -263 104 -263 225zM265 565l-69 150h130l31 -82h2l63 82h140l-129 -150h-168zM215 323h152
c1 6 1 10 1 18c0 35 -20 59 -55 59c-50 0 -82 -33 -98 -77z" />
    <glyph glyph-name="Gcircumflex" unicode="&#x11c;" horiz-adv-x="773" 
d="M45 304c0 230 185 423 431 423c92 0 205 -27 275 -92l-101 -121c-37 31 -107 53 -170 53c-171 0 -253 -131 -253 -251c0 -115 78 -168 168 -168c54 0 111 22 155 52l11 55h-101l29 149h256l-79 -404h-146l4 20c3 15 7 30 7 30h-2c-41 -41 -109 -62 -175 -62
c-157 0 -309 114 -309 316zM303 761l129 150h168l69 -150h-130l-31 82h-2l-63 -82h-140z" />
    <glyph glyph-name="gcircumflex" unicode="&#x11d;" horiz-adv-x="624" 
d="M62 -33c29 -19 85 -33 141 -33c61 0 125 23 138 99l3 17c1 6 4 19 4 19h-1c-34 -36 -70 -54 -124 -54c-136 0 -200 97 -200 216c0 144 100 296 275 296c47 0 106 -12 138 -55h3s1 10 2 16l5 27h162l-93 -478c-37 -187 -180 -247 -308 -247c-69 0 -155 14 -213 53z
M198 246c0 -49 23 -87 79 -87c76 0 119 84 119 149c0 60 -39 75 -83 75c-72 0 -115 -62 -115 -137zM167 565l129 150h168l69 -150h-130l-31 82h-2l-63 -82h-140z" />
    <glyph glyph-name="Gbreve" unicode="&#x11e;" horiz-adv-x="773" 
d="M45 304c0 230 185 423 431 423c92 0 205 -27 275 -92l-101 -121c-37 31 -107 53 -170 53c-171 0 -253 -131 -253 -251c0 -115 78 -168 168 -168c54 0 111 22 155 52l11 55h-101l29 149h256l-79 -404h-146l4 20c3 15 7 30 7 30h-2c-41 -41 -109 -62 -175 -62
c-157 0 -309 114 -309 316zM502 756c-90 0 -164 43 -164 120c0 11 2 23 5 35h117c-3 -9 -4 -17 -4 -24c0 -33 25 -45 47 -45c27 0 64 18 71 69h117c-19 -108 -99 -155 -189 -155z" />
    <glyph glyph-name="gbreve" unicode="&#x11f;" horiz-adv-x="624" 
d="M62 -33c29 -19 85 -33 141 -33c61 0 125 23 138 99l3 17c1 6 4 19 4 19h-1c-34 -36 -70 -54 -124 -54c-136 0 -200 97 -200 216c0 144 100 296 275 296c47 0 106 -12 138 -55h3s1 10 2 16l5 27h162l-93 -478c-37 -187 -180 -247 -308 -247c-69 0 -155 14 -213 53z
M198 246c0 -49 23 -87 79 -87c76 0 119 84 119 149c0 60 -39 75 -83 75c-72 0 -115 -62 -115 -137zM366 560c-90 0 -164 43 -164 120c0 11 2 23 5 35h117c-3 -9 -4 -17 -4 -24c0 -33 25 -45 47 -45c27 0 64 18 71 69h117c-19 -108 -99 -155 -189 -155z" />
    <glyph glyph-name="Gdotaccent" unicode="&#x120;" horiz-adv-x="773" 
d="M45 304c0 230 185 423 431 423c92 0 205 -27 275 -92l-101 -121c-37 31 -107 53 -170 53c-171 0 -253 -131 -253 -251c0 -115 78 -168 168 -168c54 0 111 22 155 52l11 55h-101l29 149h256l-79 -404h-146l4 20c3 15 7 30 7 30h-2c-41 -41 -109 -62 -175 -62
c-157 0 -309 114 -309 316zM424 779l26 132h143l-26 -132h-143z" />
    <glyph glyph-name="gdotaccent" unicode="&#x121;" horiz-adv-x="624" 
d="M62 -33c29 -19 85 -33 141 -33c61 0 125 23 138 99l3 17c1 6 4 19 4 19h-1c-34 -36 -70 -54 -124 -54c-136 0 -200 97 -200 216c0 144 100 296 275 296c47 0 106 -12 138 -55h3s1 10 2 16l5 27h162l-93 -478c-37 -187 -180 -247 -308 -247c-69 0 -155 14 -213 53z
M198 246c0 -49 23 -87 79 -87c76 0 119 84 119 149c0 60 -39 75 -83 75c-72 0 -115 -62 -115 -137zM288 583l26 132h143l-26 -132h-143z" />
    <glyph glyph-name="Gcommaaccent" unicode="&#x122;" horiz-adv-x="773" 
d="M45 304c0 230 185 423 431 423c92 0 205 -27 275 -92l-101 -121c-37 31 -107 53 -170 53c-171 0 -253 -131 -253 -251c0 -115 78 -168 168 -168c54 0 111 22 155 52l11 55h-101l29 149h256l-79 -404h-146l4 20c3 15 7 30 7 30h-2c-41 -41 -109 -62 -175 -62
c-157 0 -309 114 -309 316zM251 -49h136v-18c0 -54 -15 -89 -53 -143h-123c27 49 42 81 42 131c0 10 -1 19 -2 30z" />
    <glyph glyph-name="gcommaaccent" unicode="&#x123;" horiz-adv-x="624" 
d="M62 -33c29 -19 85 -33 141 -33c61 0 125 23 138 99l3 17c1 6 4 19 4 19h-1c-34 -36 -70 -54 -124 -54c-136 0 -200 97 -200 216c0 144 100 296 275 296c47 0 106 -12 138 -55h3s1 10 2 16l5 27h162l-93 -478c-37 -187 -180 -247 -308 -247c-69 0 -155 14 -213 53z
M198 246c0 -49 23 -87 79 -87c76 0 119 84 119 149c0 60 -39 75 -83 75c-72 0 -115 -62 -115 -137zM418 560h-135v18c0 51 15 85 53 137h122c-27 -47 -42 -78 -42 -126c0 -10 1 -18 2 -29z" />
    <glyph glyph-name="Hcircumflex" unicode="&#x124;" horiz-adv-x="762" 
d="M18 0l139 715h175l-56 -286h260l56 286h175l-139 -715h-175l54 280h-260l-54 -280h-175zM283 761l129 150h168l69 -150h-130l-31 82h-2l-63 -82h-140z" />
    <glyph glyph-name="hcircumflex" unicode="&#x125;" horiz-adv-x="627" 
d="M1 0l139 715h173l-44 -226c-5 -26 -10 -44 -10 -44h2c29 46 97 82 163 82c89 0 162 -39 162 -146c0 -17 -3 -36 -7 -57l-63 -324h-173l58 296c2 12 3 23 3 30c0 31 -15 44 -46 44c-68 0 -126 -67 -140 -142l-44 -228h-173zM48 761l129 150h168l69 -150h-130l-31 82h-2
l-63 -82h-140z" />
    <glyph glyph-name="Hbar" unicode="&#x126;" horiz-adv-x="772" 
d="M24 0l100 517h-61l21 107h61l18 91h175l-18 -91h260l18 91h175l-18 -91h60l-21 -107h-60l-100 -517h-175l54 280h-260l-54 -280h-175zM282 429h260l17 88h-260z" />
    <glyph glyph-name="hbar" unicode="&#x127;" horiz-adv-x="627" 
d="M1 0l107 554h-57l18 95h58l13 66h173l-13 -66h134l-18 -95h-135l-12 -65c-5 -26 -10 -44 -10 -44h2c29 46 97 82 163 82c89 0 162 -39 162 -146c0 -17 -3 -36 -7 -57l-63 -324h-173l58 296c2 12 3 23 3 30c0 31 -15 44 -46 44c-68 0 -126 -67 -140 -142l-44 -228h-173z
" />
    <glyph glyph-name="Itilde" unicode="&#x128;" horiz-adv-x="327" 
d="M18 0l139 715h175l-139 -715h-175zM60 761c20 98 69 153 149 153c61 0 74 -60 108 -60c22 0 37 19 44 57h113c-19 -98 -69 -153 -148 -153c-58 0 -76 60 -109 60c-22 0 -36 -19 -44 -57h-113z" />
    <glyph glyph-name="itilde" unicode="&#x129;" horiz-adv-x="289" 
d="M1 0l99 515h173l-100 -515h-172zM3 565c20 98 69 153 149 153c61 0 74 -60 108 -60c22 0 37 19 44 57h113c-19 -98 -69 -153 -148 -153c-58 0 -76 60 -109 60c-22 0 -36 -19 -44 -57h-113z" />
    <glyph glyph-name="Imacron" unicode="&#x12a;" horiz-adv-x="327" 
d="M18 0l139 715h175l-139 -715h-175zM120 782l22 112h275l-22 -112h-275z" />
    <glyph glyph-name="imacron" unicode="&#x12b;" horiz-adv-x="289" 
d="M1 0l99 515h173l-100 -515h-172zM63 586l22 112h275l-22 -112h-275z" />
    <glyph glyph-name="Ibreve" unicode="&#x12c;" horiz-adv-x="327" 
d="M18 0l139 715h175l-139 -715h-175zM264 756c-90 0 -164 43 -164 120c0 11 2 23 5 35h117c-3 -9 -4 -17 -4 -24c0 -33 25 -45 47 -45c27 0 64 18 71 69h117c-19 -108 -99 -155 -189 -155z" />
    <glyph glyph-name="ibreve" unicode="&#x12d;" horiz-adv-x="289" 
d="M1 0l99 515h173l-100 -515h-172zM207 560c-90 0 -164 43 -164 120c0 11 2 23 5 35h117c-3 -9 -4 -17 -4 -24c0 -33 25 -45 47 -45c27 0 64 18 71 69h117c-19 -108 -99 -155 -189 -155z" />
    <glyph glyph-name="Iogonek" unicode="&#x12e;" horiz-adv-x="327" 
d="M18 0l139 715h175l-139 -715c-21 -17 -54 -47 -54 -64c0 -19 33 -22 33 -22l-66 -124s-115 11 -115 84c0 51 42 95 87 126h-60z" />
    <glyph glyph-name="iogonek" unicode="&#x12f;" horiz-adv-x="289" 
d="M1 0l99 515h173l-100 -515c-21 -17 -54 -47 -54 -64c0 -19 33 -22 33 -22l-66 -124s-115 11 -115 84c0 51 42 95 87 126h-57zM115 580l26 135h169l-26 -135h-169z" />
    <glyph glyph-name="Idotaccent" unicode="&#x130;" horiz-adv-x="327" 
d="M18 0l139 715h175l-139 -715h-175zM186 779l26 132h143l-26 -132h-143z" />
    <glyph glyph-name="dotlessi" unicode="&#x131;" horiz-adv-x="289" 
d="M1 0l99 515h173l-100 -515h-172z" />
    <glyph glyph-name="IJ" unicode="&#x132;" horiz-adv-x="681" 
d="M261 -4l30 158c42 0 123 24 141 116l86 445h175l-87 -447c-45 -232 -193 -272 -345 -272zM18 0l139 715h175l-139 -715h-175z" />
    <glyph glyph-name="ij" unicode="&#x133;" horiz-adv-x="579" 
d="M115 580l26 135h169l-26 -135h-169zM1 0l99 515h173l-100 -515h-172zM404 580l26 135h169l-26 -135h-169zM290 4l99 511h173l-102 -526c-34 -175 -187 -197 -264 -197c-20 0 -39 1 -61 3l28 144c6 -1 13 -1 22 -1c34 0 94 8 105 66z" />
    <glyph glyph-name="Jcircumflex" unicode="&#x134;" horiz-adv-x="563" 
d="M-3 178c0 15 1 33 5 52l8 42h175l-7 -37c-2 -12 -4 -24 -4 -33c0 -40 23 -54 53 -54c37 0 66 23 76 75l67 342h-191l29 150h366l-98 -505c-29 -151 -137 -222 -253 -222c-118 0 -226 64 -226 190zM207 761l129 150h168l69 -150h-130l-31 82h-2l-63 -82h-140z" />
    <glyph glyph-name="jcircumflex" unicode="&#x135;" horiz-adv-x="290" 
d="M7 565l129 150h168l69 -150h-130l-31 82h-2l-63 -82h-140zM1 4l99 511h173l-102 -526c-34 -175 -187 -197 -264 -197c-37 0 -61 3 -61 3l28 144s9 -1 22 -1c34 0 94 8 105 66z" />
    <glyph glyph-name="Kcommaaccent" unicode="&#x136;" horiz-adv-x="682" 
d="M18 0l139 715h175l-54 -276h67l205 276h203l-271 -351v-2l130 -362h-186l-95 290h-82l-56 -290h-175zM216 -49h136v-18c0 -54 -15 -89 -53 -143h-123c27 49 42 81 42 131c0 10 -1 19 -2 30z" />
    <glyph glyph-name="kcommaaccent" unicode="&#x137;" horiz-adv-x="596" 
d="M1 0l139 715h173l-72 -370h47l136 170h201l-207 -244v-2l115 -269h-183l-75 200h-62l-39 -200h-173zM202 -49h136v-18c0 -54 -15 -89 -53 -143h-123c27 49 42 81 42 131c0 10 -1 19 -2 30z" />
    <glyph glyph-name="kgreenlandic" unicode="&#x138;" horiz-adv-x="594" 
d="M0 0l101 515h173l-35 -180h49l140 180h201l-215 -254v-2l113 -259h-187l-67 190h-63l-37 -190h-173z" />
    <glyph glyph-name="Lacute" unicode="&#x139;" horiz-adv-x="549" 
d="M18 0l139 715h175l-110 -565h292l-30 -150h-466zM177 761l111 150h177l-148 -150h-140z" />
    <glyph glyph-name="lacute" unicode="&#x13a;" horiz-adv-x="322" 
d="M31 137c0 18 2 39 7 63l100 515h173l-96 -496c-3 -13 -5 -30 -5 -39c0 -26 18 -33 39 -33c5 0 10 0 21 1l-29 -150c-10 -1 -30 -3 -47 -3c-91 0 -163 34 -163 142zM157 761l111 150h177l-148 -150h-140z" />
    <glyph glyph-name="Lcommaaccent" unicode="&#x13b;" horiz-adv-x="549" 
d="M18 0l139 715h175l-110 -565h292l-30 -150h-466zM176 -49h136v-18c0 -54 -15 -89 -53 -143h-123c27 49 42 81 42 131c0 10 -1 19 -2 30z" />
    <glyph glyph-name="lcommaaccent" unicode="&#x13c;" horiz-adv-x="322" 
d="M31 137c0 18 2 39 7 63l100 515h173l-96 -496c-3 -13 -5 -30 -5 -39c0 -26 18 -33 39 -33c5 0 10 0 21 1l-29 -150c-10 -1 -30 -3 -47 -3c-91 0 -163 34 -163 142zM48 -49h136v-18c0 -54 -15 -89 -53 -143h-123c27 49 42 81 42 131c0 10 -1 19 -2 30z" />
    <glyph glyph-name="Lcaron" unicode="&#x13d;" horiz-adv-x="550" 
d="M18 0l139 715h175l-110 -565h292l-30 -150h-466zM402 715h136v-18c0 -54 -15 -89 -53 -143h-123c27 49 42 81 42 131c0 10 -1 19 -2 30z" />
    <glyph glyph-name="lcaron" unicode="&#x13e;" horiz-adv-x="342" 
d="M31 137c0 18 2 39 7 63l100 515h173l-96 -496c-3 -13 -5 -30 -5 -39c0 -26 18 -33 39 -33c5 0 10 0 21 1l-29 -150c-10 -1 -30 -3 -47 -3c-91 0 -163 34 -163 142zM358 715h136v-18c0 -54 -15 -89 -53 -143h-123c27 49 42 81 42 131c0 10 -1 19 -2 30z" />
    <glyph glyph-name="Ldot" unicode="&#x13f;" horiz-adv-x="552" 
d="M18 0l139 715h175l-110 -565h292l-30 -150h-466zM348 315l31 164h158l-31 -164h-158z" />
    <glyph glyph-name="ldot" unicode="&#x140;" horiz-adv-x="497" 
d="M31 137c0 18 2 39 7 63l100 515h173l-96 -496c-3 -13 -5 -30 -5 -39c0 -26 18 -33 39 -33c5 0 10 0 21 1l-29 -150c-10 -1 -30 -3 -47 -3c-91 0 -163 34 -163 142zM316 315l31 164h158l-31 -164h-158z" />
    <glyph glyph-name="Lslash" unicode="&#x141;" horiz-adv-x="553" 
d="M23 0l39 204l-56 -29l31 166l58 30l67 344h175l-48 -244l113 58l-32 -166l-113 -58l-30 -155h292l-29 -150h-467z" />
    <glyph glyph-name="lslash" unicode="&#x142;" horiz-adv-x="337" 
d="M41 137c0 18 2 39 7 63l4 23l-54 -28l32 166l54 28l64 326h173l-44 -226l77 40l-32 -166l-77 -40l-20 -104c-3 -13 -5 -30 -5 -39c0 -26 18 -33 39 -33c5 0 11 0 21 1l-29 -150c-13 -2 -28 -3 -47 -3c-91 0 -163 34 -163 142z" />
    <glyph glyph-name="Nacute" unicode="&#x143;" horiz-adv-x="749" 
d="M18 0l139 715h170l133 -334c19 -47 36 -122 36 -122h2s7 77 16 122l65 334h175l-139 -715h-169l-134 333c-19 47 -37 122 -37 122h-2s-6 -77 -15 -122l-65 -333h-175zM388 761l111 150h177l-148 -150h-140z" />
    <glyph glyph-name="nacute" unicode="&#x144;" horiz-adv-x="627" 
d="M1 0l100 515h167l-5 -26c-5 -26 -13 -51 -13 -51h2c29 46 101 89 172 89c89 0 162 -39 162 -146c0 -17 -3 -36 -7 -57l-63 -324h-173l58 296c2 12 3 23 3 30c0 31 -15 44 -46 44c-68 0 -126 -67 -140 -142l-44 -228h-173zM296 565l111 150h177l-148 -150h-140z" />
    <glyph glyph-name="Ncommaaccent" unicode="&#x145;" horiz-adv-x="749" 
d="M18 0l139 715h170l133 -334c19 -47 36 -122 36 -122h2s7 77 16 122l65 334h175l-139 -715h-169l-134 333c-19 47 -37 122 -37 122h-2s-6 -77 -15 -122l-65 -333h-175zM252 -49h136v-18c0 -54 -15 -89 -53 -143h-123c27 49 42 81 42 131c0 10 -1 19 -2 30z" />
    <glyph glyph-name="ncommaaccent" unicode="&#x146;" horiz-adv-x="627" 
d="M1 0l100 515h167l-5 -26c-5 -26 -13 -51 -13 -51h2c29 46 101 89 172 89c89 0 162 -39 162 -146c0 -17 -3 -36 -7 -57l-63 -324h-173l58 296c2 12 3 23 3 30c0 31 -15 44 -46 44c-68 0 -126 -67 -140 -142l-44 -228h-173zM188 -49h136v-18c0 -54 -15 -89 -53 -143h-123
c27 49 42 81 42 131c0 10 -1 19 -2 30z" />
    <glyph glyph-name="Ncaron" unicode="&#x147;" horiz-adv-x="749" 
d="M18 0l139 715h170l133 -334c19 -47 36 -122 36 -122h2s7 77 16 122l65 334h175l-139 -715h-169l-134 333c-19 47 -37 122 -37 122h-2s-6 -77 -15 -122l-65 -333h-175zM384 761l-69 150h130l31 -82h2l63 82h140l-129 -150h-168z" />
    <glyph glyph-name="ncaron" unicode="&#x148;" horiz-adv-x="627" 
d="M1 0l100 515h167l-5 -26c-5 -26 -13 -51 -13 -51h2c29 46 101 89 172 89c89 0 162 -39 162 -146c0 -17 -3 -36 -7 -57l-63 -324h-173l58 296c2 12 3 23 3 30c0 31 -15 44 -46 44c-68 0 -126 -67 -140 -142l-44 -228h-173zM292 565l-69 150h130l31 -82h2l63 82h140
l-129 -150h-168z" />
    <glyph glyph-name="napostrophe" unicode="&#x149;" horiz-adv-x="627" 
d="M1 0l100 515h167l-5 -26c-5 -26 -13 -51 -13 -51h2c29 46 101 89 172 89c89 0 162 -39 162 -146c0 -17 -3 -36 -7 -57l-63 -324h-173l58 296c2 12 3 23 3 30c0 31 -15 44 -46 44c-68 0 -126 -67 -140 -142l-44 -228h-173zM44 715h136v-18c0 -54 -15 -89 -53 -143h-123
c27 49 42 81 42 131c0 10 -1 19 -2 30z" />
    <glyph glyph-name="Eng" unicode="&#x14a;" horiz-adv-x="749" 
d="M18 0l139 715h170l133 -334c19 -47 36 -122 36 -122h2s7 77 16 122l65 334h175l-126 -647c-48 -247 -210 -272 -345 -272l30 158c34 0 96 13 128 59l-129 320c-19 47 -37 122 -37 122h-2s-6 -77 -15 -122l-65 -333h-175z" />
    <glyph glyph-name="eng" unicode="&#x14b;" horiz-adv-x="627" 
d="M1 0l100 515h167l-5 -26c-5 -26 -13 -51 -13 -51h2c29 46 101 89 172 89c89 0 162 -39 162 -146c0 -17 -3 -36 -7 -57l-65 -335c-34 -175 -187 -197 -264 -197c-37 0 -61 3 -61 3l28 144s9 -1 22 -1c34 0 94 8 105 66l57 292c2 12 3 23 3 30c0 31 -15 44 -46 44
c-68 0 -126 -67 -140 -142l-44 -228h-173z" />
    <glyph glyph-name="Omacron" unicode="&#x14c;" horiz-adv-x="820" 
d="M44 307c0 227 200 420 419 420c204 0 337 -131 337 -312c0 -231 -204 -427 -420 -427c-205 0 -336 134 -336 319zM224 317c0 -101 65 -169 158 -169c117 0 237 112 237 256c0 98 -65 163 -158 163c-120 0 -237 -110 -237 -250zM366 782l22 112h275l-22 -112h-275z" />
    <glyph glyph-name="omacron" unicode="&#x14d;" horiz-adv-x="640" 
d="M18 219c0 181 160 308 321 308c155 0 267 -91 267 -231c0 -182 -161 -308 -321 -308c-155 0 -267 90 -267 231zM193 227c0 -60 40 -95 95 -95c69 0 143 59 143 153c0 61 -40 98 -94 98c-68 0 -144 -62 -144 -156zM239 586l22 112h275l-22 -112h-275z" />
    <glyph glyph-name="Obreve" unicode="&#x14e;" horiz-adv-x="820" 
d="M44 307c0 227 200 420 419 420c204 0 337 -131 337 -312c0 -231 -204 -427 -420 -427c-205 0 -336 134 -336 319zM224 317c0 -101 65 -169 158 -169c117 0 237 112 237 256c0 98 -65 163 -158 163c-120 0 -237 -110 -237 -250zM510 756c-90 0 -164 43 -164 120
c0 11 2 23 5 35h117c-3 -9 -4 -17 -4 -24c0 -33 25 -45 47 -45c27 0 64 18 71 69h117c-19 -108 -99 -155 -189 -155z" />
    <glyph glyph-name="obreve" unicode="&#x14f;" horiz-adv-x="640" 
d="M18 219c0 181 160 308 321 308c155 0 267 -91 267 -231c0 -182 -161 -308 -321 -308c-155 0 -267 90 -267 231zM193 227c0 -60 40 -95 95 -95c69 0 143 59 143 153c0 61 -40 98 -94 98c-68 0 -144 -62 -144 -156zM383 560c-90 0 -164 43 -164 120c0 11 2 23 5 35h117
c-3 -9 -4 -17 -4 -24c0 -33 25 -45 47 -45c27 0 64 18 71 69h117c-19 -108 -99 -155 -189 -155z" />
    <glyph glyph-name="Ohungarumlaut" unicode="&#x150;" horiz-adv-x="820" 
d="M44 307c0 227 200 420 419 420c204 0 337 -131 337 -312c0 -231 -204 -427 -420 -427c-205 0 -336 134 -336 319zM224 317c0 -101 65 -169 158 -169c117 0 237 112 237 256c0 98 -65 163 -158 163c-120 0 -237 -110 -237 -250zM522 761l111 150h169l-148 -150h-132z
M314 761l106 150h145l-109 -150h-142z" />
    <glyph glyph-name="ohungarumlaut" unicode="&#x151;" horiz-adv-x="640" 
d="M18 219c0 181 160 308 321 308c155 0 267 -91 267 -231c0 -182 -161 -308 -321 -308c-155 0 -267 90 -267 231zM193 227c0 -60 40 -95 95 -95c69 0 143 59 143 153c0 61 -40 98 -94 98c-68 0 -144 -62 -144 -156zM395 565l111 150h169l-148 -150h-132zM187 565l106 150
h145l-109 -150h-142z" />
    <glyph glyph-name="OE" unicode="&#x152;" horiz-adv-x="989" 
d="M43 306c0 228 211 417 423 417c89 0 107 -8 165 -8h388l-29 -150h-273l-25 -130h218l-30 -150h-218l-26 -135h288l-29 -150h-388c-44 0 -66 -8 -134 -8c-192 0 -330 133 -330 314zM222 313c0 -97 67 -167 166 -167c25 0 49 2 74 7l79 409c-21 4 -43 7 -70 7
c-128 0 -249 -116 -249 -256z" />
    <glyph glyph-name="oe" unicode="&#x153;" horiz-adv-x="974" 
d="M18 219c0 181 160 308 321 308c80 0 146 -29 193 -80h2c51 51 117 80 190 80c146 0 220 -83 220 -202c0 -33 -8 -70 -19 -101h-325c0 -11 2 -21 4 -30c12 -43 50 -62 97 -62c54 0 108 25 153 52l44 -129c-42 -31 -128 -67 -208 -67c-91 0 -155 31 -199 83h-2
c-58 -54 -132 -83 -204 -83c-155 0 -267 90 -267 231zM623 323h152c1 6 1 12 1 18c0 32 -20 56 -55 56c-50 0 -82 -33 -98 -74zM193 227c0 -60 40 -95 95 -95c69 0 143 59 143 153c0 61 -40 98 -94 98c-68 0 -144 -62 -144 -156z" />
    <glyph glyph-name="Racute" unicode="&#x154;" horiz-adv-x="653" 
d="M18 0l139 715h266c39 0 75 -5 105 -17c67 -27 107 -84 107 -164c0 -85 -40 -199 -149 -242v-2s7 -12 18 -43l92 -247h-188l-80 241h-88l-47 -241h-175zM269 391h75c62 0 111 39 111 110c0 42 -28 64 -73 64h-79zM332 761l111 150h177l-148 -150h-140z" />
    <glyph glyph-name="racute" unicode="&#x155;" horiz-adv-x="428" 
d="M1 0l100 515h166l-17 -87c-3 -17 -8 -32 -8 -32h1c33 70 106 128 179 128c10 0 19 -1 30 -2l-33 -170c-10 1 -20 3 -34 3c-52 0 -150 -41 -177 -180l-34 -175h-173zM229 565l111 150h177l-148 -150h-140z" />
    <glyph glyph-name="Rcommaaccent" unicode="&#x156;" horiz-adv-x="653" 
d="M18 0l139 715h266c39 0 75 -5 105 -17c67 -27 107 -84 107 -164c0 -85 -40 -199 -149 -242v-2s7 -12 18 -43l92 -247h-188l-80 241h-88l-47 -241h-175zM269 391h75c62 0 111 39 111 110c0 42 -28 64 -73 64h-79zM216 -49h136v-18c0 -54 -15 -89 -53 -143h-123
c27 49 42 81 42 131c0 10 -1 19 -2 30z" />
    <glyph glyph-name="rcommaaccent" unicode="&#x157;" horiz-adv-x="428" 
d="M1 0l100 515h166l-17 -87c-3 -17 -8 -32 -8 -32h1c33 70 106 128 179 128c10 0 19 -1 30 -2l-33 -170c-10 1 -20 3 -34 3c-52 0 -150 -41 -177 -180l-34 -175h-173zM14 -49h136v-18c0 -54 -15 -89 -53 -143h-123c27 49 42 81 42 131c0 10 -1 19 -2 30z" />
    <glyph glyph-name="Rcaron" unicode="&#x158;" horiz-adv-x="653" 
d="M18 0l139 715h266c39 0 75 -5 105 -17c67 -27 107 -84 107 -164c0 -85 -40 -199 -149 -242v-2s7 -12 18 -43l92 -247h-188l-80 241h-88l-47 -241h-175zM269 391h75c62 0 111 39 111 110c0 42 -28 64 -73 64h-79zM328 761l-69 150h130l31 -82h2l63 82h140l-129 -150h-168z
" />
    <glyph glyph-name="rcaron" unicode="&#x159;" horiz-adv-x="428" 
d="M1 0l100 515h166l-17 -87c-3 -17 -8 -32 -8 -32h1c33 70 106 128 179 128c10 0 19 -1 30 -2l-33 -170c-10 1 -20 3 -34 3c-52 0 -150 -41 -177 -180l-34 -175h-173zM225 565l-69 150h130l31 -82h2l63 82h140l-129 -150h-168z" />
    <glyph glyph-name="Sacute" unicode="&#x15a;" horiz-adv-x="580" 
d="M-7 90l104 124c40 -38 107 -65 169 -65c34 0 86 15 86 63c0 75 -267 94 -267 292c0 141 133 223 266 223c89 0 180 -24 244 -83l-94 -129c-33 27 -95 51 -153 51c-35 0 -88 -18 -88 -62c0 -79 269 -91 269 -292c0 -123 -112 -224 -266 -224c-95 0 -207 32 -270 102z
M307 761l111 150h177l-148 -150h-140z" />
    <glyph glyph-name="sacute" unicode="&#x15b;" horiz-adv-x="468" 
d="M-17 58l82 116c31 -28 85 -46 132 -46c36 0 55 9 55 30c0 51 -204 38 -204 200c0 102 97 169 218 169c66 0 134 -20 189 -57l-68 -120c-28 22 -81 37 -126 37c-34 0 -53 -9 -53 -29c0 -49 205 -35 205 -204c0 -100 -85 -166 -209 -166c-78 0 -161 26 -221 70zM209 565
l111 150h177l-148 -150h-140z" />
    <glyph glyph-name="Scircumflex" unicode="&#x15c;" horiz-adv-x="580" 
d="M-7 90l104 124c40 -38 107 -65 169 -65c34 0 86 15 86 63c0 75 -267 94 -267 292c0 141 133 223 266 223c89 0 180 -24 244 -83l-94 -129c-33 27 -95 51 -153 51c-35 0 -88 -18 -88 -62c0 -79 269 -91 269 -292c0 -123 -112 -224 -266 -224c-95 0 -207 32 -270 102z
M194 761l129 150h168l69 -150h-130l-31 82h-2l-63 -82h-140z" />
    <glyph glyph-name="scircumflex" unicode="&#x15d;" horiz-adv-x="468" 
d="M-17 58l82 116c31 -28 85 -46 132 -46c36 0 55 9 55 30c0 51 -204 38 -204 200c0 102 97 169 218 169c66 0 134 -20 189 -57l-68 -120c-28 22 -81 37 -126 37c-34 0 -53 -9 -53 -29c0 -49 205 -35 205 -204c0 -100 -85 -166 -209 -166c-78 0 -161 26 -221 70zM96 565
l129 150h168l69 -150h-130l-31 82h-2l-63 -82h-140z" />
    <glyph glyph-name="Scedilla" unicode="&#x15e;" horiz-adv-x="581" 
d="M157 -82l38 76c-76 11 -153 42 -201 96l104 124c40 -38 107 -65 169 -65c34 0 86 15 86 63c0 75 -267 94 -267 292c0 141 133 223 266 223c89 0 180 -24 244 -83l-94 -129c-33 27 -95 51 -153 51c-35 0 -88 -18 -88 -62c0 -79 269 -91 269 -292
c0 -121 -108 -220 -257 -224l-10 -24c27 -5 62 -24 62 -66c0 -83 -76 -108 -132 -108c-25 0 -51 3 -75 9l16 85c8 -4 33 -8 44 -8c23 0 43 8 43 26c0 14 -18 18 -37 18c-8 0 -17 -1 -27 -2z" />
    <glyph glyph-name="scedilla" unicode="&#x15f;" horiz-adv-x="469" 
d="M87 -82l40 78c-53 11 -104 32 -144 62l82 116c31 -28 85 -46 132 -46c36 0 55 9 55 30c0 51 -204 38 -204 200c0 102 97 169 218 169c66 0 134 -20 189 -57l-68 -120c-28 22 -81 37 -126 37c-34 0 -53 -9 -53 -29c0 -49 205 -35 205 -204c0 -100 -85 -166 -209 -166h-1
l-10 -24c27 -5 62 -24 62 -66c0 -83 -76 -108 -132 -108c-25 0 -51 3 -75 9l16 85c8 -4 33 -8 44 -8c23 0 43 8 43 26c0 14 -18 18 -37 18c-8 0 -17 -1 -27 -2z" />
    <glyph glyph-name="Scaron" unicode="&#x160;" horiz-adv-x="580" 
d="M-7 90l104 124c40 -38 107 -65 169 -65c34 0 86 15 86 63c0 75 -267 94 -267 292c0 141 133 223 266 223c89 0 180 -24 244 -83l-94 -129c-33 27 -95 51 -153 51c-35 0 -88 -18 -88 -62c0 -79 269 -91 269 -292c0 -123 -112 -224 -266 -224c-95 0 -207 32 -270 102z
M303 761l-69 150h130l31 -82h2l63 82h140l-129 -150h-168z" />
    <glyph glyph-name="scaron" unicode="&#x161;" horiz-adv-x="468" 
d="M-17 58l82 116c31 -28 85 -46 132 -46c36 0 55 9 55 30c0 51 -204 38 -204 200c0 102 97 169 218 169c66 0 134 -20 189 -57l-68 -120c-28 22 -81 37 -126 37c-34 0 -53 -9 -53 -29c0 -49 205 -35 205 -204c0 -100 -85 -166 -209 -166c-78 0 -161 26 -221 70zM205 565
l-69 150h130l31 -82h2l63 82h140l-129 -150h-168z" />
    <glyph glyph-name="Tcommaaccent" unicode="&#x162;" horiz-adv-x="630" 
d="M169 0l110 565h-216l29 150h607l-29 -150h-216l-110 -565h-51l-15 -36c27 -5 62 -24 62 -66c0 -83 -76 -108 -132 -108c-25 0 -51 3 -75 9l16 85c8 -4 33 -8 44 -8c23 0 43 8 43 26c0 14 -18 18 -37 18c-8 0 -17 -1 -27 -2l42 82h-45z" />
    <glyph glyph-name="tcommaaccent" unicode="&#x163;" horiz-adv-x="407" 
d="M79 -82l55 107c-45 25 -74 69 -74 135c0 12 2 26 5 40l34 171h-65l26 135h71l29 148h166l-29 -148h109l-26 -135h-109l-28 -147c-2 -9 -3 -22 -3 -27c0 -42 38 -50 76 -50c7 0 14 0 27 1l-29 -150c-14 -1 -28 -3 -46 -3c-24 0 -46 2 -67 6l-16 -37c27 -5 62 -24 62 -66
c0 -83 -76 -108 -132 -108c-25 0 -51 3 -75 9l16 85c8 -4 33 -8 44 -8c23 0 43 8 43 26c0 14 -18 18 -37 18c-8 0 -17 -1 -27 -2z" />
    <glyph glyph-name="Tcaron" unicode="&#x164;" horiz-adv-x="630" 
d="M169 0l110 565h-216l29 150h607l-29 -150h-216l-110 -565h-175zM324 761l-69 150h130l31 -82h2l63 82h140l-129 -150h-168z" />
    <glyph glyph-name="tcaron" unicode="&#x165;" horiz-adv-x="407" 
d="M60 160c0 12 2 26 5 40l34 171h-65l26 135h71l29 148h166l-29 -148h109l-26 -135h-109l-28 -147c-2 -9 -3 -22 -3 -27c0 -42 38 -50 76 -50c7 0 14 0 27 1l-29 -150c-14 -1 -28 -3 -46 -3c-113 0 -208 46 -208 165zM381 715h136v-17c0 -50 -15 -83 -53 -134h-123
c27 46 42 76 42 123c0 9 -1 18 -2 28z" />
    <glyph glyph-name="Tbar" unicode="&#x166;" horiz-adv-x="641" 
d="M174 0l53 272h-142l25 127h141l33 166h-216l29 150h607l-29 -150h-216l-33 -166h149l-25 -127h-148l-53 -272h-175z" />
    <glyph glyph-name="tbar" unicode="&#x167;" horiz-adv-x="409" 
d="M62 160c0 12 2 26 5 40l2 9h-66l21 107h66l11 55h-65l26 135h71l29 148h166l-29 -148h109l-26 -135h-109l-11 -55h109l-21 -107h-108c-1 -6 -1 -12 -1 -17c4 -39 43 -45 77 -45c15 0 27 1 27 1l-29 -150s-26 -3 -46 -3c-113 0 -208 46 -208 165z" />
    <glyph glyph-name="Utilde" unicode="&#x168;" horiz-adv-x="734" 
d="M56 210c0 19 2 38 6 58l87 447h175l-88 -452c-2 -10 -3 -19 -3 -28c0 -57 40 -87 105 -87c77 0 131 40 146 115l88 452h175l-89 -457c-32 -161 -154 -270 -326 -270c-149 0 -276 77 -276 222zM264 761c20 98 69 153 149 153c61 0 74 -60 108 -60c22 0 37 19 44 57h113
c-19 -98 -69 -153 -148 -153c-58 0 -76 60 -109 60c-22 0 -36 -19 -44 -57h-113z" />
    <glyph glyph-name="utilde" unicode="&#x169;" horiz-adv-x="620" 
d="M25 134c0 17 3 36 7 57l63 324h173l-58 -296c-2 -12 -3 -23 -3 -30c0 -31 15 -44 46 -44c66 0 120 67 134 142l44 228h173l-100 -515h-167l5 26c5 26 13 51 13 51h-2c-29 -46 -95 -89 -166 -89c-89 0 -162 39 -162 146zM166 565c20 98 69 153 149 153
c61 0 74 -60 108 -60c22 0 37 19 44 57h113c-19 -98 -69 -153 -148 -153c-58 0 -76 60 -109 60c-22 0 -36 -19 -44 -57h-113z" />
    <glyph glyph-name="Umacron" unicode="&#x16a;" horiz-adv-x="734" 
d="M56 210c0 19 2 38 6 58l87 447h175l-88 -452c-2 -10 -3 -19 -3 -28c0 -57 40 -87 105 -87c77 0 131 40 146 115l88 452h175l-89 -457c-32 -161 -154 -270 -326 -270c-149 0 -276 77 -276 222zM324 782l22 112h275l-22 -112h-275z" />
    <glyph glyph-name="umacron" unicode="&#x16b;" horiz-adv-x="620" 
d="M25 134c0 17 3 36 7 57l63 324h173l-58 -296c-2 -12 -3 -23 -3 -30c0 -31 15 -44 46 -44c66 0 120 67 134 142l44 228h173l-100 -515h-167l5 26c5 26 13 51 13 51h-2c-29 -46 -95 -89 -166 -89c-89 0 -162 39 -162 146zM226 586l22 112h275l-22 -112h-275z" />
    <glyph glyph-name="Ubreve" unicode="&#x16c;" horiz-adv-x="734" 
d="M56 210c0 19 2 38 6 58l87 447h175l-88 -452c-2 -10 -3 -19 -3 -28c0 -57 40 -87 105 -87c77 0 131 40 146 115l88 452h175l-89 -457c-32 -161 -154 -270 -326 -270c-149 0 -276 77 -276 222zM468 756c-90 0 -164 43 -164 120c0 11 2 23 5 35h117c-3 -9 -4 -17 -4 -24
c0 -33 25 -45 47 -45c27 0 64 18 71 69h117c-19 -108 -99 -155 -189 -155z" />
    <glyph glyph-name="ubreve" unicode="&#x16d;" horiz-adv-x="620" 
d="M25 134c0 17 3 36 7 57l63 324h173l-58 -296c-2 -12 -3 -23 -3 -30c0 -31 15 -44 46 -44c66 0 120 67 134 142l44 228h173l-100 -515h-167l5 26c5 26 13 51 13 51h-2c-29 -46 -95 -89 -166 -89c-89 0 -162 39 -162 146zM370 560c-90 0 -164 43 -164 120c0 11 2 23 5 35
h117c-3 -9 -4 -17 -4 -24c0 -33 25 -45 47 -45c27 0 64 18 71 69h117c-19 -108 -99 -155 -189 -155z" />
    <glyph glyph-name="Uring" unicode="&#x16e;" horiz-adv-x="734" 
d="M56 210c0 19 2 38 6 58l87 447h175l-88 -452c-2 -10 -3 -19 -3 -28c0 -57 40 -87 105 -87c77 0 131 40 146 115l88 452h175l-89 -457c-32 -161 -154 -270 -326 -270c-149 0 -276 77 -276 222zM459 747c-51 0 -99 23 -99 73c0 68 67 98 122 98c51 0 100 -24 100 -76
c0 -66 -70 -95 -123 -95zM464 797c23 0 43 18 43 43c0 17 -11 28 -29 28c-22 0 -42 -18 -42 -45c0 -16 10 -26 28 -26z" />
    <glyph glyph-name="uring" unicode="&#x16f;" horiz-adv-x="620" 
d="M25 134c0 17 3 36 7 57l63 324h173l-58 -296c-2 -12 -3 -23 -3 -30c0 -31 15 -44 46 -44c66 0 120 67 134 142l44 228h173l-100 -515h-167l5 26c5 26 13 51 13 51h-2c-29 -46 -95 -89 -166 -89c-89 0 -162 39 -162 146zM361 551c-51 0 -99 23 -99 73c0 68 67 98 122 98
c51 0 100 -24 100 -76c0 -66 -70 -95 -123 -95zM366 601c23 0 43 18 43 43c0 17 -11 28 -29 28c-22 0 -42 -18 -42 -45c0 -16 10 -26 28 -26z" />
    <glyph glyph-name="Uhungarumlaut" unicode="&#x170;" horiz-adv-x="734" 
d="M56 210c0 19 2 38 6 58l87 447h175l-88 -452c-2 -10 -3 -19 -3 -28c0 -57 40 -87 105 -87c77 0 131 40 146 115l88 452h175l-89 -457c-32 -161 -154 -270 -326 -270c-149 0 -276 77 -276 222zM480 761l111 150h169l-148 -150h-132zM272 761l106 150h145l-109 -150h-142z
" />
    <glyph glyph-name="uhungarumlaut" unicode="&#x171;" horiz-adv-x="620" 
d="M25 134c0 17 3 36 7 57l63 324h173l-58 -296c-2 -12 -3 -23 -3 -30c0 -31 15 -44 46 -44c66 0 120 67 134 142l44 228h173l-100 -515h-167l5 26c5 26 13 51 13 51h-2c-29 -46 -95 -89 -166 -89c-89 0 -162 39 -162 146zM382 565l111 150h169l-148 -150h-132zM174 565
l106 150h145l-109 -150h-142z" />
    <glyph glyph-name="Uogonek" unicode="&#x172;" horiz-adv-x="733" 
d="M55 210c0 19 2 38 6 58l88 447h174l-88 -452c-2 -10 -3 -19 -3 -28c0 -57 40 -87 105 -87c77 0 130 40 145 115l89 452h175l-90 -457c-27 -136 -108 -197 -174 -237c-51 -31 -93 -59 -93 -85c0 -19 38 -22 38 -22l-66 -124s-115 11 -115 84c0 45 31 82 71 112v2
c-143 5 -262 81 -262 222z" />
    <glyph glyph-name="uogonek" unicode="&#x173;" horiz-adv-x="620" 
d="M25 134c0 17 3 36 7 57l63 324h173l-58 -296c-2 -12 -3 -23 -3 -30c0 -31 15 -44 46 -44c66 0 120 67 134 142l44 228h173l-100 -515c-21 -17 -54 -47 -54 -64c0 -19 33 -22 33 -22l-66 -124s-115 11 -115 84c0 51 42 95 87 126h-52l5 26c5 26 13 51 13 51h-2
c-29 -46 -95 -89 -166 -89c-89 0 -162 39 -162 146z" />
    <glyph glyph-name="Wcircumflex" unicode="&#x174;" horiz-adv-x="995" 
d="M134 0l-46 715h182l11 -447c1 -44 -2 -75 -2 -75h2s7 31 26 75l196 447h145l21 -447c2 -34 -2 -75 -2 -75h2s7 35 23 75l179 447h191l-314 -715h-203l-19 361c-1 28 -1 56 2 84h-2s-11 -38 -31 -84l-160 -361h-201zM396 761l129 150h168l69 -150h-130l-31 82h-2l-63 -82
h-140z" />
    <glyph glyph-name="wcircumflex" unicode="&#x175;" horiz-adv-x="825" 
d="M95 0l-44 515h172l4 -304c0 -28 -4 -54 -4 -54h2c1 0 7 26 19 54l131 304h145l11 -304c1 -18 -2 -54 -2 -54h2s5 26 17 54l123 304h184l-245 -515h-192l-11 238c-1 28 0 55 0 55h-2s-8 -27 -20 -55l-105 -238h-185zM269 565l129 150h168l69 -150h-130l-31 82h-2l-63 -82
h-140z" />
    <glyph glyph-name="Ycircumflex" unicode="&#x176;" horiz-adv-x="625" 
d="M162 0l57 293l-149 422h189l48 -172c13 -49 23 -103 23 -103h2s31 53 63 103l109 172h210l-322 -429l-55 -286h-175zM208 761l129 150h168l69 -150h-130l-31 82h-2l-63 -82h-140z" />
    <glyph glyph-name="ycircumflex" unicode="&#x177;" horiz-adv-x="567" 
d="M-4 -50c13 -10 34 -16 51 -16c30 0 66 8 93 52l15 24l-121 505h180l42 -255c5 -28 5 -76 5 -76h2s18 45 31 73l115 258h194l-322 -570c-64 -113 -153 -155 -225 -155c-46 0 -95 14 -135 40zM147 565l129 150h168l69 -150h-130l-31 82h-2l-63 -82h-140z" />
    <glyph glyph-name="Ydieresis" unicode="&#x178;" horiz-adv-x="625" 
d="M162 0l57 293l-149 422h189l48 -172c13 -49 23 -103 23 -103h2s31 53 63 103l109 172h210l-322 -429l-55 -286h-175zM440 771l28 140h126l-28 -140h-126zM231 771l28 140h126l-28 -140h-126z" />
    <glyph glyph-name="Zacute" unicode="&#x179;" horiz-adv-x="634" 
d="M-21 0l22 110l340 391c40 45 68 65 68 65v2s-22 -3 -54 -3h-253l28 150h540l-22 -108l-343 -393c-39 -45 -68 -65 -68 -65v-2s23 3 55 3h273l-29 -150h-557zM342 761l111 150h177l-148 -150h-140z" />
    <glyph glyph-name="zacute" unicode="&#x17a;" horiz-adv-x="544" 
d="M-22 0l16 86l229 237c32 32 53 47 53 47v2s-12 -2 -44 -2h-176l29 145h459l-16 -87l-229 -237c-31 -31 -56 -47 -56 -47v-2s14 3 47 3h187l-29 -145h-470zM243 565l111 150h177l-148 -150h-140z" />
    <glyph glyph-name="Zdotaccent" unicode="&#x17b;" horiz-adv-x="634" 
d="M-21 0l22 110l340 391c40 45 68 65 68 65v2s-22 -3 -54 -3h-253l28 150h540l-22 -108l-343 -393c-39 -45 -68 -65 -68 -65v-2s23 3 55 3h273l-29 -150h-557zM350 779l26 132h143l-26 -132h-143z" />
    <glyph glyph-name="zdotaccent" unicode="&#x17c;" horiz-adv-x="544" 
d="M-22 0l16 86l229 237c32 32 53 47 53 47v2s-12 -2 -44 -2h-176l29 145h459l-16 -87l-229 -237c-31 -31 -56 -47 -56 -47v-2s14 3 47 3h187l-29 -145h-470zM251 583l26 132h143l-26 -132h-143z" />
    <glyph glyph-name="Zcaron" unicode="&#x17d;" horiz-adv-x="634" 
d="M-21 0l22 110l340 391c40 45 68 65 68 65v2s-22 -3 -54 -3h-253l28 150h540l-22 -108l-343 -393c-39 -45 -68 -65 -68 -65v-2s23 3 55 3h273l-29 -150h-557zM338 761l-69 150h130l31 -82h2l63 82h140l-129 -150h-168z" />
    <glyph glyph-name="zcaron" unicode="&#x17e;" horiz-adv-x="544" 
d="M-22 0l16 86l229 237c32 32 53 47 53 47v2s-12 -2 -44 -2h-176l29 145h459l-16 -87l-229 -237c-31 -31 -56 -47 -56 -47v-2s14 3 47 3h187l-29 -145h-470zM239 565l-69 150h130l31 -82h2l63 82h140l-129 -150h-168z" />
    <glyph glyph-name="longs" unicode="&#x17f;" horiz-adv-x="346" 
d="M37 0l72 371h-63l27 135h63l4 22c30 169 183 191 261 191c37 0 63 -3 63 -3l-30 -146s-10 2 -26 2c-34 0 -89 -6 -97 -50l-101 -522h-173z" />
    <glyph glyph-name="florin" unicode="&#x192;" horiz-adv-x="600" 
d="M-23 27c20 -3 43 -6 67 -6c32 0 90 9 105 64l62 225h-62l27 135h74l29 100c46 161 189 182 271 182c34 0 68 -5 102 -9l-29 -144c-23 3 -52 6 -74 6c-34 0 -88 -9 -103 -64l-20 -71h95l-27 -135h-107l-70 -254c-44 -161 -195 -182 -274 -182c-32 0 -63 5 -95 10z" />
    <glyph glyph-name="Scommaaccent" unicode="&#x218;" horiz-adv-x="580" 
d="M-7 90l104 124c40 -38 107 -65 169 -65c34 0 86 15 86 63c0 75 -267 94 -267 292c0 141 133 223 266 223c89 0 180 -24 244 -83l-94 -129c-33 27 -95 51 -153 51c-35 0 -88 -18 -88 -62c0 -79 269 -91 269 -292c0 -123 -112 -224 -266 -224c-95 0 -207 32 -270 102z
M147 -49h136v-18c0 -54 -15 -89 -53 -143h-123c27 49 42 81 42 131c0 10 -1 19 -2 30z" />
    <glyph glyph-name="scommaaccent" unicode="&#x219;" horiz-adv-x="468" 
d="M-17 58l82 116c31 -28 85 -46 132 -46c36 0 55 9 55 30c0 51 -204 38 -204 200c0 102 97 169 218 169c66 0 134 -20 189 -57l-68 -120c-28 22 -81 37 -126 37c-34 0 -53 -9 -53 -29c0 -49 205 -35 205 -204c0 -100 -85 -166 -209 -166c-78 0 -161 26 -221 70zM92 -49h136
v-18c0 -54 -15 -89 -53 -143h-123c27 49 42 81 42 131c0 10 -1 19 -2 30z" />
    <glyph glyph-name="uni021A" unicode="&#x21a;" horiz-adv-x="630" 
d="M169 0l110 565h-216l29 150h607l-29 -150h-216l-110 -565h-175zM175 -49h136v-18c0 -54 -15 -89 -53 -143h-123c27 49 42 81 42 131c0 10 -1 19 -2 30z" />
    <glyph glyph-name="uni021B" unicode="&#x21b;" horiz-adv-x="407" 
d="M60 160c0 12 2 26 5 40l34 171h-65l26 135h71l29 148h166l-29 -148h109l-26 -135h-109l-28 -147c-2 -9 -3 -22 -3 -27c0 -42 38 -50 76 -50c7 0 14 0 27 1l-29 -150c-14 -1 -28 -3 -46 -3c-113 0 -208 46 -208 165zM96 -49h136v-18c0 -54 -15 -89 -53 -143h-123
c27 49 42 81 42 131c0 10 -1 19 -2 30z" />
    <glyph glyph-name="circumflex" unicode="&#x2c6;" horiz-adv-x="486" 
d="M-14 761l129 150h168l69 -150h-130l-31 82h-2l-63 -82h-140z" />
    <glyph glyph-name="caron" unicode="&#x2c7;" horiz-adv-x="486" 
d="M95 761l-69 150h130l31 -82h2l63 82h140l-129 -150h-168z" />
    <glyph glyph-name="breve" unicode="&#x2d8;" horiz-adv-x="484" 
d="M184 756c-90 0 -164 43 -164 120c0 11 2 23 5 35h117c-3 -9 -4 -17 -4 -24c0 -33 25 -45 47 -45c27 0 64 18 71 69h117c-19 -108 -99 -155 -189 -155z" />
    <glyph glyph-name="dotaccent" unicode="&#x2d9;" horiz-adv-x="485" 
d="M106 779l26 132h143l-26 -132h-143z" />
    <glyph glyph-name="ring" unicode="&#x2da;" horiz-adv-x="485" 
d="M175 747c-51 0 -99 23 -99 73c0 68 67 98 122 98c51 0 100 -24 100 -76c0 -66 -70 -95 -123 -95zM180 797c23 0 43 18 43 43c0 17 -11 28 -29 28c-22 0 -42 -18 -42 -45c0 -16 10 -26 28 -26z" />
    <glyph glyph-name="ogonek" unicode="&#x2db;" horiz-adv-x="486" 
d="M82 -126c0 69 78 125 133 154l87 -14c-1 0 -72 -53 -72 -78c0 -19 33 -22 33 -22l-66 -124s-115 11 -115 84z" />
    <glyph glyph-name="tilde" unicode="&#x2dc;" horiz-adv-x="485" 
d="M-23 761c20 98 69 153 149 153c61 0 74 -60 108 -60c22 0 37 19 44 57h113c-19 -98 -69 -153 -148 -153c-58 0 -76 60 -109 60c-22 0 -36 -19 -44 -57h-113z" />
    <glyph glyph-name="hungarumlaut" unicode="&#x2dd;" horiz-adv-x="485" 
d="M153 761l111 150h169l-148 -150h-132zM-55 761l106 150h145l-109 -150h-142z" />
    <glyph glyph-name="uni1E9E" unicode="&#x1e9e;" horiz-adv-x="702" 
d="M13 0l96 495c25 132 122 220 250 220h356l-23 -120l-118 -149c-12 -15 -26 -29 -26 -29v-2c60 -20 99 -94 99 -166c0 -100 -63 -192 -156 -230c-31 -13 -65 -19 -149 -19h-85l29 150h69c49 0 63 5 74 12c25 16 38 46 38 72c0 30 -12 50 -68 50h-67l24 120l68 97
c34 49 55 65 55 65v2s-6 -3 -42 -3h-76c-37 0 -70 -35 -79 -81l-94 -484h-175z" />
    <glyph glyph-name="endash" unicode="&#x2013;" horiz-adv-x="720" 
d="M47 222l25 130h596l-25 -130h-596z" />
    <glyph glyph-name="emdash" unicode="&#x2014;" horiz-adv-x="914" 
d="M44 222l25 130h796l-25 -130h-796z" />
    <glyph glyph-name="quoteleft" unicode="&#x2018;" horiz-adv-x="289" 
d="M75 475l138 255h123l-103 -255h-158z" />
    <glyph glyph-name="quoteright" unicode="&#x2019;" horiz-adv-x="282" 
d="M81 475l103 255h158l-138 -255h-123z" />
    <glyph glyph-name="quotesinglbase" unicode="&#x201a;" horiz-adv-x="290" 
d="M57 166h158l-138 -255h-123z" />
    <glyph glyph-name="quotedblleft" unicode="&#x201c;" horiz-adv-x="487" 
d="M273 475l138 255h123l-103 -255h-158zM75 475l138 255h123l-103 -255h-158z" />
    <glyph glyph-name="quotedblright" unicode="&#x201d;" horiz-adv-x="480" 
d="M279 475l103 255h158l-138 -255h-123zM81 475l103 255h158l-138 -255h-123z" />
    <glyph glyph-name="quotedblbase" unicode="&#x201e;" horiz-adv-x="488" 
d="M152 -89l103 255h158l-138 -255h-123zM-46 -89l103 255h158l-138 -255h-123z" />
    <glyph glyph-name="dagger" unicode="&#x2020;" horiz-adv-x="496" 
d="M97 -50l85 435h-130l25 130h130l39 200h165l-39 -200h131l-25 -130h-131l-85 -435h-165z" />
    <glyph glyph-name="daggerdbl" unicode="&#x2021;" horiz-adv-x="522" 
d="M110 -50l39 200h-129l24 130h130l21 105h-130l25 130h130l39 200h165l-39 -200h131l-25 -130h-131l-21 -105h131l-25 -130h-131l-39 -200h-165z" />
    <glyph glyph-name="bullet" unicode="&#x2022;" horiz-adv-x="527" 
d="M262 105c-103 0 -186 83 -186 186s83 186 186 186s186 -83 186 -186s-83 -186 -186 -186z" />
    <glyph glyph-name="ellipsis" unicode="&#x2026;" horiz-adv-x="926" 
d="M651 0l31 164h158l-31 -164h-158zM327 0l31 164h158l-31 -164h-158zM3 0l31 164h158l-31 -164h-158z" />
    <glyph glyph-name="perthousand" unicode="&#x2030;" horiz-adv-x="1286" 
d="M252 382c-98 0 -165 65 -165 154c0 99 98 191 202 191c98 0 166 -69 166 -158c0 -100 -102 -187 -203 -187zM37 0l674 715h159l-674 -715h-159zM265 502c31 0 62 27 62 61c0 25 -19 44 -50 44s-62 -30 -62 -62c0 -25 19 -43 50 -43zM859 142c0 99 98 191 202 191
c98 0 166 -69 166 -158c0 -100 -102 -187 -203 -187c-98 0 -165 65 -165 154zM455 142c0 99 98 191 202 191c98 0 166 -69 166 -158c0 -100 -102 -187 -203 -187c-98 0 -165 65 -165 154zM987 151c0 -25 19 -43 50 -43s62 27 62 61c0 25 -19 44 -50 44s-62 -30 -62 -62z
M583 151c0 -25 19 -43 50 -43s62 27 62 61c0 25 -19 44 -50 44s-62 -30 -62 -62z" />
    <glyph glyph-name="guilsinglleft" unicode="&#x2039;" horiz-adv-x="390" 
d="M158 77l-130 205l191 206h164l-202 -213l130 -198h-153z" />
    <glyph glyph-name="guilsinglright" unicode="&#x203a;" horiz-adv-x="388" 
d="M-1 77l202 213l-130 198h153l130 -205l-191 -206h-164z" />
    <glyph glyph-name="fraction" unicode="&#x2044;" horiz-adv-x="196" 
d="M-65 0h-126l474 715h126z" />
    <glyph glyph-name="Euro" unicode="&#x20ac;" horiz-adv-x="600" 
d="M14 237l19 96h55c1 16 3 32 6 48h-52l19 96h63c66 142 200 250 369 250c49 0 99 -7 146 -22l-70 -150c-24 5 -49 10 -77 10c-69 0 -131 -33 -172 -88h217l-39 -96h-221c-3 -16 -6 -32 -7 -48h209l-39 -96h-154c22 -50 66 -84 134 -84c33 0 66 6 98 15v-163
c-29 -10 -72 -17 -108 -17c-168 0 -285 99 -315 249h-81z" />
    <glyph glyph-name="trademark" unicode="&#x2122;" horiz-adv-x="1089" 
d="M557 268l35 447h118l73 -175c6 -15 13 -44 13 -44h2s7 29 13 44l73 175h118l33 -447h-127l-10 174c-1 15 1 32 1 32h-2l-51 -125h-98l-51 125h-2s2 -17 1 -32l-12 -174h-127zM272 268v338h-142v109h408v-109h-140v-338h-126z" />
    <glyph glyph-name="minus" unicode="&#x2212;" horiz-adv-x="600" 
d="M24 222v130h546v-130h-546z" />
    <glyph glyph-name="infinity" unicode="&#x221e;" horiz-adv-x="519" 
d="M270 143c-113 0 -206 93 -206 206c0 114 93 205 206 205c114 0 205 -91 205 -205c0 -113 -91 -206 -205 -206z" />
    <glyph glyph-name="approxequal" unicode="&#x2248;" horiz-adv-x="600" 
d="M96 322l-63 99c41 41 100 81 165 81c94 0 127 -70 198 -70c38 0 77 25 102 54l63 -99c-40 -40 -99 -81 -165 -81c-94 0 -127 70 -198 70c-39 0 -76 -26 -102 -54zM96 93l-63 99c41 41 100 81 165 81c94 0 127 -70 198 -70c38 0 77 25 102 54l63 -99
c-40 -40 -99 -81 -165 -81c-94 0 -127 70 -198 70c-39 0 -76 -26 -102 -54z" />
    <glyph glyph-name="notequal" unicode="&#x2260;" horiz-adv-x="600" 
d="M92 47l38 60h-88v130h171l64 100h-235v130h319l69 108l76 -49l-38 -59h80v-130h-163l-64 -100h227v-130h-310l-68 -107z" />
    <glyph glyph-name="lessequal" unicode="&#x2264;" horiz-adv-x="600" 
d="M5 234v107l504 223v-145l-330 -131v-2l330 -130v-145zM8 -70h501v-130h-501v130z" />
    <glyph glyph-name="greaterequal" unicode="&#x2265;" horiz-adv-x="600" 
d="M28 11v145l330 130v2l-330 131v145l504 -223v-107zM29 -70h501v-130h-501v130z" />
    <glyph glyph-name="commaaccent" unicode="&#xf6c3;" horiz-adv-x="335" 
d="M53 -49h136v-18c0 -54 -15 -89 -53 -143h-123c27 49 42 81 42 131c0 10 -1 19 -2 30z" />
    <glyph glyph-name="apple" unicode="&#xf8ff;" horiz-adv-x="1130" 
d="M167 -5v152l-126 72v278l126 71v151l265 142l134 -71l132 71l265 -142v-151l124 -71v-278l-124 -72v-152l-265 -141l-132 71l-134 -71zM207 30l238 -126l121 66l118 -66l238 126v139l114 64v249l-114 66v136l-238 126l-118 -64l-121 64l-238 -126v-136l-114 -66v-249
l114 -64v-139zM241 64v121l-99 60v225l99 58v123l215 114l110 -59l107 59l214 -114v-123l100 -58v-225l-100 -60v-121l-214 -114l-107 58l-110 -58zM446 91h43v228h228v40h-228v192h199c23 0 29 -8 29 -29v-42h42v54c0 39 -15 57 -58 57h-320v-40h65v-460z" />
    <glyph glyph-name="zero.tnum" horiz-adv-x="600" 
d="M29 238c0 182 80 489 329 489c175 0 237 -102 237 -248c0 -181 -82 -491 -330 -491c-175 0 -236 103 -236 250zM210 246c0 -59 17 -98 61 -98c96 0 142 212 142 321c0 59 -17 98 -61 98c-97 0 -142 -214 -142 -321z" />
    <glyph glyph-name="one.tnum" horiz-adv-x="600" 
d="M26 0l27 150h152l57 285c5 27 12 55 12 55h-2s-13 -20 -36 -38l-50 -39l-87 118l236 184h151l-110 -565h152l-29 -150h-473z" />
    <glyph glyph-name="two.tnum" horiz-adv-x="600" 
d="M1 0c0 202 131 293 247 363c88 53 156 85 156 141c0 36 -27 58 -67 58c-53 0 -95 -34 -125 -76l-123 96c47 57 123 145 266 145c117 0 232 -70 232 -203c0 -143 -134 -221 -239 -281c-66 -38 -110 -64 -119 -93h295l-29 -150h-494z" />
    <glyph glyph-name="three.tnum" horiz-adv-x="600" 
d="M-7 82l100 124c32 -35 90 -53 142 -53c82 0 123 40 123 85c0 46 -44 65 -114 65h-59l-20 85l107 113c40 42 76 67 76 67v2s-24 -5 -69 -5h-163l29 150h451l-21 -109l-176 -177c62 -16 135 -74 135 -183c0 -125 -96 -258 -295 -258c-91 0 -183 29 -246 94z" />
    <glyph glyph-name="four.tnum" horiz-adv-x="600" 
d="M-15 173l19 106l346 436h229l-77 -397h85l-28 -145h-85l-34 -173h-173l34 173h-316zM199 318h130l31 160c8 39 21 80 21 80h-2s-25 -43 -49 -74l-131 -164v-2z" />
    <glyph glyph-name="five.tnum" horiz-adv-x="600" 
d="M4 82l102 125c32 -30 85 -54 134 -54c69 0 127 43 127 101c0 50 -43 76 -101 76c-55 0 -100 -24 -100 -24l-92 36l102 373h405l-29 -150h-248l-17 -64c-3 -10 -9 -28 -9 -28h2s25 5 54 5c121 0 214 -89 214 -215c0 -151 -134 -275 -310 -275c-84 0 -175 31 -234 94z" />
    <glyph glyph-name="six.tnum" horiz-adv-x="600" 
d="M35 260c0 207 156 467 407 467c56 0 120 -8 170 -33l-71 -142c-30 9 -62 15 -97 15c-84 0 -142 -52 -177 -118h2c19 16 61 25 88 25c138 0 203 -97 203 -215c0 -128 -102 -271 -264 -271c-139 0 -261 89 -261 272zM213 258c0 -67 42 -110 86 -110c54 0 89 53 89 104
c0 42 -24 81 -89 81c-57 0 -86 -34 -86 -75z" />
    <glyph glyph-name="seven.tnum" horiz-adv-x="600" 
d="M12 0l349 501c34 50 59 65 59 65v2s-10 -3 -46 -3h-271l29 150h513l-24 -122l-415 -593h-194z" />
    <glyph glyph-name="eight.tnum" horiz-adv-x="600" 
d="M12 196c0 97 104 174 136 195c-28 30 -48 67 -48 116c0 106 91 220 259 220c133 0 231 -69 231 -190c0 -86 -83 -169 -105 -189c37 -30 64 -69 64 -126c0 -112 -106 -234 -286 -234c-169 0 -251 94 -251 208zM363 416c18 19 51 60 51 104c0 33 -23 53 -64 53
c-49 0 -76 -31 -76 -67c0 -41 40 -65 89 -90zM196 209c0 -38 29 -67 72 -67c51 0 101 29 101 80c0 38 -50 63 -108 93c-26 -21 -65 -60 -65 -106z" />
    <glyph glyph-name="nine.tnum" horiz-adv-x="600" 
d="M10 21l71 142c29 -10 63 -15 97 -15c84 0 142 52 177 118h-2s-40 -25 -88 -25c-138 0 -203 97 -203 215c0 128 105 271 267 271c139 0 258 -89 258 -272c0 -207 -156 -467 -407 -467c-56 0 -120 8 -170 33zM323 382c57 0 86 34 86 75c0 67 -42 110 -86 110
c-54 0 -89 -53 -89 -104c0 -42 24 -81 89 -81z" />
    <glyph glyph-name="hyphen.case" horiz-adv-x="434" 
d="M54 272l29 150h314l-29 -150h-314z" />
    <glyph glyph-name="parenleft.case" horiz-adv-x="334" 
d="M100 -65c-35 80 -59 173 -59 276c0 211 60 399 214 569h147c-142 -175 -211 -372 -211 -573c0 -93 14 -184 46 -272h-137z" />
    <glyph glyph-name="parenright.case" horiz-adv-x="334" 
d="M-45 -65c142 175 211 372 211 573c0 93 -14 184 -46 272h137c35 -80 59 -173 59 -276c0 -211 -60 -399 -214 -569h-147z" />
    <glyph glyph-name="bracketleft.case" horiz-adv-x="353" 
d="M-1 -65l165 845h246l-24 -120h-102l-117 -605h102l-24 -120h-246z" />
    <glyph glyph-name="bracketright.case" horiz-adv-x="353" 
d="M-10 55h102l117 605h-102l24 120h246l-165 -845h-245z" />
    <glyph glyph-name="braceleft.case" horiz-adv-x="396" 
d="M76 68c0 12 1 25 4 39l16 83c2 10 3 18 3 26c0 40 -26 68 -69 70l29 150c53 2 92 40 104 99l20 103c26 132 143 147 228 147c14 0 29 -1 42 -2l-24 -124c-3 1 -14 2 -25 2c-29 0 -74 -8 -83 -54l-26 -132c-12 -59 -59 -98 -109 -114v-2c40 -14 63 -58 63 -107
c0 -10 -1 -20 -3 -32l-22 -112c-1 -4 -1 -8 -1 -12c0 -36 38 -42 64 -42c8 0 16 1 25 2l-24 -124c-9 -1 -22 -2 -44 -2c-48 0 -168 18 -168 138z" />
    <glyph glyph-name="braceright.case" horiz-adv-x="395" 
d="M14 54c29 0 74 8 83 54l28 139c12 59 57 98 109 114v2c-34 12 -63 48 -63 107c0 10 1 20 3 32l20 105c1 4 1 8 1 12c0 36 -38 42 -64 42c-11 0 -19 -1 -25 -2l24 124c10 1 29 2 44 2c48 0 168 -18 168 -138c0 -12 -2 -25 -4 -39l-14 -76c-2 -10 -3 -18 -3 -26
c0 -42 27 -68 69 -70l-29 -150c-23 0 -87 -15 -104 -99l-22 -110c-27 -132 -144 -147 -228 -147c-14 0 -27 1 -42 2l24 124c7 -1 15 -2 25 -2z" />
    <glyph glyph-name="at.case" horiz-adv-x="849" 
d="M53 293c0 238 203 438 453 438c204 0 273 -88 273 -204c0 -18 -2 -37 -6 -56l-34 -178h74l-23 -119h-268c-141 0 -209 77 -209 166c0 91 86 192 248 192h64c0 2 1 5 1 7c0 38 -65 57 -123 57c-157 0 -279 -156 -279 -292c0 -105 68 -190 210 -190l-25 -128
c-211 0 -356 130 -356 307zM485 344c0 -29 17 -51 55 -51h39l26 134h-37c-52 0 -83 -41 -83 -83z" />
    <glyph glyph-name="guillemotleft.case" horiz-adv-x="662" 
d="M430 137l-130 205l213 206h167l-227 -213l130 -198h-153zM170 137l-130 205l191 206h164l-202 -213l130 -198h-153z" />
    <glyph glyph-name="guillemotright.case" horiz-adv-x="664" 
d="M286 137l202 213l-130 198h153l130 -205l-191 -206h-164zM1 137l227 213l-130 198h153l130 -205l-213 -206h-167z" />
    <glyph glyph-name="guilsinglleft.case" horiz-adv-x="391" 
d="M170 137l-130 205l191 206h164l-202 -213l130 -198h-153z" />
    <glyph glyph-name="guilsinglright.case" horiz-adv-x="387" 
d="M9 137l202 213l-130 198h153l130 -205l-191 -206h-164z" />
    <glyph glyph-name="endash.case" horiz-adv-x="715" 
d="M55 282l25 130h596l-25 -130h-596z" />
    <glyph glyph-name="emdash.case" horiz-adv-x="918" 
d="M57 282l25 130h796l-25 -130h-796z" />
    <glyph glyph-name="periodcentered.case" horiz-adv-x="279" 
d="M53 263l31 164h158l-31 -164h-158z" />
    <glyph glyph-name="questiondown.case" horiz-adv-x="518" 
d="M267 565l29 150h158l-29 -150h-158zM19 168c0 177 207 212 223 293l7 33h166l-9 -47c-26 -144 -205 -171 -205 -253c0 -29 26 -49 60 -49c38 0 73 20 103 43l79 -127c-46 -37 -132 -73 -210 -73c-110 0 -214 62 -214 180z" />
    <glyph glyph-name="exclamdown.case" horiz-adv-x="311" 
d="M127 565l29 150h158l-29 -150h-158zM8 0l112 494h148l-80 -494h-180z" />
    <glyph glyph-name="bullet.case" horiz-adv-x="526" 
d="M274 170c-103 0 -186 83 -186 186s83 186 186 186s186 -83 186 -186s-83 -186 -186 -186z" />
    <glyph glyph-name="zero.p_osf" horiz-adv-x="590" 
d="M28 210c0 160 95 357 292 357c173 0 234 -102 234 -223c0 -166 -98 -356 -291 -356c-174 0 -235 101 -235 222zM202 213c0 -46 16 -81 61 -81c82 0 117 123 117 207c0 47 -15 84 -60 84c-82 0 -118 -127 -118 -210z" />
    <glyph glyph-name="one.p_osf" horiz-adv-x="521" 
d="M-1 0l28 145h143l30 155c5 27 16 74 16 74h-2s-19 -19 -45 -32l-58 -29l-58 123l216 119h147l-79 -410h134l-28 -145h-444z" />
    <glyph glyph-name="two.p_osf" horiz-adv-x="560" 
d="M-6 0l23 115c95 52 317 176 317 259c0 33 -29 45 -56 45c-52 0 -108 -37 -148 -70l-72 121c60 57 159 97 248 97c100 0 204 -47 204 -169c0 -126 -129 -210 -235 -256v-2s24 5 69 5h148l-29 -145h-469z" />
    <glyph glyph-name="three.p_osf" horiz-adv-x="550" 
d="M-48 -41l91 111c35 -32 90 -54 141 -54c74 0 119 37 119 86c0 52 -63 71 -113 71h-59l-26 79l95 97c40 41 74 62 74 63v1s-23 -4 -68 -4h-131l28 146h431l-19 -98l-178 -168c81 -15 142 -85 142 -181c0 -118 -115 -236 -295 -236c-78 0 -180 26 -232 87z" />
    <glyph glyph-name="four.p_osf" horiz-adv-x="610" 
d="M-35 23l20 106l333 426h227l-76 -387h85l-28 -145h-85l-27 -139h-170l27 139h-306zM178 168h121l31 156c8 39 20 80 21 80h-2c0 -1 -25 -43 -49 -74l-122 -160v-2z" />
    <glyph glyph-name="five.p_osf" horiz-adv-x="559" 
d="M-36 -42l89 112c37 -34 90 -54 141 -54c54 0 125 32 125 103c0 47 -40 74 -95 74c-37 0 -71 -9 -106 -22l-88 33l97 351h392l-28 -146h-238l-17 -64c-4 -15 -9 -27 -9 -27h2c15 4 34 7 53 7c131 0 215 -87 215 -198c0 -156 -146 -255 -303 -255c-81 0 -170 27 -230 86z
" />
    <glyph glyph-name="six.p_osf" horiz-adv-x="606" 
d="M37 239c0 196 149 444 392 444c55 0 120 -9 169 -34l-68 -128c-14 8 -60 18 -96 18c-79 0 -140 -58 -173 -117h2c19 14 65 23 89 23c135 0 204 -92 204 -201c0 -118 -102 -256 -263 -256c-139 0 -256 78 -256 251zM211 238c0 -61 34 -106 85 -106c45 0 85 44 85 103
c0 40 -24 77 -86 77c-52 0 -84 -30 -84 -74z" />
    <glyph glyph-name="seven.p_osf" horiz-adv-x="540" 
d="M-30 -116l329 466c33 47 50 61 50 61v2s-5 -3 -41 -3h-260l28 145h502l-23 -115l-395 -556h-190z" />
    <glyph glyph-name="eight.p_osf" horiz-adv-x="602" 
d="M18 176c0 87 86 160 127 189c-26 26 -43 59 -43 102c0 104 89 215 248 215c129 0 227 -60 227 -167c0 -77 -73 -168 -93 -191c33 -27 57 -63 57 -114c0 -105 -103 -222 -278 -222c-164 0 -245 86 -245 188zM365 389c11 12 42 48 42 99c0 31 -22 51 -62 51
c-50 0 -76 -31 -76 -64c0 -39 43 -62 96 -86zM193 197c0 -37 29 -66 73 -66c52 0 100 29 100 77c0 35 -54 56 -112 85c-26 -18 -61 -51 -61 -96z" />
    <glyph glyph-name="nine.p_osf" horiz-adv-x="590" 
d="M60 34c24 -12 63 -18 96 -18c79 0 140 58 173 117h-2c-19 -14 -65 -23 -89 -23c-135 0 -204 92 -204 201c0 118 102 256 263 256c139 0 256 -78 256 -251c0 -196 -149 -444 -392 -444c-57 0 -117 8 -169 34zM295 243c52 0 84 30 84 74c0 61 -34 106 -85 106
c-45 0 -85 -44 -85 -103c0 -40 24 -77 86 -77z" />
    <glyph glyph-name="zero.t_osf" horiz-adv-x="600" 
d="M32 210c0 160 95 357 292 357c173 0 234 -102 234 -223c0 -166 -98 -356 -291 -356c-174 0 -235 101 -235 222zM206 213c0 -46 16 -81 61 -81c82 0 117 123 117 207c0 47 -15 84 -60 84c-82 0 -118 -127 -118 -210z" />
    <glyph glyph-name="one.t_osf" horiz-adv-x="600" 
d="M39 0l28 145h143l30 155c5 27 16 74 16 74h-2s-19 -19 -45 -32l-58 -29l-58 123l216 119h147l-79 -410h134l-28 -145h-444z" />
    <glyph glyph-name="two.t_osf" horiz-adv-x="600" 
d="M16 0l23 115c95 52 317 176 317 259c0 33 -29 45 -56 45c-52 0 -108 -37 -148 -70l-72 121c60 57 159 97 248 97c100 0 204 -47 204 -169c0 -126 -129 -210 -235 -256v-2s24 5 69 5h148l-29 -145h-469z" />
    <glyph glyph-name="three.t_osf" horiz-adv-x="600" 
d="M-21 -39l91 111c35 -32 89 -54 140 -54c74 0 119 37 119 86c0 51 -63 70 -113 70h-59l-25 79l94 97c40 40 74 61 74 62v1s-23 -4 -68 -4h-130l28 146h429l-19 -98l-177 -167c80 -15 141 -85 141 -180c0 -118 -114 -235 -294 -235c-77 0 -179 25 -231 86z" />
    <glyph glyph-name="four.t_osf" horiz-adv-x="600" 
d="M-38 23l20 106l333 426h227l-76 -387h85l-28 -145h-85l-27 -139h-170l27 139h-306zM175 168h121l31 156c8 39 20 80 21 80h-2c0 -1 -25 -43 -49 -74l-122 -160v-2z" />
    <glyph glyph-name="five.t_osf" horiz-adv-x="600" 
d="M-15 -42l89 112c37 -34 90 -54 141 -54c54 0 125 32 125 103c0 47 -40 74 -95 74c-37 0 -71 -9 -106 -22l-88 33l97 351h392l-28 -146h-238l-17 -64c-4 -15 -9 -27 -9 -27h2c15 4 34 7 53 7c131 0 215 -87 215 -198c0 -156 -146 -255 -303 -255c-81 0 -170 27 -230 86z
" />
    <glyph glyph-name="six.t_osf" horiz-adv-x="600" 
d="M36 239c0 196 149 444 392 444c55 0 120 -9 169 -34l-68 -128c-14 8 -60 18 -96 18c-79 0 -140 -58 -173 -117h2c19 14 65 23 89 23c135 0 204 -92 204 -201c0 -118 -102 -256 -263 -256c-139 0 -256 78 -256 251zM210 238c0 -61 34 -106 85 -106c45 0 85 44 85 103
c0 40 -24 77 -86 77c-52 0 -84 -30 -84 -74z" />
    <glyph glyph-name="seven.t_osf" horiz-adv-x="600" 
d="M-1 -116l329 466c33 47 50 61 50 61v2s-5 -3 -41 -3h-260l28 145h502l-23 -115l-395 -556h-190z" />
    <glyph glyph-name="eight.t_osf" horiz-adv-x="600" 
d="M17 176c0 87 86 160 127 189c-26 26 -43 59 -43 102c0 104 89 215 248 215c129 0 227 -60 227 -167c0 -77 -73 -168 -93 -191c33 -27 57 -63 57 -114c0 -105 -103 -222 -278 -222c-164 0 -245 86 -245 188zM364 389c11 12 42 48 42 99c0 31 -22 51 -62 51
c-50 0 -76 -31 -76 -64c0 -39 43 -62 96 -86zM192 197c0 -37 29 -66 73 -66c52 0 100 29 100 77c0 35 -54 56 -112 85c-26 -18 -61 -51 -61 -96z" />
    <glyph glyph-name="nine.t_osf" horiz-adv-x="600" 
d="M65 34c24 -12 63 -18 96 -18c79 0 140 58 173 117h-2c-19 -14 -65 -23 -89 -23c-135 0 -204 92 -204 201c0 118 102 256 263 256c139 0 256 -78 256 -251c0 -196 -149 -444 -392 -444c-57 0 -117 8 -169 34zM300 243c52 0 84 30 84 74c0 61 -34 106 -85 106
c-45 0 -85 -44 -85 -103c0 -40 24 -77 86 -77z" />
    <glyph glyph-name="dollar.osf" horiz-adv-x="549" 
d="M-4 83l94 118c34 -31 89 -61 141 -61c44 0 74 14 74 37c0 54 -231 65 -231 232c0 83 74 167 209 184l18 91h109l-19 -93c53 -8 106 -30 147 -66l-82 -128c-30 27 -82 48 -126 48c-39 0 -76 -9 -76 -38c0 -50 231 -61 231 -223c0 -113 -103 -179 -211 -192l-17 -92h-109
l19 95c-63 12 -125 41 -171 88z" />
    <glyph glyph-name="cent.osf" horiz-adv-x="563" 
d="M176 -30l17 87c-102 30 -154 112 -154 207c0 127 96 256 250 285l16 80h114l-16 -79c56 -10 110 -38 150 -79l-93 -113c-24 28 -66 45 -104 45c-98 0 -142 -71 -142 -122c0 -44 29 -84 102 -84c44 0 86 22 119 51l57 -132c-51 -42 -122 -66 -187 -71l-15 -75h-114z" />
    <glyph glyph-name="sterling.osf" horiz-adv-x="620" 
d="M-3 0l28 145h55l16 86h-43l21 108h43l10 47c29 137 145 211 280 211c67 0 142 -21 194 -66l-90 -116c-24 17 -70 30 -114 30c-42 0 -88 -25 -96 -64l-9 -42h180l-21 -108h-180l-16 -86h289l-29 -145h-518z" />
    <glyph glyph-name="yen.osf" horiz-adv-x="673" 
d="M51 125l19 96h161l1 6l-27 65h-122l19 96h65l-74 197h190l31 -118c13 -49 27 -110 27 -110h2s29 61 60 110l74 118h208l-151 -197h74l-19 -96h-131l-51 -65l-1 -6h170l-19 -96h-170l-24 -125h-175l24 125h-161z" />
    <glyph glyph-name="florin.osf" horiz-adv-x="596" 
d="M-1 27c20 -4 43 -6 67 -6c32 0 90 9 105 64l49 181h-62l27 135h74l29 100c47 161 182 182 265 182c34 0 68 -5 102 -9l-29 -144c-23 4 -48 6 -74 6c-34 0 -88 -9 -103 -64l-20 -71h95l-27 -135h-107l-57 -210c-44 -161 -189 -182 -268 -182c-31 0 -64 4 -95 10z" />
    <glyph glyph-name="Euro.osf" horiz-adv-x="589" 
d="M19 184l17 86h63c0 15 3 30 6 45h-60l17 86h72c52 107 162 196 320 196c43 0 90 -4 131 -20l-59 -127c-21 6 -42 9 -68 9c-56 0 -101 -24 -132 -58h182l-36 -86h-193c-4 -15 -7 -31 -7 -45h185l-33 -86h-131c20 -33 56 -55 108 -55c30 0 60 6 89 14v-139
c-29 -10 -60 -16 -95 -16c-166 0 -260 85 -288 196h-88z" />
    <glyph glyph-name="zero.numerator" 
d="M213 264c-115 0 -154 64 -154 156c0 124 54 305 203 305c115 0 155 -64 155 -156c0 -124 -56 -305 -204 -305zM214 379c43 0 74 96 74 181c0 29 -6 49 -27 49c-44 0 -74 -97 -74 -181c0 -30 7 -49 27 -49z" />
    <glyph glyph-name="one.numerator" 
d="M54 274l21 108h89l26 136c4 19 10 32 10 32h-2s-7 -10 -14 -15l-27 -20l-59 84l148 116h108l-64 -333h90l-21 -108h-305z" />
    <glyph glyph-name="two.numerator" 
d="M34 274c0 234 253 229 253 309c0 18 -19 27 -39 27c-31 0 -59 -25 -80 -45l-75 78c42 43 97 82 166 82c76 0 159 -41 159 -129c0 -146 -205 -172 -222 -214h186l-21 -108h-327z" />
    <glyph glyph-name="three.numerator" 
d="M194 264c-57 0 -119 21 -162 68l72 83c15 -19 51 -36 91 -36c36 0 60 18 60 45c0 22 -25 33 -55 33h-37l-18 57l74 69c9 8 28 23 28 23v2s-21 -2 -34 -2h-103l21 109h294l-15 -79l-99 -92c48 -16 74 -64 74 -116c0 -79 -69 -164 -191 -164z" />
    <glyph glyph-name="four.numerator" 
d="M201 274l17 87h-196l15 84l216 270h157l-48 -247h53l-20 -107h-53l-17 -87h-124zM168 468h70l18 90c5 25 14 50 14 50h-2s-14 -28 -30 -46l-70 -92v-2z" />
    <glyph glyph-name="five.numerator" 
d="M198 264c-56 0 -120 21 -163 65l74 86c22 -22 55 -36 89 -36c29 0 67 17 67 53c0 25 -23 40 -53 40c-23 0 -45 -4 -67 -13l-64 24l65 232h269l-21 -109h-164l-6 -23c-3 -11 -6 -16 -6 -16l1 -1c10 3 24 4 39 4c73 0 136 -56 136 -131c0 -83 -75 -175 -196 -175z" />
    <glyph glyph-name="six.numerator" 
d="M224 264c-88 0 -164 54 -164 169c0 128 104 292 258 292c38 0 77 -7 111 -26l-49 -102c-18 7 -41 12 -66 12c-34 0 -66 -15 -86 -52h2c13 4 25 6 38 6c78 0 131 -56 131 -127c0 -81 -69 -172 -175 -172zM231 379c26 0 42 28 42 52c0 20 -11 41 -44 41
c-34 0 -40 -17 -40 -41c0 -31 18 -52 42 -52z" />
    <glyph glyph-name="seven.numerator" 
d="M30 274l235 308c13 17 22 24 22 24v2s-19 -2 -32 -2h-153l21 109h334l-16 -85l-267 -356h-144z" />
    <glyph glyph-name="eight.numerator" 
d="M210 264c-88 0 -170 42 -170 125c0 55 59 104 88 125c-17 17 -28 38 -28 66c0 98 92 145 169 145c96 0 153 -46 153 -111c0 -55 -63 -115 -73 -124c26 -19 45 -43 45 -81c0 -96 -103 -145 -184 -145zM268 533c5 4 31 31 31 60c0 17 -19 26 -37 26c-20 0 -42 -10 -42 -35
c0 -23 21 -38 48 -51zM214 370c23 0 52 13 52 39c0 24 -29 39 -63 56c-15 -14 -35 -37 -35 -61c0 -23 22 -34 46 -34z" />
    <glyph glyph-name="nine.numerator" 
d="M47 290l49 102c18 -8 43 -12 66 -12c34 0 66 15 86 52h-2c-13 -4 -25 -6 -38 -6c-78 0 -131 56 -131 127c0 81 69 172 175 172c88 0 164 -54 164 -169c0 -128 -104 -292 -258 -292c-38 0 -77 7 -111 26zM247 517c34 0 40 17 40 41c0 31 -18 52 -42 52
c-26 0 -42 -28 -42 -52c0 -21 11 -41 44 -41z" />
    <glyph glyph-name="zerosuperior" unicode="&#x2070;" 
d="M242 413c-115 0 -154 64 -154 156c0 124 54 305 203 305c115 0 155 -64 155 -156c0 -124 -56 -305 -204 -305zM243 528c43 0 74 96 74 181c0 29 -6 49 -27 49c-44 0 -74 -97 -74 -181c0 -30 7 -49 27 -49z" />
    <glyph glyph-name="foursuperior" unicode="&#x2074;" 
d="M230 423l17 87h-196l15 84l216 270h157l-48 -247h53l-20 -107h-53l-17 -87h-124zM197 617h70l18 90c5 25 14 50 14 50h-2s-14 -28 -30 -46l-70 -92v-2z" />
    <glyph glyph-name="fivesuperior" unicode="&#x2075;" 
d="M228 413c-56 0 -120 21 -163 65l74 86c22 -22 55 -36 89 -36c29 0 67 17 67 53c0 25 -23 40 -53 40c-23 0 -45 -4 -67 -13l-64 24l65 232h269l-21 -109h-164l-6 -23c-3 -11 -6 -16 -6 -16l1 -1c10 3 24 4 39 4c73 0 136 -56 136 -131c0 -83 -75 -175 -196 -175z" />
    <glyph glyph-name="sixsuperior" unicode="&#x2076;" 
d="M253 413c-88 0 -164 54 -164 169c0 128 104 292 258 292c38 0 77 -7 111 -26l-49 -102c-18 7 -41 12 -66 12c-34 0 -66 -15 -86 -52h2c13 4 25 6 38 6c78 0 131 -56 131 -127c0 -81 -69 -172 -175 -172zM260 528c26 0 42 28 42 52c0 20 -11 41 -44 41
c-34 0 -40 -17 -40 -41c0 -31 18 -52 42 -52z" />
    <glyph glyph-name="sevensuperior" unicode="&#x2077;" 
d="M58 423l235 308c13 17 22 24 22 24v2s-19 -2 -32 -2h-153l21 109h334l-16 -85l-267 -356h-144z" />
    <glyph glyph-name="eightsuperior" unicode="&#x2078;" 
d="M240 413c-88 0 -170 42 -170 125c0 55 59 104 88 125c-17 17 -28 38 -28 66c0 98 92 145 169 145c96 0 153 -46 153 -111c0 -55 -63 -115 -73 -124c26 -19 45 -43 45 -81c0 -96 -103 -145 -184 -145zM298 682c5 4 31 31 31 60c0 17 -19 26 -37 26c-20 0 -42 -10 -42 -35
c0 -23 21 -38 48 -51zM244 519c23 0 52 13 52 39c0 24 -29 39 -63 56c-15 -14 -35 -37 -35 -61c0 -23 22 -34 46 -34z" />
    <glyph glyph-name="ninesuperior" unicode="&#x2079;" 
d="M75 439l49 102c18 -8 43 -12 66 -12c34 0 66 15 86 52h-2c-13 -4 -25 -6 -38 -6c-78 0 -131 56 -131 127c0 81 69 172 175 172c88 0 164 -54 164 -169c0 -128 -104 -292 -258 -292c-38 0 -77 7 -111 26zM275 666c34 0 40 17 40 41c0 31 -18 52 -42 52
c-26 0 -42 -28 -42 -52c0 -21 11 -41 44 -41z" />
    <glyph glyph-name="zeroinferior" unicode="&#x2080;" 
d="M129 -167c-115 0 -154 64 -154 156c0 124 54 305 203 305c115 0 155 -64 155 -156c0 -124 -56 -305 -204 -305zM130 -52c43 0 74 96 74 181c0 29 -6 49 -27 49c-44 0 -74 -97 -74 -181c0 -30 7 -49 27 -49z" />
    <glyph glyph-name="oneinferior" unicode="&#x2081;" 
d="M-29 -157l21 108h89l26 136c4 19 10 32 10 32h-2s-7 -10 -14 -15l-27 -20l-59 84l148 116h108l-64 -333h90l-21 -108h-305z" />
    <glyph glyph-name="twoinferior" unicode="&#x2082;" 
d="M-49 -157c0 234 253 229 253 309c0 18 -19 27 -39 27c-31 0 -59 -25 -80 -45l-75 78c42 43 97 82 166 82c76 0 159 -41 159 -129c0 -146 -205 -172 -222 -214h186l-21 -108h-327z" />
    <glyph glyph-name="threeinferior" unicode="&#x2083;" 
d="M110 -167c-57 0 -119 21 -162 68l72 83c15 -19 51 -36 91 -36c36 0 60 18 60 45c0 22 -25 33 -55 33h-37l-18 57l74 69c9 8 28 23 28 23v2s-21 -2 -34 -2h-103l21 109h294l-15 -79l-99 -92c48 -16 74 -64 74 -116c0 -79 -69 -164 -191 -164z" />
    <glyph glyph-name="fourinferior" unicode="&#x2084;" 
d="M117 -157l17 87h-196l15 84l216 270h157l-48 -247h53l-20 -107h-53l-17 -87h-124zM84 37h70l18 90c5 25 14 50 14 50h-2s-14 -28 -30 -46l-70 -92v-2z" />
    <glyph glyph-name="fiveinferior" unicode="&#x2085;" 
d="M115 -167c-56 0 -120 21 -163 65l74 86c22 -22 55 -36 89 -36c29 0 67 17 67 53c0 25 -23 40 -53 40c-23 0 -45 -4 -67 -13l-64 24l65 232h269l-21 -109h-164l-6 -23c-3 -11 -6 -16 -6 -16l1 -1c10 3 24 4 39 4c73 0 136 -56 136 -131c0 -83 -75 -175 -196 -175z" />
    <glyph glyph-name="sixinferior" unicode="&#x2086;" 
d="M141 -167c-88 0 -164 54 -164 169c0 128 104 292 258 292c38 0 77 -7 111 -26l-49 -102c-18 7 -41 12 -66 12c-34 0 -66 -15 -86 -52h2c13 4 25 6 38 6c78 0 131 -56 131 -127c0 -81 -69 -172 -175 -172zM148 -52c26 0 42 28 42 52c0 20 -11 41 -44 41
c-34 0 -40 -17 -40 -41c0 -31 18 -52 42 -52z" />
    <glyph glyph-name="seveninferior" unicode="&#x2087;" 
d="M-54 -157l235 308c13 17 22 24 22 24v2s-19 -2 -32 -2h-153l21 109h334l-16 -85l-267 -356h-144z" />
    <glyph glyph-name="eightinferior" unicode="&#x2088;" 
d="M127 -167c-88 0 -170 42 -170 125c0 55 59 104 88 125c-17 17 -28 38 -28 66c0 98 92 145 169 145c96 0 153 -46 153 -111c0 -55 -63 -115 -73 -124c26 -19 45 -43 45 -81c0 -96 -103 -145 -184 -145zM185 102c5 4 31 31 31 60c0 17 -19 26 -37 26c-20 0 -42 -10 -42 -35
c0 -23 21 -38 48 -51zM131 -61c23 0 52 13 52 39c0 24 -29 39 -63 56c-15 -14 -35 -37 -35 -61c0 -23 22 -34 46 -34z" />
    <glyph glyph-name="nineinferior" unicode="&#x2089;" 
d="M-37 -141l49 102c18 -8 43 -12 66 -12c34 0 66 15 86 52h-2c-13 -4 -25 -6 -38 -6c-78 0 -131 56 -131 127c0 81 69 172 175 172c88 0 164 -54 164 -169c0 -128 -104 -292 -258 -292c-38 0 -77 7 -111 26zM163 86c34 0 40 17 40 41c0 31 -18 52 -42 52
c-26 0 -42 -28 -42 -52c0 -21 11 -41 44 -41z" />
    <glyph glyph-name="zero.denominator" 
d="M160 -10c-115 0 -154 64 -154 156c0 124 54 305 203 305c115 0 155 -64 155 -156c0 -124 -56 -305 -204 -305zM161 105c43 0 74 96 74 181c0 29 -6 49 -27 49c-44 0 -74 -97 -74 -181c0 -30 7 -49 27 -49z" />
    <glyph glyph-name="one.denominator" 
d="M1 0l21 108h89l26 136c4 19 10 32 10 32h-2s-7 -10 -14 -15l-27 -20l-59 84l148 116h108l-64 -333h90l-21 -108h-305z" />
    <glyph glyph-name="two.denominator" 
d="M-20 0c0 234 253 229 253 309c0 18 -19 27 -39 27c-31 0 -59 -25 -80 -45l-75 78c42 43 97 82 166 82c76 0 159 -41 159 -129c0 -146 -205 -172 -222 -214h186l-21 -108h-327z" />
    <glyph glyph-name="three.denominator" 
d="M141 -10c-57 0 -119 21 -162 68l72 83c15 -19 51 -36 91 -36c36 0 60 18 60 45c0 22 -25 33 -55 33h-37l-18 57l74 69c9 8 28 23 28 23v2s-21 -2 -34 -2h-103l21 109h294l-15 -79l-99 -92c48 -16 74 -64 74 -116c0 -79 -69 -164 -191 -164z" />
    <glyph glyph-name="four.denominator" 
d="M148 0l17 87h-196l15 84l216 270h157l-48 -247h53l-20 -107h-53l-17 -87h-124zM115 194h70l18 90c5 25 14 50 14 50h-2s-14 -28 -30 -46l-70 -92v-2z" />
    <glyph glyph-name="five.denominator" 
d="M145 -10c-56 0 -120 21 -163 65l74 86c22 -22 55 -36 89 -36c29 0 67 17 67 53c0 25 -23 40 -53 40c-23 0 -45 -4 -67 -13l-64 24l65 232h269l-21 -109h-164l-6 -23c-3 -11 -6 -16 -6 -16l1 -1c10 3 24 4 39 4c73 0 136 -56 136 -131c0 -83 -75 -175 -196 -175z" />
    <glyph glyph-name="six.denominator" 
d="M171 -10c-88 0 -164 54 -164 169c0 128 104 292 258 292c38 0 77 -7 111 -26l-49 -102c-18 7 -41 12 -66 12c-34 0 -66 -15 -86 -52h2c13 4 25 6 38 6c78 0 131 -56 131 -127c0 -81 -69 -172 -175 -172zM178 105c26 0 42 28 42 52c0 20 -11 41 -44 41
c-34 0 -40 -17 -40 -41c0 -31 18 -52 42 -52z" />
    <glyph glyph-name="seven.denominator" 
d="M-24 0l235 308c13 17 22 24 22 24v2s-19 -2 -32 -2h-153l21 109h334l-16 -85l-267 -356h-144z" />
    <glyph glyph-name="eight.denominator" 
d="M158 -10c-88 0 -170 42 -170 125c0 55 59 104 88 125c-17 17 -28 38 -28 66c0 98 92 145 169 145c96 0 153 -46 153 -111c0 -55 -63 -115 -73 -124c26 -19 45 -43 45 -81c0 -96 -103 -145 -184 -145zM216 259c5 4 31 31 31 60c0 17 -19 26 -37 26c-20 0 -42 -10 -42 -35
c0 -23 21 -38 48 -51zM162 96c23 0 52 13 52 39c0 24 -29 39 -63 56c-15 -14 -35 -37 -35 -61c0 -23 22 -34 46 -34z" />
    <glyph glyph-name="nine.denominator" 
d="M-7 16l49 102c18 -8 43 -12 66 -12c34 0 66 15 86 52h-2c-13 -4 -25 -6 -38 -6c-78 0 -131 56 -131 127c0 81 69 172 175 172c88 0 164 -54 164 -169c0 -128 -104 -292 -258 -292c-38 0 -77 7 -111 26zM193 243c34 0 40 17 40 41c0 31 -18 52 -42 52
c-26 0 -42 -28 -42 -52c0 -21 11 -41 44 -41z" />
    <glyph glyph-name="thinspace" unicode="&#x2009;" horiz-adv-x="20" 
 />
    <glyph glyph-name="uni00AD" unicode="&#xad;" horiz-adv-x="433" 
d="M42 212l29 150h314l-29 -150h-314z" />
    <glyph glyph-name="uni00A0" unicode="&#xa0;" horiz-adv-x="250" 
 />
    <glyph glyph-name="cyrbreve" unicode="&#xf6d4;" horiz-adv-x="276" 
d="M202 747c-106 0 -174 53 -174 126c0 9 1 19 5 38h130c-2 -7 -3 -15 -3 -22c0 -26 16 -49 51 -49c34 0 67 18 75 71h126c-18 -119 -113 -164 -210 -164z" />
    <glyph glyph-name="uni0410" unicode="&#x410;" horiz-adv-x="668" 
d="M-57 0l372 715h201l99 -715h-175l-15 150h-223l-72 -150h-187zM270 290h141l-14 139c-4 45 -6 123 -6 123h-2s-29 -78 -51 -123z" />
    <glyph glyph-name="uni0411" unicode="&#x411;" horiz-adv-x="635" 
d="M18 0l139 715h465l-29 -150h-290l-22 -111h112c127 0 204 -81 204 -198c0 -134 -120 -256 -272 -256h-307zM222 150h89c52 0 105 34 105 93c0 36 -25 61 -78 61h-86z" />
    <glyph glyph-name="uni0412" unicode="&#x412;" horiz-adv-x="650" 
d="M18 0l139 715h230c47 0 90 -4 125 -16c72 -25 113 -82 113 -154c0 -65 -41 -134 -111 -169v-2c62 -23 86 -80 86 -137c0 -114 -76 -190 -175 -221c-36 -12 -75 -16 -114 -16h-293zM278 438h90c49 0 77 41 77 80c0 27 -15 47 -55 47h-87zM222 150h105c19 0 35 4 49 12
c27 17 44 49 44 80c0 32 -20 56 -63 56h-106z" />
    <glyph glyph-name="uni0413" unicode="&#x413;" horiz-adv-x="526" 
d="M18 0l139 715h438l-29 -150h-263l-110 -565h-175z" />
    <glyph glyph-name="uni0414" unicode="&#x414;" horiz-adv-x="775" 
d="M242 149h213l80 416h-143l-6 -33c-20 -107 -73 -281 -144 -383zM-75 -140l57 289h74c88 119 141 268 166 397l33 169h485l-110 -566h80l-57 -289h-155l28 140h-413l-28 -140h-160z" />
    <glyph glyph-name="uni0415" unicode="&#x415;" horiz-adv-x="577" 
d="M18 0l140 715h447l-29 -150h-273l-25 -130h217l-30 -150h-217l-26 -135h287l-29 -150h-462z" />
    <glyph glyph-name="uni0416" unicode="&#x416;" horiz-adv-x="1018" 
d="M-46 0l271 387v2l-132 326h178l109 -276h67l54 276h175l-54 -276h67l177 276h208l-247 -357v-2l119 -356h-180l-90 290h-83l-56 -290h-175l56 290h-67l-192 -290h-205z" />
    <glyph glyph-name="uni0417" unicode="&#x417;" horiz-adv-x="572" 
d="M-18 97l100 112c36 -43 91 -68 142 -68c58 0 115 32 115 93c0 35 -21 54 -73 54h-103l27 140h87c49 0 99 35 99 88c0 36 -19 59 -70 59c-36 0 -83 -11 -151 -59l-62 127c85 67 179 84 242 84c124 0 226 -59 226 -179c0 -81 -51 -148 -127 -179l-1 -2
c49 -23 85 -74 85 -140c0 -148 -149 -239 -293 -239c-97 0 -190 41 -243 109z" />
    <glyph glyph-name="uni0418" unicode="&#x418;" horiz-adv-x="756" 
d="M18 0l139 715h175l-65 -334c-9 -45 -32 -122 -32 -122h2s47 75 84 122l263 334h177l-139 -715h-175l65 333c8 45 31 122 31 122h-2s-46 -75 -83 -122l-264 -333h-176z" />
    <glyph glyph-name="uni0419" unicode="&#x419;" horiz-adv-x="756" 
d="M476 747c-106 0 -174 53 -174 126c0 9 1 19 5 38h130c-2 -7 -3 -15 -3 -22c0 -26 16 -49 51 -49c34 0 67 18 75 71h126c-18 -119 -113 -164 -210 -164zM18 0l139 715h175l-65 -334c-9 -45 -32 -122 -32 -122h2s47 75 84 122l263 334h177l-139 -715h-175l65 333
c8 45 31 122 31 122h-2s-46 -75 -83 -122l-264 -333h-176z" />
    <glyph glyph-name="uni041A" unicode="&#x41a;" horiz-adv-x="682" 
d="M18 0l139 715h175l-54 -276h67l205 276h203l-271 -351v-2l130 -362h-186l-95 290h-82l-56 -290h-175z" />
    <glyph glyph-name="uni041B" unicode="&#x41b;" horiz-adv-x="714" 
d="M580 0h-175l110 565h-139l-17 -87c-69 -352 -195 -486 -403 -486l31 159c86 11 157 77 206 329l46 235h480z" />
    <glyph glyph-name="uni041C" unicode="&#x41c;" horiz-adv-x="878" 
d="M-7 0l191 715h191l47 -302c7 -46 12 -118 12 -118h2s35 71 60 118l163 302h192l-81 -715h-172l41 322c7 54 23 120 23 120h-2s-38 -76 -63 -120l-116 -207h-152l-36 207c-8 45 -15 122 -15 122h-2s-9 -68 -23 -122l-84 -322h-176z" />
    <glyph glyph-name="uni041D" unicode="&#x41d;" horiz-adv-x="762" 
d="M18 0l139 715h175l-56 -286h260l56 286h175l-139 -715h-175l54 280h-260l-54 -280h-175z" />
    <glyph glyph-name="uni041E" unicode="&#x41e;" horiz-adv-x="820" 
d="M44 307c0 227 200 420 419 420c204 0 337 -131 337 -312c0 -231 -204 -427 -420 -427c-205 0 -336 134 -336 319zM224 317c0 -101 65 -169 158 -169c117 0 237 112 237 256c0 98 -65 163 -158 163c-120 0 -237 -110 -237 -250z" />
    <glyph glyph-name="uni041F" unicode="&#x41f;" horiz-adv-x="756" 
d="M18 0l139 715h604l-139 -715h-175l110 566h-254l-110 -566h-175z" />
    <glyph glyph-name="uni0420" unicode="&#x420;" horiz-adv-x="627" 
d="M18 0l139 715h273c42 0 78 -7 109 -22c67 -32 104 -98 104 -181c0 -120 -68 -222 -164 -267c-34 -16 -72 -24 -110 -24h-133l-43 -221h-175zM265 371h85c22 0 43 4 59 15c33 22 54 63 54 110c0 42 -24 69 -72 69h-88z" />
    <glyph glyph-name="uni0421" unicode="&#x421;" horiz-adv-x="717" 
d="M45 305c0 230 190 422 420 422c97 0 207 -29 276 -103l-99 -120c-42 36 -107 63 -171 63c-159 0 -245 -137 -245 -250c0 -92 53 -169 166 -169c77 0 150 38 209 85l68 -139c-67 -60 -182 -106 -287 -106c-209 0 -337 131 -337 317z" />
    <glyph glyph-name="uni0422" unicode="&#x422;" horiz-adv-x="632" 
d="M170 0l110 565h-216l29 150h607l-29 -150h-216l-110 -565h-175z" />
    <glyph glyph-name="uni0423" unicode="&#x423;" horiz-adv-x="630" 
d="M4 42l85 125c17 -16 48 -30 83 -30c28 0 51 16 66 40l-171 538h180l71 -257c14 -51 22 -97 22 -97h2s18 46 45 96l135 258h195l-311 -536c-52 -91 -120 -191 -240 -191c-67 0 -117 19 -162 54z" />
    <glyph glyph-name="uni0424" unicode="&#x424;" horiz-adv-x="863" 
d="M37 342c0 186 156 328 383 335l15 73h175l-15 -73c158 0 268 -107 268 -258c0 -188 -170 -340 -384 -341l-18 -90h-175l18 90c-157 0 -267 108 -267 264zM507 224c95 2 178 94 178 187c0 70 -46 120 -118 120zM215 348c0 -71 45 -124 117 -124l60 307
c-97 -2 -177 -88 -177 -183z" />
    <glyph glyph-name="uni0425" unicode="&#x425;" horiz-adv-x="655" 
d="M-49 0l286 360l-149 355h191l52 -144c16 -45 28 -91 28 -91h2s25 45 59 91l105 144h204l-291 -364l151 -351h-187l-56 147c-17 45 -28 88 -28 88h-2s-25 -43 -59 -88l-109 -147h-197z" />
    <glyph glyph-name="uni0426" unicode="&#x426;" horiz-adv-x="795" 
d="M18 0l139 715h175l-110 -566h248l110 566h175l-110 -566h89l-57 -289h-155l28 140h-532z" />
    <glyph glyph-name="uni0427" unicode="&#x427;" horiz-adv-x="689" 
d="M270 253c-132 0 -206 64 -206 171c0 21 3 43 8 68l43 223h179l-38 -197c-3 -13 -4 -26 -4 -36c0 -45 22 -70 79 -70c52 0 105 21 133 38l51 265h179l-139 -715h-179l49 254c2 12 9 32 9 32h-2c-40 -15 -92 -33 -162 -33z" />
    <glyph glyph-name="uni0428" unicode="&#x428;" horiz-adv-x="1037" 
d="M18 0l139 715h175l-110 -566h180l110 566h175l-110 -566h180l110 566h175l-139 -715h-885z" />
    <glyph glyph-name="uni0429" unicode="&#x429;" horiz-adv-x="1082" 
d="M18 0l139 715h175l-110 -566h180l110 566h175l-110 -566h180l110 566h175l-110 -566h89l-57 -289h-155l28 140h-819z" />
    <glyph glyph-name="uni042A" unicode="&#x42a;" horiz-adv-x="734" 
d="M124 0l110 565h-180l29 150h355l-43 -221h117c122 0 196 -85 196 -210c0 -142 -114 -284 -282 -284h-302zM328 150h89c67 0 113 57 113 123c0 42 -27 71 -78 71h-86z" />
    <glyph glyph-name="uni042B" unicode="&#x42b;" horiz-adv-x="927" 
d="M618 0l139 715h175l-139 -715h-175zM18 0l139 715h175l-43 -221h107c122 0 196 -85 196 -210c0 -142 -114 -284 -282 -284h-292zM222 150h79c67 0 112 57 112 123c0 42 -26 71 -77 71h-76z" />
    <glyph glyph-name="uni042C" unicode="&#x42c;" horiz-adv-x="628" 
d="M18 0l139 715h175l-43 -221h117c122 0 196 -85 196 -210c0 -142 -114 -284 -282 -284h-302zM222 150h89c67 0 113 57 113 123c0 42 -27 71 -78 71h-86z" />
    <glyph glyph-name="uni042D" unicode="&#x42d;" horiz-adv-x="719" 
d="M196 288l27 140h296c-7 101 -73 141 -160 141c-72 0 -133 -25 -201 -78l-74 130c76 60 156 106 283 106c221 0 333 -138 333 -309c0 -225 -192 -430 -436 -430c-99 0 -204 35 -277 110l96 120c45 -46 114 -72 183 -72c109 0 188 60 227 142h-297z" />
    <glyph glyph-name="uni042E" unicode="&#x42e;" horiz-adv-x="1112" 
d="M18 0l139 715h175l-56 -286h89c55 170 219 298 395 298c201 0 332 -131 332 -312c0 -231 -202 -427 -415 -427c-192 0 -318 121 -330 292h-100l-54 -280h-175zM526 317c0 -101 63 -169 153 -169c115 0 232 112 232 256c0 98 -63 163 -153 163c-117 0 -232 -110 -232 -250
z" />
    <glyph glyph-name="uni042F" unicode="&#x42f;" horiz-adv-x="661" 
d="M-46 0l181 230c19 24 42 47 42 47v2c-55 37 -81 89 -81 163c0 101 41 176 107 222c49 34 110 51 179 51h284l-139 -715h-175l47 241h-60l-182 -241h-203zM351 386h76l35 179h-59c-40 0 -73 -8 -96 -27c-21 -17 -34 -43 -34 -79c0 -52 27 -73 78 -73z" />
    <glyph glyph-name="uni0430" unicode="&#x430;" horiz-adv-x="546" 
d="M-9 124c0 152 195 197 327 197h8c2 9 3 13 3 21c0 30 -24 45 -66 45c-52 0 -103 -24 -149 -47l-37 130c35 20 132 57 220 57c87 0 204 -34 204 -164c0 -15 -2 -32 -5 -50l-60 -313h-158l6 31c3 17 9 32 9 32h-2c-22 -28 -76 -75 -152 -75c-77 0 -148 49 -148 136z
M160 153c0 -19 10 -36 43 -36c45 0 94 47 102 89l3 16h-18c-37 0 -130 -8 -130 -69z" />
    <glyph glyph-name="uni0431" unicode="&#x431;" horiz-adv-x="619" 
d="M31 244c0 79 22 157 52 218c58 117 156 185 310 232l182 56l33 -139l-212 -62c-88 -25 -143 -51 -161 -120h2c43 34 97 45 143 45c124 0 198 -82 198 -199c0 -154 -129 -287 -307 -287c-156 0 -240 101 -240 256zM201 213c0 -51 35 -84 82 -84c63 0 121 58 121 128
c0 54 -37 82 -84 82c-71 0 -119 -63 -119 -126z" />
    <glyph glyph-name="uni0432" unicode="&#x432;" horiz-adv-x="569" 
d="M0 0l101 515h276c94 0 156 -43 156 -119c0 -47 -25 -100 -85 -128v-1c44 -17 62 -62 62 -104c0 -107 -115 -163 -224 -163h-286zM234 312h65c34 0 62 27 62 58c0 22 -14 38 -45 38h-63zM194 108h76c33 0 67 26 67 63c0 24 -15 40 -46 40h-77z" />
    <glyph glyph-name="uni0433" unicode="&#x433;" horiz-adv-x="438" 
d="M0 0l101 515h363l-29 -145h-190l-72 -370h-173z" />
    <glyph glyph-name="uni0434" unicode="&#x434;" horiz-adv-x="652" 
d="M221 137h132l46 241h-90l-4 -19c-16 -78 -49 -170 -84 -222zM-66 -120l49 257h60c49 64 87 152 103 236l27 142h425l-73 -378h74l-50 -257h-154l23 120h-302l-23 -120h-159z" />
    <glyph glyph-name="uni0435" unicode="&#x435;" horiz-adv-x="566" 
d="M19 213c0 179 127 314 297 314c146 0 220 -83 220 -202c0 -35 -8 -67 -19 -101h-325v-6c0 -51 37 -86 101 -86c53 0 109 24 153 52l44 -129c-40 -31 -129 -67 -208 -67c-176 0 -263 104 -263 225zM215 323h152c1 6 1 10 1 18c0 35 -20 59 -55 59c-50 0 -82 -33 -98 -77z
" />
    <glyph glyph-name="uni0436" unicode="&#x436;" horiz-adv-x="828" 
d="M-46 0l186 274v2l-79 239h168l58 -183h47l36 183h161l-36 -183h45l125 183h187l-189 -264v-1l96 -250h-177l-62 187h-53l-37 -187h-161l37 187h-48l-118 -187h-186z" />
    <glyph glyph-name="uni0437" unicode="&#x437;" horiz-adv-x="473" 
d="M-26 61l75 108c31 -27 77 -51 121 -51c33 0 72 16 72 56c0 20 -10 32 -49 32h-63l23 114h52c30 0 66 15 66 49c0 19 -12 32 -52 32c-28 0 -67 -7 -125 -39l-41 109c50 33 127 56 206 56c116 0 184 -56 184 -135c0 -60 -38 -102 -91 -126v-2c29 -18 62 -50 62 -107
c0 -112 -114 -169 -231 -169c-73 0 -153 25 -209 73z" />
    <glyph glyph-name="uni0438" unicode="&#x438;" horiz-adv-x="619" 
d="M0 0l101 515h160l-43 -217c-4 -18 -13 -53 -13 -53h2s14 23 40 53l186 217h170l-101 -515h-160l42 215c5 27 13 54 13 54h-2s-16 -25 -40 -53l-185 -216h-170z" />
    <glyph glyph-name="uni0439" unicode="&#x439;" horiz-adv-x="619" 
d="M381 549c-106 0 -174 53 -174 126c0 9 1 19 5 38h130c-2 -7 -3 -15 -3 -22c0 -26 16 -49 51 -49c34 0 67 18 75 71h126c-18 -119 -113 -164 -210 -164zM0 0l101 515h160l-43 -217c-4 -18 -13 -53 -13 -53h2s14 23 40 53l186 217h170l-101 -515h-160l42 215
c5 27 13 54 13 54h-2s-16 -25 -40 -53l-185 -216h-170z" />
    <glyph glyph-name="uni043A" unicode="&#x43a;" horiz-adv-x="591" 
d="M0 0l101 515h173l-36 -181h52l125 181h198l-199 -266v-2l119 -247h-187l-82 189h-54l-37 -189h-173z" />
    <glyph glyph-name="uni043B" unicode="&#x43b;" horiz-adv-x="597" 
d="M-38 -5l29 151c46 6 103 32 136 204l32 165h422l-100 -515h-173l73 378h-86l-5 -29c-41 -210 -124 -354 -328 -354z" />
    <glyph glyph-name="uni043C" unicode="&#x43c;" horiz-adv-x="762" 
d="M-22 0l149 515h196l36 -226c4 -26 6 -62 6 -62h2s16 36 30 62l124 226h199l-52 -515h-164l35 237c6 40 16 88 16 88h-2s-22 -44 -41 -76l-103 -180h-140l-33 180c-6 33 -13 78 -13 78h-2s-9 -50 -18 -90l-59 -237h-166z" />
    <glyph glyph-name="uni043D" unicode="&#x43d;" horiz-adv-x="622" 
d="M0 0l101 515h173l-36 -182h159l36 182h173l-101 -515h-173l37 188h-159l-37 -188h-173z" />
    <glyph glyph-name="uni043E" unicode="&#x43e;" horiz-adv-x="640" 
d="M18 219c0 181 160 308 321 308c155 0 267 -91 267 -231c0 -182 -161 -308 -321 -308c-155 0 -267 90 -267 231zM193 227c0 -60 40 -95 95 -95c69 0 143 59 143 153c0 61 -40 98 -94 98c-68 0 -144 -62 -144 -156z" />
    <glyph glyph-name="uni043F" unicode="&#x43f;" horiz-adv-x="616" 
d="M0 0l101 515h499l-101 -515h-173l72 370h-153l-72 -370h-173z" />
    <glyph glyph-name="uni0440" unicode="&#x440;" horiz-adv-x="633" 
d="M172 -2l-38 -198h-172l138 715h156l-5 -26c-3 -17 -9 -33 -9 -33h2c36 44 94 71 155 71c124 0 199 -88 199 -224c0 -187 -141 -315 -282 -315c-52 0 -101 17 -135 54h-2s-2 -18 -7 -44zM214 222c0 -50 24 -91 80 -91c60 0 129 58 129 159c0 56 -30 91 -80 91
c-53 0 -129 -58 -129 -159z" />
    <glyph glyph-name="uni0441" unicode="&#x441;" horiz-adv-x="554" 
d="M19 224c0 147 126 303 322 303c75 0 155 -21 210 -76l-87 -108c-28 24 -77 40 -115 40c-97 0 -155 -81 -155 -149c0 -53 32 -102 106 -102c54 0 109 30 154 62l44 -131c-51 -42 -142 -75 -222 -75c-170 0 -257 105 -257 236z" />
    <glyph glyph-name="uni0442" unicode="&#x442;" horiz-adv-x="516" 
d="M113 0l72 370h-156l29 145h486l-29 -145h-157l-72 -370h-173z" />
    <glyph glyph-name="uni0443" unicode="&#x443;" horiz-adv-x="565" 
d="M-6 -50c13 -10 34 -16 51 -16c30 0 66 8 93 52l15 24l-121 505h180l42 -255c5 -28 5 -76 5 -76h2s18 45 31 73l115 258h194l-322 -570c-64 -113 -153 -155 -225 -155c-46 0 -95 14 -135 40z" />
    <glyph glyph-name="uni0444" unicode="&#x444;" horiz-adv-x="791" 
d="M20 225c0 166 147 288 338 302l34 173h163l-34 -173c128 -4 234 -98 234 -238c0 -166 -146 -287 -338 -301l-37 -188h-163l37 188c-128 4 -234 97 -234 237zM443 124c81 8 143 79 143 160c0 64 -38 103 -91 107zM186 230c0 -61 37 -101 94 -106l52 267
c-81 -8 -146 -80 -146 -161z" />
    <glyph glyph-name="uni0445" unicode="&#x445;" horiz-adv-x="549" 
d="M-47 0l216 260l-122 255h182l42 -110c5 -13 11 -38 11 -38h2s13 25 22 38l78 110h200l-220 -265l119 -250h-178l-46 111c-3 9 -9 30 -9 30h-2s-11 -21 -18 -30l-80 -111h-197z" />
    <glyph glyph-name="uni0446" unicode="&#x446;" horiz-adv-x="647" 
d="M1 0l100 515h173l-72 -370h146l72 370h173l-72 -370h73l-51 -265h-154l23 120h-411z" />
    <glyph glyph-name="uni0447" unicode="&#x447;" horiz-adv-x="574" 
d="M196 162c-98 0 -164 46 -164 134c0 12 1 25 4 39l35 180h170l-25 -126c-3 -17 -6 -34 -6 -38c0 -30 20 -52 56 -52c34 0 62 13 81 25l38 191h173l-101 -515h-173l33 166c3 15 6 23 6 23h-2c-31 -16 -84 -27 -125 -27z" />
    <glyph glyph-name="uni0448" unicode="&#x448;" horiz-adv-x="838" 
d="M0 0l101 515h163l-72 -370h116l72 370h163l-72 -370h116l72 370h163l-101 -515h-721z" />
    <glyph glyph-name="uni0449" unicode="&#x449;" horiz-adv-x="876" 
d="M1 0l100 515h163l-72 -370h116l72 370h163l-72 -370h116l72 370h163l-72 -370h73l-51 -265h-154l23 120h-640z" />
    <glyph glyph-name="uni044A" unicode="&#x44a;" horiz-adv-x="617" 
d="M77 0l72 370h-130l29 145h303l-32 -161h85c123 0 174 -62 174 -154c0 -123 -91 -200 -233 -200h-268zM272 113h53c40 0 77 33 77 78c0 30 -17 51 -55 51h-50z" />
    <glyph glyph-name="uni044B" unicode="&#x44b;" horiz-adv-x="804" 
d="M514 0l101 515h173l-101 -515h-173zM0 0l101 515h173l-32 -161h80c123 0 174 -62 174 -154c0 -123 -91 -200 -233 -200h-263zM195 113h48c40 0 77 33 77 78c0 30 -17 51 -55 51h-45z" />
    <glyph glyph-name="uni044C" unicode="&#x44c;" horiz-adv-x="540" 
d="M0 0l101 515h173l-32 -161h85c123 0 174 -62 174 -154c0 -123 -91 -200 -233 -200h-268zM195 113h53c40 0 77 33 77 78c0 30 -17 51 -55 51h-50z" />
    <glyph glyph-name="uni044D" unicode="&#x44d;" horiz-adv-x="551" 
d="M142 202l22 114h194c-11 62 -63 77 -110 77c-49 0 -100 -17 -138 -51l-60 114c53 47 142 71 217 71c170 0 251 -109 251 -231c0 -166 -148 -308 -335 -308c-68 0 -160 24 -208 75l70 111c34 -33 92 -52 141 -52c65 0 119 32 149 80h-193z" />
    <glyph glyph-name="uni044E" unicode="&#x44e;" horiz-adv-x="889" 
d="M0 0l101 515h173l-37 -186h63c47 119 171 198 302 198c137 0 252 -87 252 -237c0 -171 -148 -302 -318 -302c-129 0 -237 74 -253 204h-72l-38 -192h-173zM456 231c0 -66 36 -99 86 -99c67 0 137 60 137 149c0 67 -40 102 -91 102c-68 0 -132 -63 -132 -152z" />
    <glyph glyph-name="uni044F" unicode="&#x44f;" horiz-adv-x="564" 
d="M-43 0l132 160c18 21 31 31 31 31v2c-40 25 -66 73 -66 131c0 107 92 191 210 191h284l-101 -515h-173l31 157h-36l-121 -157h-191zM226 323c0 -35 25 -51 60 -51h41l27 136h-42c-48 0 -86 -32 -86 -85z" />
    <glyph glyph-name="uni0409" unicode="&#x409;" horiz-adv-x="1000" 
d="M-39 -5l30 159c86 6 145 54 189 282l54 279h473l-51 -261h109c127 0 207 -89 207 -206c0 -134 -117 -248 -269 -248h-310l110 565h-120l-25 -129c-54 -278 -146 -441 -397 -441zM597 150h89c52 0 108 34 108 93c0 36 -28 61 -81 61h-86z" />
    <glyph glyph-name="uni040A" unicode="&#x40a;" horiz-adv-x="1040" 
d="M18 0l139 715h175l-52 -266h241l52 266h174l-51 -266h112c121 0 204 -90 204 -204c0 -134 -115 -245 -272 -245h-307l58 299h-240l-58 -299h-175zM637 150h89c50 0 107 30 107 86c0 39 -27 63 -80 63h-86z" />
    <glyph glyph-name="uni040B" unicode="&#x40b;" horiz-adv-x="761" 
d="M127 0l110 565h-176l29 150h567l-29 -150h-216l-21 -106c-3 -15 -9 -34 -9 -34h2c40 16 97 31 158 31c124 0 179 -72 179 -174c0 -22 -2 -45 -7 -69l-42 -213h-179l38 197c2 13 4 26 4 37c0 41 -20 64 -77 64c-39 0 -77 -12 -103 -26l-53 -272h-175z" />
    <glyph glyph-name="uni04BA" unicode="&#x4ba;" horiz-adv-x="656" 
d="M19 0l138 715h175l-49 -256c-3 -15 -9 -34 -9 -34h2c40 16 97 31 158 31c124 0 179 -72 179 -174c0 -22 -2 -45 -7 -69l-42 -213h-179l38 197c2 13 4 26 4 37c0 41 -20 64 -77 64c-39 0 -77 -12 -103 -26l-53 -272h-175z" />
    <glyph glyph-name="uni048C" unicode="&#x48c;" horiz-adv-x="715" 
d="M105 0l106 547h-160l25 130h164l14 73h171l-14 -73h204l-25 -130h-204l-18 -93h112c121 0 204 -90 204 -205c0 -136 -115 -249 -272 -249h-307zM309 150h89c50 0 107 32 107 91c0 39 -27 63 -80 63h-86z" />
    <glyph glyph-name="uni0402" unicode="&#x402;" horiz-adv-x="761" 
d="M127 0l110 565h-176l29 150h567l-29 -150h-216l-21 -108c-3 -14 -9 -32 -9 -32h2c24 12 87 31 153 31c122 0 196 -84 196 -196c0 -137 -109 -272 -273 -272c-14 0 -35 1 -56 3l29 145s7 -2 19 -2c60 0 105 45 105 97c0 43 -30 71 -86 71c-40 0 -82 -13 -117 -33l-52 -269
h-175z" />
    <glyph glyph-name="uni0452" unicode="&#x452;" horiz-adv-x="627" 
d="M44 522l22 115h59l15 78h173l-15 -78h163l-22 -115h-164l-19 -100c-5 -26 -12 -42 -12 -42h2c29 46 100 80 166 80c89 0 160 -39 160 -146c0 -17 -3 -36 -7 -57l-47 -250c-34 -183 -185 -215 -264 -215c-39 0 -66 3 -66 3l29 145s16 -2 36 -2c34 0 81 13 96 91l39 200
c2 12 3 23 3 30c0 31 -14 44 -45 44c-68 0 -126 -67 -140 -142l-32 -161h-173l101 522h-58z" />
    <glyph glyph-name="uni04BB" unicode="&#x4bb;" horiz-adv-x="627" 
d="M1 0l139 715h173l-44 -226c-5 -26 -10 -44 -10 -44h2c29 46 97 82 163 82c89 0 162 -39 162 -146c0 -17 -3 -36 -7 -57l-63 -324h-173l58 296c2 12 3 23 3 30c0 31 -15 44 -46 44c-68 0 -126 -67 -140 -142l-44 -228h-173z" />
    <glyph glyph-name="uni045B" unicode="&#x45b;" horiz-adv-x="628" 
d="M43 522l23 115h59l15 78h173l-16 -78h164l-23 -115h-163l-19 -98c-5 -26 -10 -44 -10 -44h2c29 46 97 82 163 82c89 0 162 -39 162 -146c0 -17 -3 -36 -7 -57l-50 -259h-173l45 231c2 12 3 23 3 30c0 31 -15 44 -46 44c-68 0 -126 -67 -140 -142l-31 -163h-173l101 522
h-59z" />
    <glyph glyph-name="uni0459" unicode="&#x459;" horiz-adv-x="825" 
d="M-36 -5l28 151c50 6 105 25 138 194l34 175h401l-35 -177h75c128 0 180 -59 180 -149c0 -125 -102 -189 -236 -189h-258l73 378h-65l-6 -31c-45 -233 -127 -357 -329 -352zM486 113h56c37 0 78 22 78 64c0 28 -18 47 -59 47h-53z" />
    <glyph glyph-name="uni045A" unicode="&#x45a;" horiz-adv-x="871" 
d="M0 0l101 515h173l-34 -175h165l34 175h173l-35 -177h75c128 0 180 -59 180 -149c0 -125 -102 -189 -236 -189h-258l41 207h-165l-41 -207h-173zM533 113h56c37 0 78 22 78 64c0 28 -18 47 -59 47h-53z" />
    <glyph glyph-name="uni0463" unicode="&#x463;" horiz-adv-x="596" 
d="M57 0l89 456h-122l23 121h121l27 138h173l-27 -138h161l-23 -121h-160l-20 -102h85c127 0 178 -62 178 -154c0 -123 -97 -200 -237 -200h-268zM252 113h58c43 0 79 33 79 80c0 28 -20 49 -57 49h-55z" />
    <glyph glyph-name="uni048D" unicode="&#x48d;" horiz-adv-x="596" 
d="M57 0l89 456h-122l23 121h121l27 138h173l-27 -138h161l-23 -121h-160l-20 -102h85c127 0 178 -62 178 -154c0 -123 -97 -200 -237 -200h-268zM252 113h58c43 0 79 33 79 80c0 28 -20 49 -57 49h-55z" />
    <glyph glyph-name="uni04A4" unicode="&#x4a4;" horiz-adv-x="961" 
d="M18 0l139 715h175l-56 -286h260l56 286h438l-29 -150h-263l-110 -565h-175l54 280h-260l-54 -280h-175z" />
    <glyph glyph-name="uni04A0" unicode="&#x4a0;" horiz-adv-x="804" 
d="M140 0l110 565h-184l29 150h359l-54 -276h67l205 276h203l-271 -351v-2l130 -362h-186l-95 290h-82l-56 -290h-175z" />
    <glyph glyph-name="uni04B4" unicode="&#x4b4;" horiz-adv-x="933" 
d="M141 0l109 565h-185l30 150h545l-30 -150h-185l-80 -416h264l110 566h175l-110 -566h98l-57 -289h-155l28 140h-557z" />
    <glyph glyph-name="uni0495" unicode="&#x495;" horiz-adv-x="544" 
d="M1 0l100 515h381l-26 -136h-208l-19 -96c20 8 51 16 87 16c106 0 173 -67 173 -183c0 -136 -86 -252 -218 -326l-76 120c73 39 129 117 129 186c0 40 -22 67 -69 67c-21 0 -36 -6 -51 -13l-30 -150h-173z" />
    <glyph glyph-name="uni04C8" unicode="&#x4c8;" horiz-adv-x="622" 
d="M1 0l100 515h173l-35 -182h159l35 182h173l-90 -462c-25 -132 -93 -201 -216 -263l-75 121c63 35 102 54 121 156l23 121h-159l-36 -188h-173z" />
    <glyph glyph-name="uni04C4" unicode="&#x4c4;" horiz-adv-x="596" 
d="M1 0l100 515h173l-35 -181c30 0 41 -1 52 -2l124 183h201l-179 -235c56 -43 84 -108 84 -179c0 -136 -101 -252 -222 -311l-69 118c73 35 128 111 128 186c0 52 -26 95 -103 95h-44l-37 -189h-173z" />
    <glyph glyph-name="uni04A1" unicode="&#x4a1;" horiz-adv-x="668" 
d="M77 0l72 370h-129l28 145h303l-36 -181h52l125 181h198l-199 -266v-2l119 -247h-187l-82 189h-54l-37 -189h-173z" />
    <glyph glyph-name="uni04A5" unicode="&#x4a5;" horiz-adv-x="762" 
d="M0 0l101 515h173l-36 -182h159l36 182h355l-29 -145h-182l-72 -370h-173l37 188h-159l-37 -188h-173z" />
    <glyph glyph-name="uni04B5" unicode="&#x4b5;" horiz-adv-x="764" 
d="M74 0l72 370h-114l28 145h402l-28 -145h-115l-44 -225h186l72 370h173l-72 -370h82l-51 -264h-154l23 119h-460z" />
    <glyph glyph-name="uni0401" unicode="&#x401;" horiz-adv-x="577" 
d="M18 0l140 715h447l-29 -150h-273l-25 -130h217l-30 -150h-217l-26 -135h287l-29 -150h-462zM438 771l28 140h126l-28 -140h-126zM229 771l28 140h126l-28 -140h-126z" />
    <glyph glyph-name="uni0407" unicode="&#x407;" horiz-adv-x="327" 
d="M18 0l139 715h175l-139 -715h-175zM298 771l28 140h126l-28 -140h-126zM89 771l28 140h126l-28 -140h-126z" />
    <glyph glyph-name="uni04D2" unicode="&#x4d2;" horiz-adv-x="668" 
d="M-57 0l372 715h201l99 -715h-175l-15 150h-223l-72 -150h-187zM270 290h141l-14 139c-4 45 -6 123 -6 123h-2s-29 -78 -51 -123zM469 771l28 140h126l-28 -140h-126zM260 771l28 140h126l-28 -140h-126z" />
    <glyph glyph-name="uni04DA" unicode="&#x4da;" horiz-adv-x="733" 
d="M37 254c0 53 13 109 31 161h461c0 16 -2 32 -6 46c-16 62 -67 106 -146 106c-84 0 -167 -43 -206 -73l-67 137c24 20 147 96 296 96c210 0 310 -152 310 -320c0 -211 -158 -419 -393 -419c-179 0 -280 120 -280 266zM207 246c0 -63 38 -105 117 -105c95 0 160 61 179 141
h-292c-3 -13 -4 -25 -4 -36zM483 771l28 140h126l-28 -140h-126zM274 771l28 140h126l-28 -140h-126z" />
    <glyph glyph-name="uni04DC" unicode="&#x4dc;" horiz-adv-x="1018" 
d="M639 771l28 140h126l-28 -140h-126zM430 771l28 140h126l-28 -140h-126zM-46 0l271 387v2l-132 326h178l109 -276h67l54 276h175l-54 -276h67l177 276h208l-247 -357v-2l119 -356h-180l-90 290h-83l-56 -290h-175l56 290h-67l-192 -290h-205z" />
    <glyph glyph-name="uni04DE" unicode="&#x4de;" horiz-adv-x="572" 
d="M409 771l28 140h126l-28 -140h-126zM200 771l28 140h126l-28 -140h-126zM-18 97l100 112c36 -43 91 -68 142 -68c58 0 115 32 115 93c0 35 -21 54 -73 54h-103l27 140h87c49 0 99 35 99 88c0 36 -19 59 -70 59c-36 0 -83 -11 -151 -59l-62 127c85 67 179 84 242 84
c124 0 226 -59 226 -179c0 -81 -51 -148 -127 -179l-1 -2c49 -23 85 -74 85 -140c0 -148 -149 -239 -293 -239c-97 0 -190 41 -243 109z" />
    <glyph glyph-name="uni04E4" unicode="&#x4e4;" horiz-adv-x="756" 
d="M512 771l28 140h126l-28 -140h-126zM303 771l28 140h126l-28 -140h-126zM18 0l139 715h175l-65 -334c-9 -45 -32 -122 -32 -122h2s47 75 84 122l263 334h177l-139 -715h-175l65 333c8 45 31 122 31 122h-2s-46 -75 -83 -122l-264 -333h-176z" />
    <glyph glyph-name="uni04E6" unicode="&#x4e6;" horiz-adv-x="820" 
d="M44 307c0 227 200 420 419 420c204 0 337 -131 337 -312c0 -231 -204 -427 -420 -427c-205 0 -336 134 -336 319zM224 317c0 -101 65 -169 158 -169c117 0 237 112 237 256c0 98 -65 163 -158 163c-120 0 -237 -110 -237 -250zM542 771l28 140h126l-28 -140h-126z
M333 771l28 140h126l-28 -140h-126z" />
    <glyph glyph-name="uni04EA" unicode="&#x4ea;" horiz-adv-x="820" 
d="M44 307c0 227 200 420 419 420c204 0 337 -131 337 -312c0 -231 -204 -427 -420 -427c-205 0 -336 134 -336 319zM461 572c-90 0 -178 -60 -219 -148h381c-9 89 -73 148 -162 148zM382 143c86 0 174 60 216 149h-378c10 -90 74 -149 162 -149zM542 771l28 140h126
l-28 -140h-126zM333 771l28 140h126l-28 -140h-126z" />
    <glyph glyph-name="uni04EC" unicode="&#x4ec;" horiz-adv-x="719" 
d="M196 288l27 140h296c-7 101 -73 141 -160 141c-72 0 -133 -25 -201 -78l-74 130c76 60 156 106 283 106c221 0 333 -138 333 -309c0 -225 -192 -430 -436 -430c-99 0 -204 35 -277 110l96 120c45 -46 114 -72 183 -72c109 0 188 60 227 142h-297zM247 771l28 140h126
l-28 -140h-126zM456 771l28 140h126l-28 -140h-126z" />
    <glyph glyph-name="uni04F0" unicode="&#x4f0;" horiz-adv-x="630" 
d="M454 771l28 140h126l-28 -140h-126zM245 771l28 140h126l-28 -140h-126zM4 42l85 125c17 -16 48 -30 83 -30c28 0 51 16 66 40l-171 538h180l71 -257c14 -51 22 -97 22 -97h2s18 46 45 96l135 258h195l-311 -536c-52 -91 -120 -191 -240 -191c-67 0 -117 19 -162 54z" />
    <glyph glyph-name="uni04F4" unicode="&#x4f4;" horiz-adv-x="689" 
d="M465 771l28 140h126l-28 -140h-126zM256 771l28 140h126l-28 -140h-126zM270 253c-132 0 -206 64 -206 171c0 21 3 43 8 68l43 223h179l-38 -197c-3 -13 -4 -26 -4 -36c0 -45 22 -70 79 -70c52 0 105 21 133 38l51 265h179l-139 -715h-179l49 254c2 12 9 32 9 32h-2
c-40 -15 -92 -33 -162 -33z" />
    <glyph glyph-name="uni04F8" unicode="&#x4f8;" horiz-adv-x="927" 
d="M597 771l28 140h126l-28 -140h-126zM388 771l28 140h126l-28 -140h-126zM618 0l139 715h175l-139 -715h-175zM18 0l139 715h175l-43 -221h107c122 0 196 -85 196 -210c0 -142 -114 -284 -282 -284h-292zM222 150h79c67 0 112 57 112 123c0 42 -26 71 -77 71h-76z" />
    <glyph glyph-name="uni0451" unicode="&#x451;" horiz-adv-x="566" 
d="M19 213c0 179 127 314 297 314c146 0 220 -83 220 -202c0 -35 -8 -67 -19 -101h-325v-6c0 -51 37 -86 101 -86c53 0 109 24 153 52l44 -129c-40 -31 -129 -67 -208 -67c-176 0 -263 104 -263 225zM180 575l28 140h126l-28 -140h-126zM389 575l28 140h126l-28 -140h-126z
M215 323h152c1 6 1 10 1 18c0 35 -20 59 -55 59c-50 0 -82 -33 -98 -77z" />
    <glyph glyph-name="uni0457" unicode="&#x457;" horiz-adv-x="289" 
d="M1 0l99 515h173l-100 -515h-172zM241 575l28 140h126l-28 -140h-126zM32 575l28 140h126l-28 -140h-126z" />
    <glyph glyph-name="uni04D3" unicode="&#x4d3;" horiz-adv-x="547" 
d="M-8 124c0 152 195 197 327 197h8c2 9 3 13 3 21c0 30 -24 45 -66 45c-52 0 -103 -24 -149 -47l-37 130c35 20 132 57 220 57c87 0 204 -34 204 -164c0 -15 -2 -32 -5 -50l-60 -313h-158l6 31c3 17 9 32 9 32h-2c-22 -28 -76 -75 -152 -75c-77 0 -148 49 -148 136z
M161 153c0 -19 10 -36 43 -36c45 0 94 47 102 89l3 16h-18c-37 0 -130 -8 -130 -69zM364 575l28 140h126l-28 -140h-126zM155 575l28 140h126l-28 -140h-126z" />
    <glyph glyph-name="uni04DB" unicode="&#x4db;" horiz-adv-x="572" 
d="M362 575l28 140h126l-28 -140h-126zM153 575l28 140h126l-28 -140h-126zM19 186c0 38 8 79 21 114h323s1 4 1 12c0 53 -44 79 -105 79c-82 0 -158 -46 -158 -46l-45 125s94 57 221 57c160 0 259 -90 259 -235c0 -162 -123 -304 -302 -304c-137 0 -215 83 -215 198z
M177 181c0 -38 24 -63 65 -63c50 0 96 39 111 87h-173c-1 -5 -3 -17 -3 -24z" />
    <glyph glyph-name="uni04DD" unicode="&#x4dd;" horiz-adv-x="828" 
d="M504 575l28 140h126l-28 -140h-126zM295 575l28 140h126l-28 -140h-126zM-46 0l186 274v2l-79 239h168l58 -183h47l36 183h161l-36 -183h45l125 183h187l-189 -264v-1l96 -250h-177l-62 187h-53l-37 -187h-161l37 187h-48l-118 -187h-186z" />
    <glyph glyph-name="uni04DF" unicode="&#x4df;" horiz-adv-x="473" 
d="M316 575l28 140h126l-28 -140h-126zM107 575l28 140h126l-28 -140h-126zM-26 61l75 108c31 -27 77 -51 121 -51c33 0 72 16 72 56c0 20 -10 32 -49 32h-63l23 114h52c30 0 66 15 66 49c0 19 -12 32 -52 32c-28 0 -67 -7 -125 -39l-41 109c50 33 127 56 206 56
c116 0 184 -56 184 -135c0 -60 -38 -102 -91 -126v-2c29 -18 62 -50 62 -107c0 -112 -114 -169 -231 -169c-73 0 -153 25 -209 73z" />
    <glyph glyph-name="uni04E5" unicode="&#x4e5;" horiz-adv-x="619" 
d="M406 575l28 140h126l-28 -140h-126zM197 575l28 140h126l-28 -140h-126zM0 0l101 515h160l-43 -217c-4 -18 -13 -53 -13 -53h2s14 23 40 53l186 217h170l-101 -515h-160l42 215c5 27 13 54 13 54h-2s-16 -25 -40 -53l-185 -216h-170z" />
    <glyph glyph-name="uni04E7" unicode="&#x4e7;" horiz-adv-x="640" 
d="M18 219c0 181 160 308 321 308c155 0 267 -91 267 -231c0 -182 -161 -308 -321 -308c-155 0 -267 90 -267 231zM193 227c0 -60 40 -95 95 -95c69 0 143 59 143 153c0 61 -40 98 -94 98c-68 0 -144 -62 -144 -156zM413 575l28 140h126l-28 -140h-126zM204 575l28 140h126
l-28 -140h-126z" />
    <glyph glyph-name="uni04EB" unicode="&#x4eb;" horiz-adv-x="641" 
d="M19 224c0 174 157 303 329 303c141 0 259 -86 259 -236c0 -174 -157 -303 -329 -303c-141 0 -259 86 -259 236zM286 112c61 0 126 36 153 101h-264c6 -70 52 -101 111 -101zM341 403c-58 0 -122 -35 -151 -96h260c-9 65 -53 96 -109 96zM209 575l28 140h126l-28 -140
h-126zM418 575l28 140h126l-28 -140h-126z" />
    <glyph glyph-name="uni04ED" unicode="&#x4ed;" horiz-adv-x="551" 
d="M142 202l22 114h194c-11 62 -63 77 -110 77c-49 0 -100 -17 -138 -51l-60 114c53 47 142 71 217 71c170 0 251 -109 251 -231c0 -166 -148 -308 -335 -308c-68 0 -160 24 -208 75l70 111c34 -33 92 -52 141 -52c65 0 119 32 149 80h-193zM141 575l28 140h126l-28 -140
h-126zM350 575l28 140h126l-28 -140h-126z" />
    <glyph glyph-name="uni04F1" unicode="&#x4f1;" horiz-adv-x="565" 
d="M-6 -50c13 -10 34 -16 51 -16c30 0 66 8 93 52l15 24l-121 505h180l42 -255c5 -28 5 -76 5 -76h2s18 45 31 73l115 258h194l-322 -570c-64 -113 -153 -155 -225 -155c-46 0 -95 14 -135 40zM374 575l28 140h126l-28 -140h-126zM165 575l28 140h126l-28 -140h-126z" />
    <glyph glyph-name="uni04F5" unicode="&#x4f5;" horiz-adv-x="574" 
d="M368 575l28 140h126l-28 -140h-126zM159 575l28 140h126l-28 -140h-126zM196 162c-98 0 -164 46 -164 134c0 12 1 25 4 39l35 180h170l-25 -126c-3 -17 -6 -34 -6 -38c0 -30 20 -52 56 -52c34 0 62 13 81 25l38 191h173l-101 -515h-173l33 166c3 15 6 23 6 23h-2
c-31 -16 -84 -27 -125 -27z" />
    <glyph glyph-name="uni04F9" unicode="&#x4f9;" horiz-adv-x="804" 
d="M497 575l28 140h126l-28 -140h-126zM288 575l28 140h126l-28 -140h-126zM514 0l101 515h173l-101 -515h-173zM0 0l101 515h173l-32 -161h80c123 0 174 -62 174 -154c0 -123 -91 -200 -233 -200h-263zM195 113h48c40 0 77 33 77 78c0 30 -17 51 -55 51h-45z" />
    <glyph glyph-name="uni0472" unicode="&#x472;" horiz-adv-x="820" 
d="M44 307c0 227 200 420 419 420c204 0 337 -131 337 -312c0 -231 -204 -427 -420 -427c-205 0 -336 134 -336 319zM461 572c-90 0 -178 -60 -219 -148h381c-9 89 -73 148 -162 148zM382 143c86 0 174 60 216 149h-378c10 -90 74 -149 162 -149z" />
    <glyph glyph-name="uni04E8" unicode="&#x4e8;" horiz-adv-x="820" 
d="M44 307c0 227 200 420 419 420c204 0 337 -131 337 -312c0 -231 -204 -427 -420 -427c-205 0 -336 134 -336 319zM461 572c-90 0 -178 -60 -219 -148h381c-9 89 -73 148 -162 148zM382 143c86 0 174 60 216 149h-378c10 -90 74 -149 162 -149z" />
    <glyph glyph-name="uni0473" unicode="&#x473;" horiz-adv-x="641" 
d="M19 224c0 174 157 303 329 303c141 0 259 -86 259 -236c0 -174 -157 -303 -329 -303c-141 0 -259 86 -259 236zM286 112c61 0 126 36 153 101h-264c6 -70 52 -101 111 -101zM341 403c-58 0 -122 -35 -151 -96h260c-9 65 -53 96 -109 96z" />
    <glyph glyph-name="uni04E9" unicode="&#x4e9;" horiz-adv-x="641" 
d="M19 224c0 174 157 303 329 303c141 0 259 -86 259 -236c0 -174 -157 -303 -329 -303c-141 0 -259 86 -259 236zM286 112c61 0 126 36 153 101h-264c6 -70 52 -101 111 -101zM341 403c-58 0 -122 -35 -151 -96h260c-9 65 -53 96 -109 96z" />
    <glyph glyph-name="uni0496" unicode="&#x496;" horiz-adv-x="1070" 
d="M-46 0l271 387v2l-132 326h178l109 -276h67l54 276h175l-54 -276h67l177 276h208l-247 -357v-2l69 -207h131l-57 -289h-155l28 140h-77l-90 290h-83l-56 -290h-175l56 290h-67l-192 -290h-205z" />
    <glyph glyph-name="uni049A" unicode="&#x49a;" horiz-adv-x="724" 
d="M18 0l139 715h175l-54 -276h67l205 276h203l-271 -351v-2l76 -213h116l-57 -289h-155l28 140h-64l-95 290h-82l-56 -290h-175z" />
    <glyph glyph-name="uni04B2" unicode="&#x4b2;" horiz-adv-x="701" 
d="M-49 0l286 360l-149 355h191l52 -144c16 -45 28 -91 28 -91h2s25 45 59 91l105 144h204l-291 -364l87 -202h128l-57 -289h-155l28 140h-67l-56 147c-17 45 -28 88 -28 88h-2s-25 -43 -59 -88l-109 -147h-197z" />
    <glyph glyph-name="uni04F6" unicode="&#x4f6;" horiz-adv-x="531" 
d="M18 0l139 715h438l-29 -150h-263l-81 -416h115l-57 -289h-155l28 140h-135z" />
    <glyph glyph-name="uni04A2" unicode="&#x4a2;" horiz-adv-x="811" 
d="M18 0l139 715h175l-56 -286h260l56 286h175l-110 -566h114l-57 -289h-155l28 140h-134l54 280h-260l-54 -280h-175z" />
    <glyph glyph-name="uni04AC" unicode="&#x4ac;" horiz-adv-x="636" 
d="M168 0l110 565h-216l29 150h607l-29 -150h-216l-81 -416h115l-57 -289h-155l28 140h-135z" />
    <glyph glyph-name="uni04B6" unicode="&#x4b6;" horiz-adv-x="739" 
d="M270 253c-132 0 -206 64 -206 171c0 21 3 43 8 68l43 223h179l-38 -197c-3 -13 -4 -26 -4 -36c0 -45 22 -70 79 -70c52 0 105 21 133 38l51 265h179l-110 -566h115l-57 -289h-155l28 140h-139l49 254c2 12 9 32 9 32h-2c-40 -15 -92 -33 -162 -33z" />
    <glyph glyph-name="uni04CB" unicode="&#x4cb;" horiz-adv-x="689" 
d="M270 253c-132 0 -206 64 -206 171c0 21 3 43 8 68l43 223h179l-38 -197c-3 -13 -4 -26 -4 -36c0 -45 22 -70 79 -70c52 0 105 21 133 38l51 265h179l-139 -715h-138l-28 -140h-155l57 289h113l21 105c2 12 9 32 9 32h-2c-40 -15 -92 -33 -162 -33z" />
    <glyph glyph-name="uni0497" unicode="&#x497;" horiz-adv-x="881" 
d="M-46 0l186 274v2l-79 239h168l58 -183h47l36 183h161l-36 -183h45l125 183h187l-189 -264v-1l40 -105h129l-51 -265h-153l23 120h-69l-62 187h-53l-37 -187h-161l37 187h-48l-118 -187h-186z" />
    <glyph glyph-name="uni049B" unicode="&#x49b;" horiz-adv-x="642" 
d="M0 0l101 515h173l-36 -181h52l125 181h198l-199 -266v-2l49 -102h130l-51 -265h-153l23 120h-66l-82 189h-54l-37 -189h-173z" />
    <glyph glyph-name="uni04B3" unicode="&#x4b3;" horiz-adv-x="590" 
d="M-47 0l216 260l-122 255h182l42 -110c5 -13 11 -38 11 -38h2s13 25 22 38l78 110h200l-220 -265l50 -105h123l-51 -265h-153l23 120h-51l-46 111c-3 9 -9 30 -9 30h-2s-11 -21 -18 -30l-80 -111h-197z" />
    <glyph glyph-name="uni04F7" unicode="&#x4f7;" horiz-adv-x="443" 
d="M0 0l101 515h363l-29 -145h-190l-44 -225h99l-51 -265h-153l23 120h-119z" />
    <glyph glyph-name="uni04A3" unicode="&#x4a3;" horiz-adv-x="678" 
d="M0 0l101 515h173l-36 -182h159l36 182h173l-73 -370h99l-51 -265h-153l23 120h-119l37 188h-159l-37 -188h-173z" />
    <glyph glyph-name="uni04AD" unicode="&#x4ad;" horiz-adv-x="525" 
d="M113 0l72 370h-156l29 145h486l-29 -145h-157l-44 -225h98l-51 -265h-153l23 120h-118z" />
    <glyph glyph-name="uni04B7" unicode="&#x4b7;" horiz-adv-x="628" 
d="M196 162c-98 0 -164 46 -164 134c0 12 1 25 4 39l35 180h170l-25 -126c-3 -17 -6 -34 -6 -38c0 -30 20 -52 56 -52c34 0 62 13 81 25l38 191h173l-73 -370h97l-51 -265h-153l23 120h-117l33 166c3 15 6 23 6 23h-2c-31 -16 -84 -27 -125 -27z" />
    <glyph glyph-name="uni04CC" unicode="&#x4cc;" horiz-adv-x="571" 
d="M161 -120l44 225h97l16 81c3 15 6 23 6 23h-1c-31 -16 -85 -27 -126 -27c-98 0 -164 46 -164 134c0 12 1 25 4 39l31 160h170l-21 -106c-3 -17 -6 -34 -6 -38c0 -30 20 -52 56 -52c34 0 62 13 81 25l34 171h173l-100 -515h-118l-23 -120h-153z" />
    <glyph glyph-name="uni048A" unicode="&#x48a;" horiz-adv-x="822" 
d="M18 0l139 715h175l-65 -334c-9 -45 -32 -122 -32 -122h2s47 75 84 122l263 334h177l-110 -565h137l-18 -91l-128 -199h-117l61 140h-139l65 333c8 45 31 122 31 122h-2s-46 -75 -83 -122l-264 -333h-176zM469 747c-106 0 -174 53 -174 126c0 9 1 19 5 38h130
c-2 -7 -3 -15 -3 -22c0 -26 16 -49 51 -49c34 0 67 18 75 71h126c-18 -119 -113 -164 -210 -164z" />
    <glyph glyph-name="uni04C5" unicode="&#x4c5;" horiz-adv-x="781" 
d="M405 0l110 565h-139l-17 -87c-69 -352 -195 -486 -403 -486l31 159c86 11 157 77 206 329l46 235h480l-110 -565h138l-18 -91l-128 -199h-117l61 140h-140z" />
    <glyph glyph-name="uni04C9" unicode="&#x4c9;" horiz-adv-x="828" 
d="M18 0l139 715h175l-56 -286h260l56 286h175l-110 -565h137l-18 -91l-128 -199h-117l61 140h-139l54 280h-260l-54 -280h-175z" />
    <glyph glyph-name="uni04CD" unicode="&#x4cd;" horiz-adv-x="948" 
d="M-7 0l191 715h191l47 -302c7 -46 12 -118 12 -118h2s35 71 60 118l163 302h192l-64 -565h133l-18 -91l-128 -199h-117l61 140h-120l41 322c7 54 23 120 23 120h-2s-38 -76 -63 -120l-116 -207h-152l-36 207c-8 45 -15 122 -15 122h-2s-9 -68 -23 -122l-84 -322h-176z" />
    <glyph glyph-name="uni048B" unicode="&#x48b;" horiz-adv-x="696" 
d="M0 0l101 515h160l-43 -217c-4 -18 -13 -53 -13 -53h2s14 23 40 53l186 217h170l-73 -370h125l-16 -86l-114 -179h-111l51 120h-123l42 215c5 27 13 54 13 54h-2s-16 -25 -40 -53l-185 -216h-170zM361 551c-106 0 -174 53 -174 126c0 9 1 19 5 38h130c-2 -7 -3 -15 -3 -22
c0 -26 16 -49 51 -49c34 0 67 18 75 71h126c-18 -119 -113 -164 -210 -164z" />
    <glyph glyph-name="uni04C6" unicode="&#x4c6;" horiz-adv-x="666" 
d="M-38 -5l29 151c46 6 103 32 136 204l32 165h422l-72 -370h115l-16 -86l-114 -179h-111l51 120h-126l73 378h-86l-5 -29c-41 -210 -124 -354 -328 -354z" />
    <glyph glyph-name="uni04CA" unicode="&#x4ca;" horiz-adv-x="701" 
d="M0 0l101 515h173l-36 -182h159l36 182h173l-73 -370h127l-16 -86l-114 -179h-111l51 120h-138l37 188h-159l-37 -188h-173z" />
    <glyph glyph-name="uni04CE" unicode="&#x4ce;" horiz-adv-x="840" 
d="M-22 0l149 515h196l36 -226c4 -26 6 -62 6 -62h2s16 36 30 62l124 226h199l-38 -370h121l-16 -86l-114 -179h-111l51 120h-109l35 237c6 40 16 88 16 88h-2s-22 -44 -41 -76l-103 -180h-140l-33 180c-6 33 -13 78 -13 78h-2s-9 -50 -18 -90l-59 -237h-166z" />
    <glyph glyph-name="uni0498" unicode="&#x498;" horiz-adv-x="573" 
d="M-18 97l100 112c36 -43 91 -68 142 -68c58 0 115 32 115 93c0 35 -21 54 -73 54h-103l27 140h87c49 0 99 35 99 88c0 36 -19 59 -70 59c-36 0 -83 -11 -151 -59l-62 127c85 67 179 84 242 84c124 0 226 -59 226 -179c0 -81 -51 -148 -127 -179l-1 -2
c49 -23 85 -74 85 -140c0 -119 -96 -202 -209 -229l-27 -138h-155l27 136c-70 14 -132 50 -172 101z" />
    <glyph glyph-name="uni04AA" unicode="&#x4aa;" horiz-adv-x="717" 
d="M45 305c0 230 190 422 420 422c97 0 207 -29 276 -103l-99 -120c-42 36 -107 63 -171 63c-159 0 -245 -137 -245 -250c0 -92 53 -169 166 -169c77 0 150 38 209 85l68 -139c-59 -53 -155 -94 -249 -104l-26 -130h-155l28 143c-140 39 -222 153 -222 302z" />
    <glyph glyph-name="uni04BE" unicode="&#x4be;" horiz-adv-x="917" 
d="M58 481c0 46 12 94 46 167h160c-34 -63 -49 -106 -49 -143c0 -32 10 -56 42 -61c56 155 197 283 383 283c173 0 263 -110 263 -263c0 -54 -11 -105 -29 -154h-461c0 -91 54 -162 159 -162c80 0 159 42 197 73l69 -138c-23 -18 -118 -85 -256 -94l-25 -129h-155l28 146
c-127 41 -199 151 -199 291v14c-93 2 -173 51 -173 170zM439 443h292c2 11 3 21 3 31c0 59 -41 100 -114 100c-99 0 -166 -77 -181 -131z" />
    <glyph glyph-name="uni0499" unicode="&#x499;" horiz-adv-x="474" 
d="M-26 61l75 108c31 -27 77 -51 121 -51c33 0 72 16 72 56c0 20 -10 32 -49 32h-63l23 114h52c30 0 66 15 66 49c0 19 -12 32 -52 32c-28 0 -67 -7 -125 -39l-41 109c50 33 127 56 206 56c116 0 184 -56 184 -135c0 -60 -38 -102 -91 -126v-2c29 -18 62 -50 62 -107
c0 -88 -71 -143 -158 -161l-22 -116h-150l22 117c-48 10 -95 32 -132 64z" />
    <glyph glyph-name="uni04AB" unicode="&#x4ab;" horiz-adv-x="556" 
d="M20 224c0 147 126 303 322 303c75 0 155 -21 210 -76l-87 -108c-28 24 -77 40 -115 40c-97 0 -155 -81 -155 -149c0 -53 32 -102 106 -102c54 0 109 30 154 62l44 -131c-42 -35 -110 -63 -178 -72l-21 -111h-150l24 123c-102 34 -154 120 -154 221z" />
    <glyph glyph-name="uni04BF" unicode="&#x4bf;" horiz-adv-x="720" 
d="M32 365c0 41 12 77 30 111h134c-15 -27 -33 -60 -33 -97c0 -27 9 -41 28 -46c42 111 146 194 283 194c138 0 215 -83 215 -200c0 -38 -8 -69 -19 -103h-325v-6c0 -51 37 -86 101 -86c53 0 109 24 153 52l44 -129c-35 -26 -100 -58 -182 -65l-21 -110h-150l24 127
c-85 32 -142 106 -142 217v2c-91 5 -140 55 -140 139zM368 323h152c1 6 1 10 1 18c0 35 -19 59 -58 59c-43 0 -78 -30 -95 -77z" />
    <glyph glyph-name="uni040F" unicode="&#x40f;" horiz-adv-x="750" 
d="M18 0l139 715h175l-110 -566h248l110 566h175l-139 -715h-221l-28 -140h-155l28 140h-222z" />
    <glyph glyph-name="uni045F" unicode="&#x45f;" horiz-adv-x="609" 
d="M1 0l100 515h173l-72 -370h146l72 370h173l-100 -515h-169l-23 -120h-154l23 120h-169z" />
    <glyph glyph-name="uni040E" unicode="&#x40e;" horiz-adv-x="630" 
d="M4 42l85 125c17 -16 48 -30 83 -30c28 0 51 16 66 40l-171 538h180l71 -257c14 -51 22 -97 22 -97h2s18 46 45 96l135 258h195l-311 -536c-52 -91 -120 -191 -240 -191c-67 0 -117 19 -162 54zM415 747c-106 0 -174 53 -174 126c0 9 1 19 5 38h130c-2 -7 -3 -15 -3 -22
c0 -26 16 -49 51 -49c34 0 67 18 75 71h126c-18 -119 -113 -164 -210 -164z" />
    <glyph glyph-name="uni04C1" unicode="&#x4c1;" horiz-adv-x="1018" 
d="M-46 0l271 387v2l-132 326h178l109 -276h67l54 276h175l-54 -276h67l177 276h208l-247 -357v-2l119 -356h-180l-90 290h-83l-56 -290h-175l56 290h-67l-192 -290h-205zM602 747c-106 0 -174 53 -174 126c0 9 1 19 5 38h130c-2 -7 -3 -15 -3 -22c0 -26 16 -49 51 -49
c34 0 67 18 75 71h126c-18 -119 -113 -164 -210 -164z" />
    <glyph glyph-name="uni04D0" unicode="&#x4d0;" horiz-adv-x="668" 
d="M-57 0l372 715h201l99 -715h-175l-15 150h-223l-72 -150h-187zM270 290h141l-14 139c-4 45 -6 123 -6 123h-2s-29 -78 -51 -123zM431 747c-106 0 -174 53 -174 126c0 9 1 19 5 38h130c-2 -7 -3 -15 -3 -22c0 -26 16 -49 51 -49c34 0 67 18 75 71h126
c-18 -119 -113 -164 -210 -164z" />
    <glyph glyph-name="uni04D6" unicode="&#x4d6;" horiz-adv-x="577" 
d="M18 0l140 715h447l-29 -150h-273l-25 -130h217l-30 -150h-217l-26 -135h287l-29 -150h-462zM400 747c-106 0 -174 53 -174 126c0 9 1 19 5 38h130c-2 -7 -3 -15 -3 -22c0 -26 16 -49 51 -49c34 0 67 18 75 71h126c-18 -119 -113 -164 -210 -164z" />
    <glyph glyph-name="uni045E" unicode="&#x45e;" horiz-adv-x="565" 
d="M-6 -50c13 -10 34 -16 51 -16c30 0 66 8 93 52l15 24l-121 505h180l42 -255c5 -28 5 -76 5 -76h2s18 45 31 73l115 258h194l-322 -570c-64 -113 -153 -155 -225 -155c-46 0 -95 14 -135 40zM340 551c-106 0 -174 53 -174 126c0 9 1 19 5 38h130c-2 -7 -3 -15 -3 -22
c0 -26 16 -49 51 -49c34 0 67 18 75 71h126c-18 -119 -113 -164 -210 -164z" />
    <glyph glyph-name="uni04C2" unicode="&#x4c2;" horiz-adv-x="828" 
d="M-46 0l186 274v2l-79 239h168l58 -183h47l36 183h161l-36 -183h45l125 183h187l-189 -264v-1l96 -250h-177l-62 187h-53l-37 -187h-161l37 187h-48l-118 -187h-186zM467 551c-106 0 -174 53 -174 126c0 9 1 19 5 38h130c-2 -7 -3 -15 -3 -22c0 -26 16 -49 51 -49
c34 0 67 18 75 71h126c-18 -119 -113 -164 -210 -164z" />
    <glyph glyph-name="uni04D1" unicode="&#x4d1;" horiz-adv-x="547" 
d="M-8 124c0 152 195 197 327 197h8c2 9 3 13 3 21c0 30 -24 45 -66 45c-52 0 -103 -24 -149 -47l-37 130c35 20 132 57 220 57c87 0 204 -34 204 -164c0 -15 -2 -32 -5 -50l-60 -313h-158l6 31c3 17 9 32 9 32h-2c-22 -28 -76 -75 -152 -75c-77 0 -148 49 -148 136z
M161 153c0 -19 10 -36 43 -36c45 0 94 47 102 89l3 16h-18c-37 0 -130 -8 -130 -69zM340 551c-106 0 -174 53 -174 126c0 9 1 19 5 38h130c-2 -7 -3 -15 -3 -22c0 -26 16 -49 51 -49c34 0 67 18 75 71h126c-18 -119 -113 -164 -210 -164z" />
    <glyph glyph-name="uni04D7" unicode="&#x4d7;" horiz-adv-x="566" 
d="M19 213c0 179 127 314 297 314c146 0 220 -83 220 -202c0 -35 -8 -67 -19 -101h-325v-6c0 -51 37 -86 101 -86c53 0 109 24 153 52l44 -129c-40 -31 -129 -67 -208 -67c-176 0 -263 104 -263 225zM352 551c-106 0 -174 53 -174 126c0 9 1 19 5 38h130
c-2 -7 -3 -15 -3 -22c0 -26 16 -49 51 -49c34 0 67 18 75 71h126c-18 -119 -113 -164 -210 -164zM215 323h152c1 6 1 10 1 18c0 35 -20 59 -55 59c-50 0 -82 -33 -98 -77z" />
    <glyph glyph-name="uni0400" unicode="&#x400;" horiz-adv-x="577" 
d="M18 0l140 715h447l-29 -150h-273l-25 -130h217l-30 -150h-217l-26 -135h287l-29 -150h-462zM354 761l-88 150h165l51 -150h-128z" />
    <glyph glyph-name="uni040D" unicode="&#x40d;" horiz-adv-x="756" 
d="M18 0l139 715h175l-65 -334c-9 -45 -32 -122 -32 -122h2s47 75 84 122l263 334h177l-139 -715h-175l65 333c8 45 31 122 31 122h-2s-46 -75 -83 -122l-264 -333h-176zM415 761l-88 150h165l51 -150h-128z" />
    <glyph glyph-name="uni0450" unicode="&#x450;" horiz-adv-x="566" 
d="M19 213c0 179 127 314 297 314c146 0 220 -83 220 -202c0 -35 -8 -67 -19 -101h-325v-6c0 -51 37 -86 101 -86c53 0 109 24 153 52l44 -129c-40 -31 -129 -67 -208 -67c-176 0 -263 104 -263 225zM296 565l-88 150h165l51 -150h-128zM215 323h152c1 6 1 10 1 18
c0 35 -20 59 -55 59c-50 0 -82 -33 -98 -77z" />
    <glyph glyph-name="uni045D" unicode="&#x45d;" horiz-adv-x="619" 
d="M312 565l-88 150h165l51 -150h-128zM0 0l101 515h160l-43 -217c-4 -18 -13 -53 -13 -53h2s14 23 40 53l186 217h170l-101 -515h-160l42 215c5 27 13 54 13 54h-2s-16 -25 -40 -53l-185 -216h-170z" />
    <glyph glyph-name="uni0403" unicode="&#x403;" horiz-adv-x="526" 
d="M18 0l139 715h438l-29 -150h-263l-110 -565h-175zM284 761l111 150h177l-148 -150h-140z" />
    <glyph glyph-name="uni040C" unicode="&#x40c;" horiz-adv-x="682" 
d="M372 761l111 150h177l-148 -150h-140zM18 0l139 715h175l-54 -276h67l205 276h203l-271 -351v-2l130 -362h-186l-95 290h-82l-56 -290h-175z" />
    <glyph glyph-name="uni04F2" unicode="&#x4f2;" horiz-adv-x="630" 
d="M4 42l85 125c17 -16 48 -30 83 -30c28 0 51 16 66 40l-171 538h180l71 -257c14 -51 22 -97 22 -97h2s18 46 45 96l135 258h195l-311 -536c-52 -91 -120 -191 -240 -191c-67 0 -117 19 -162 54zM439 761l111 150h169l-148 -150h-132zM231 761l106 150h145l-109 -150h-142z
" />
    <glyph glyph-name="uni04E2" unicode="&#x4e2;" horiz-adv-x="756" 
d="M352 783l22 112h275l-22 -112h-275zM18 0l139 715h175l-65 -334c-9 -45 -32 -122 -32 -122h2s47 75 84 122l263 334h177l-139 -715h-175l65 333c8 45 31 122 31 122h-2s-46 -75 -83 -122l-264 -333h-176z" />
    <glyph glyph-name="uni04EE" unicode="&#x4ee;" horiz-adv-x="630" 
d="M271 782l22 112h275l-22 -112h-275zM4 42l85 125c17 -16 48 -30 83 -30c28 0 51 16 66 40l-171 538h180l71 -257c14 -51 22 -97 22 -97h2s18 46 45 96l135 258h195l-311 -536c-52 -91 -120 -191 -240 -191c-67 0 -117 19 -162 54z" />
    <glyph glyph-name="uni0453" unicode="&#x453;" horiz-adv-x="438" 
d="M0 0l101 515h363l-29 -145h-190l-72 -370h-173zM196 565l111 150h177l-148 -150h-140z" />
    <glyph glyph-name="uni045C" unicode="&#x45c;" horiz-adv-x="591" 
d="M0 0l101 515h173l-36 -181h52l125 181h198l-199 -266v-2l119 -247h-187l-82 189h-54l-37 -189h-173zM272 565l111 150h177l-148 -150h-140z" />
    <glyph glyph-name="uni04F3" unicode="&#x4f3;" horiz-adv-x="565" 
d="M-6 -50c13 -10 34 -16 51 -16c30 0 66 8 93 52l15 24l-121 505h180l42 -255c5 -28 5 -76 5 -76h2s18 45 31 73l115 258h194l-322 -570c-64 -113 -153 -155 -225 -155c-46 0 -95 14 -135 40zM357 565l111 150h169l-148 -150h-132zM149 565l106 150h145l-109 -150h-142z
" />
    <glyph glyph-name="uni04E3" unicode="&#x4e3;" horiz-adv-x="619" 
d="M234 586l22 112h275l-22 -112h-275zM0 0l101 515h160l-43 -217c-4 -18 -13 -53 -13 -53h2s14 23 40 53l186 217h170l-101 -515h-160l42 215c5 27 13 54 13 54h-2s-16 -25 -40 -53l-185 -216h-170z" />
    <glyph glyph-name="uni04EF" unicode="&#x4ef;" horiz-adv-x="565" 
d="M-6 -50c13 -10 34 -16 51 -16c30 0 66 8 93 52l15 24l-121 505h180l42 -255c5 -28 5 -76 5 -76h2s18 45 31 73l115 258h194l-322 -570c-64 -113 -153 -155 -225 -155c-46 0 -95 14 -135 40zM202 586l22 112h275l-22 -112h-275z" />
    <glyph glyph-name="uni0405" unicode="&#x405;" horiz-adv-x="580" 
d="M-7 90l104 124c40 -38 107 -65 169 -65c34 0 86 15 86 63c0 75 -267 94 -267 292c0 141 133 223 266 223c89 0 180 -24 244 -83l-94 -129c-33 27 -95 51 -153 51c-35 0 -88 -18 -88 -62c0 -79 269 -91 269 -292c0 -123 -112 -224 -266 -224c-95 0 -207 32 -270 102z" />
    <glyph glyph-name="uni0406" unicode="&#x406;" horiz-adv-x="327" 
d="M18 0l139 715h175l-139 -715h-175z" />
    <glyph glyph-name="uni0408" unicode="&#x408;" horiz-adv-x="563" 
d="M-3 178c0 15 1 33 5 52l8 42h175l-7 -37c-2 -12 -4 -24 -4 -33c0 -40 23 -54 53 -54c37 0 66 23 76 75l67 342h-191l29 150h366l-98 -505c-29 -151 -137 -222 -253 -222c-118 0 -226 64 -226 190z" />
    <glyph glyph-name="uni04C0" unicode="&#x4c0;" horiz-adv-x="327" 
d="M18 0l139 715h175l-139 -715h-175z" />
    <glyph glyph-name="uni04D4" unicode="&#x4d4;" horiz-adv-x="963" 
d="M-66 0l432 715h626l-29 -150h-273l-25 -130h218l-30 -150h-218l-26 -135h286l-29 -150h-461l56 288h-166l-167 -288h-194zM376 428h112l26 137h-58z" />
    <glyph glyph-name="uni0455" unicode="&#x455;" horiz-adv-x="468" 
d="M-17 58l82 116c31 -28 85 -46 132 -46c36 0 55 9 55 30c0 51 -204 38 -204 200c0 102 97 169 218 169c66 0 134 -20 189 -57l-68 -120c-28 22 -81 37 -126 37c-34 0 -53 -9 -53 -29c0 -49 205 -35 205 -204c0 -100 -85 -166 -209 -166c-78 0 -161 26 -221 70z" />
    <glyph glyph-name="uni0456" unicode="&#x456;" horiz-adv-x="289" 
d="M115 580l26 135h169l-26 -135h-169zM1 0l99 515h173l-100 -515h-172z" />
    <glyph glyph-name="uni0458" unicode="&#x458;" horiz-adv-x="290" 
d="M115 580l26 135h169l-26 -135h-169zM1 4l99 511h173l-102 -526c-34 -175 -187 -197 -264 -197c-20 0 -39 1 -61 3l28 144c6 -1 13 -1 22 -1c34 0 94 8 105 66z" />
    <glyph glyph-name="uni04CF" unicode="&#x4cf;" horiz-adv-x="293" 
d="M1 0l139 715h175l-139 -715h-175z" />
    <glyph glyph-name="uni04D5" unicode="&#x4d5;" horiz-adv-x="852" 
d="M-9 121c0 156 199 202 331 202h7c2 10 2 14 2 18c0 33 -29 46 -65 46c-45 0 -106 -23 -149 -47l-37 130c65 33 141 57 220 57c54 0 107 -18 146 -53h2c45 33 96 53 153 53c146 0 220 -83 220 -202c0 -34 -8 -70 -19 -101h-325c0 -11 2 -21 4 -30c12 -45 53 -62 97 -62
c51 0 112 25 153 52l44 -129c-38 -29 -127 -67 -208 -67c-101 0 -171 36 -214 91h-2c-11 -18 -63 -91 -189 -91c-89 0 -171 46 -171 133zM500 323h152s1 12 1 18c0 32 -20 56 -55 56c-50 0 -82 -33 -98 -74zM165 153c0 -19 13 -33 42 -33c45 0 94 49 102 91l2 13h-16
c-37 0 -130 -10 -130 -71z" />
    <glyph glyph-name="uni0474" unicode="&#x474;" horiz-adv-x="695" 
d="M188 0l-114 715h182l47 -407c5 -45 5 -115 5 -115h2s26 70 49 115l178 349c22 43 45 58 95 58h133l-29 -150h-25c-27 0 -39 -10 -55 -39l-286 -526h-182z" />
    <glyph glyph-name="uni0475" unicode="&#x475;" horiz-adv-x="598" 
d="M121 0l-77 515h174l26 -274c4 -33 2 -89 2 -89h2s20 55 36 89l87 177c33 71 69 97 139 97h115l-29 -145h-24c-34 0 -47 -9 -67 -47l-173 -323h-211z" />
    <glyph glyph-name="uni04AF" unicode="&#x4af;" horiz-adv-x="564" 
d="M139 0l-97 515h175l31 -254c3 -33 2 -87 2 -87h2s19 53 36 87l128 254h190l-295 -515l-39 -200h-172z" />
    <glyph glyph-name="uni04AE" unicode="&#x4ae;" horiz-adv-x="610" 
d="M158 0l57 293l-149 422h189l48 -172c13 -49 23 -103 23 -103h2s31 53 63 103l109 172h210l-322 -429l-55 -286h-175z" />
    <glyph glyph-name="uni04B1" unicode="&#x4b1;" horiz-adv-x="565" 
d="M20 0l21 110h78l-76 405h176l31 -254c3 -33 2 -87 2 -87h2s19 53 36 87l128 254h189l-232 -405h78l-21 -110h-120l-39 -200h-172l39 200h-120z" />
    <glyph glyph-name="uni0492" unicode="&#x492;" horiz-adv-x="536" 
d="M22 0l54 281h-55l23 120h56l61 314h438l-29 -150h-263l-32 -164h155l-23 -120h-156l-54 -281h-175z" />
    <glyph glyph-name="uni04B0" unicode="&#x4b0;" horiz-adv-x="608" 
d="M92 189l23 120h95l-148 406h191l48 -172c13 -49 23 -103 23 -103h2s30 54 63 103l113 172h207l-306 -406h107l-23 -120h-116l-37 -189h-175l37 189h-104z" />
    <glyph glyph-name="uni048E" unicode="&#x48e;" horiz-adv-x="646" 
d="M18 0l139 715h273c42 0 78 -7 109 -22c67 -32 104 -98 104 -181c0 -88 -37 -166 -93 -219l50 -60l-74 -64l-59 71c-31 -13 -65 -19 -98 -19h-133l-43 -221h-175zM328 408l74 64l57 -69c15 26 24 58 24 93c0 42 -24 69 -72 69h-108l-40 -214h105h7z" />
    <glyph glyph-name="uni049C" unicode="&#x49c;" horiz-adv-x="804" 
d="M18 0l139 715h175l-54 -276h51l21 106h120l-21 -106h30l182 276h204l-260 -367v-2l136 -346h-181l-110 290h-30l-21 -109h-120l21 109h-51l-56 -290h-175z" />
    <glyph glyph-name="uni049E" unicode="&#x49e;" horiz-adv-x="689" 
d="M60 515l22 112h65l17 88h175l-17 -88h69l-22 -112h-69l-15 -76h67l205 276h203l-271 -351v-2l130 -362h-186l-95 290h-82l-56 -290h-175l100 515h-65z" />
    <glyph glyph-name="uni04B8" unicode="&#x4b8;" horiz-adv-x="728" 
d="M256 166l18 92c-135 3 -211 64 -211 166c0 21 3 43 8 68l43 223h179l-38 -197c-3 -13 -4 -26 -4 -36c0 -35 15 -58 53 -67l26 130h120l-24 -123c31 8 59 18 77 28l51 265h179l-139 -715h-179l52 264c2 12 9 32 9 32h-2c-22 -8 -48 -18 -78 -25l-20 -105h-120z" />
    <glyph glyph-name="uni048F" unicode="&#x48f;" horiz-adv-x="648" 
d="M172 -2l-38 -198h-172l138 715h156l-5 -26c-3 -16 -9 -33 -9 -33h2c39 47 96 71 158 71c120 0 196 -88 196 -225c0 -94 -36 -172 -89 -227l58 -71l-77 -63l-60 75c-36 -18 -75 -28 -114 -28c-52 0 -101 17 -135 54h-2s-2 -18 -7 -44zM284 198l77 63l56 -71
c16 25 26 55 26 89c0 60 -31 102 -89 102c-72 0 -140 -66 -140 -157c0 -58 27 -103 86 -103c13 0 27 2 40 6z" />
    <glyph glyph-name="uni049D" unicode="&#x49d;" horiz-adv-x="691" 
d="M0 0l101 515h173l-36 -181h31l18 93h100l-18 -93h18l128 181h198l-201 -259v-2l121 -254h-187l-82 189h-23l-18 -94h-100l18 94h-31l-37 -189h-173z" />
    <glyph glyph-name="uni049F" unicode="&#x49f;" horiz-adv-x="596" 
d="M35 527l22 110h68l15 78h173l-15 -78h82l-22 -110h-82l-35 -182h47l136 170h201l-207 -244v-2l115 -269h-183l-75 200h-62l-39 -200h-173l102 527h-68z" />
    <glyph glyph-name="uni04B9" unicode="&#x4b9;" horiz-adv-x="634" 
d="M206 85l15 77c-109 0 -186 44 -186 149c0 16 2 33 6 52l30 152h170l-25 -122c-2 -12 -4 -23 -4 -33c0 -29 10 -47 37 -55l22 112h100l-22 -113c23 5 43 13 58 20l38 191h173l-101 -515h-173l33 166c3 15 6 23 6 23h-1c-16 -7 -36 -13 -59 -17l-17 -87h-100z" />
    <glyph glyph-name="uni0493" unicode="&#x493;" horiz-adv-x="451" 
d="M8 0l34 177h-59l20 105h60l46 233h363l-29 -145h-190l-17 -88h121l-20 -105h-122l-34 -177h-173z" />
    <glyph glyph-name="uni04E1" unicode="&#x4e1;" horiz-adv-x="504" 
d="M-16 -29c29 -21 92 -41 144 -41c69 0 134 38 134 97c0 42 -34 55 -113 55h-112l21 110l158 147c21 19 47 33 47 33v2s-25 -4 -57 -4h-174l28 145h436l-27 -137l-161 -138c-15 -13 -41 -29 -41 -29v-2c117 -6 164 -86 164 -171c0 -154 -147 -248 -305 -248
c-69 0 -146 20 -205 57z" />
    <glyph glyph-name="uni04E0" unicode="&#x4e0;" horiz-adv-x="544" 
d="M46 171c29 -21 92 -41 144 -41c69 0 134 38 134 97c0 42 -34 55 -113 55h-112l21 110l158 147c21 19 47 33 47 33v2s-25 -4 -57 -4h-174l28 145h436l-27 -137l-161 -138c-15 -13 -41 -29 -41 -29v-2c117 -6 164 -86 164 -171c0 -154 -147 -248 -305 -248
c-69 0 -146 20 -205 57z" />
    <glyph glyph-name="uni0490" unicode="&#x490;" horiz-adv-x="542" 
d="M18 0l139 715h314l24 120h140l-53 -270h-279l-110 -565h-175z" />
    <glyph glyph-name="uni0491" unicode="&#x491;" horiz-adv-x="454" 
d="M1 0l100 515h248l23 120h131l-51 -265h-206l-72 -370h-173z" />
    <glyph glyph-name="uni0524" unicode="&#x524;" horiz-adv-x="805" 
d="M18 0l139 715h604l-110 -566h114l-57 -289h-155l28 140h-134l110 566h-254l-110 -566h-175z" />
    <glyph glyph-name="uni0525" unicode="&#x525;" horiz-adv-x="672" 
d="M1 0l100 515h499l-72 -370h98l-51 -265h-154l23 120h-117l72 370h-153l-72 -370h-173z" />
    <glyph glyph-name="uni0404" unicode="&#x404;" horiz-adv-x="721" 
d="M43 300c0 222 193 427 439 427c90 0 197 -29 260 -99l-95 -131c-41 43 -109 72 -172 72c-101 0 -179 -58 -220 -141h291l-27 -140h-294c2 -102 69 -142 167 -142c74 0 149 36 207 81l75 -130c-72 -64 -197 -109 -305 -109c-204 0 -326 129 -326 312z" />
    <glyph glyph-name="uni0454" unicode="&#x454;" horiz-adv-x="558" 
d="M18 224c0 161 154 303 334 303c70 0 151 -17 200 -71l-78 -112c-30 29 -86 46 -131 46c-60 0 -113 -28 -143 -74h194l-22 -114h-196c11 -60 64 -80 122 -80c57 0 113 29 156 64l49 -124c-48 -41 -156 -74 -236 -74c-166 0 -249 105 -249 236z" />
    <glyph glyph-name="uni0462" unicode="&#x462;" horiz-adv-x="715" 
d="M106 0l104 539h-160l26 130h164l15 81h171l-15 -81h204l-26 -130h-204l-16 -85h112c127 0 204 -83 204 -194c0 -140 -121 -260 -272 -260h-307zM310 150h89c50 0 104 32 104 91c0 39 -24 63 -77 63h-86z" />
    <glyph glyph-name="uni04A8" unicode="&#x4a8;" horiz-adv-x="955" 
d="M46 312c0 178 115 336 269 416l71 -158c-86 -49 -162 -142 -162 -252c0 -90 50 -170 174 -170c17 0 34 1 51 4c-44 55 -71 123 -71 206c0 172 121 357 321 357c155 0 234 -111 234 -241c0 -121 -68 -241 -169 -332c13 -2 27 -2 41 -2h65l-27 -140h-68
c-56 0 -116 12 -172 37c-68 -31 -142 -49 -215 -49c-191 0 -342 121 -342 324zM555 355c0 -58 18 -105 48 -139c87 59 151 151 151 250c0 51 -17 90 -71 90c-97 0 -128 -124 -128 -201z" />
    <glyph glyph-name="uni04BC" unicode="&#x4bc;" horiz-adv-x="915" 
d="M57 481c0 46 12 94 46 167h160c-34 -63 -49 -106 -49 -143c0 -32 10 -56 42 -61c56 155 197 283 383 283c173 0 263 -110 263 -263c0 -54 -11 -105 -29 -154h-461c0 -91 54 -162 159 -162c80 0 159 42 197 73l69 -138c-24 -19 -131 -95 -286 -95
c-202 0 -321 129 -321 309v14c-93 2 -173 51 -173 170zM438 443h292c2 11 3 21 3 31c0 59 -41 100 -114 100c-99 0 -166 -77 -181 -131z" />
    <glyph glyph-name="uni04D8" unicode="&#x4d8;" horiz-adv-x="733" 
d="M37 264c0 55 13 105 31 151h461v2c0 90 -52 150 -152 150c-84 0 -167 -43 -206 -73l-69 136c22 18 142 97 295 97c209 0 313 -147 313 -317c0 -205 -152 -422 -392 -422c-175 0 -281 116 -281 276zM207 246c0 -63 38 -105 117 -105c95 0 160 61 179 141h-292
c-3 -13 -4 -25 -4 -36z" />
    <glyph glyph-name="uni0494" unicode="&#x494;" horiz-adv-x="653" 
d="M18 0l139 715h439l-29 -150h-264l-30 -154c31 10 73 16 110 16c147 0 221 -92 221 -243c0 -208 -143 -397 -365 -374l27 140c89 0 152 104 152 213c0 67 -24 110 -99 110c-26 0 -49 -5 -75 -13l-51 -260h-175z" />
    <glyph glyph-name="uni04A6" unicode="&#x4a6;" horiz-adv-x="1006" 
d="M18 0l139 715h534l-57 -294c31 10 73 16 110 16c147 0 219 -94 219 -248c0 -209 -141 -400 -365 -379l27 140c89 0 152 106 152 218c0 70 -22 115 -97 115c-26 0 -49 -5 -75 -13l-53 -270h-175l110 567h-183l-111 -567h-175z" />
    <glyph glyph-name="uni04C3" unicode="&#x4c3;" horiz-adv-x="695" 
d="M18 0l139 715h175l-53 -276c30 0 52 0 71 -1l192 277h202l-232 -320c83 -51 111 -140 111 -224c0 -162 -102 -382 -339 -361l28 145c104 0 126 148 126 216c0 74 -26 123 -126 123h-61l-58 -294h-175z" />
    <glyph glyph-name="uni04C7" unicode="&#x4c7;" horiz-adv-x="762" 
d="M18 0l139 715h175l-56 -286h260l56 286h175l-120 -625c-47 -244 -166 -295 -324 -281l30 152c62 -2 93 13 118 135l36 184h-260l-54 -280h-175z" />
    <glyph glyph-name="uni04A9" unicode="&#x4a9;" horiz-adv-x="833" 
d="M21 234c0 126 86 241 213 293l58 -137c-56 -26 -113 -82 -113 -151c0 -57 38 -118 133 -118c14 0 29 1 45 4c-33 39 -53 87 -53 145c0 138 115 257 272 257c131 0 205 -83 205 -183c0 -80 -48 -157 -118 -218h23h90l-25 -126h-80c-55 0 -114 9 -168 29
c-64 -26 -132 -41 -194 -41c-145 0 -288 83 -288 246zM464 275c0 -40 15 -73 42 -97c64 37 115 91 115 157c0 37 -16 63 -59 63c-69 0 -98 -66 -98 -123z" />
    <glyph glyph-name="uni04BD" unicode="&#x4bd;" horiz-adv-x="718" 
d="M31 365c0 41 12 77 30 111h134c-15 -27 -33 -60 -33 -97c0 -27 9 -41 28 -46c42 111 146 194 283 194c138 0 215 -83 215 -200c0 -38 -8 -69 -19 -103h-325v-6c0 -51 37 -86 101 -86c53 0 109 24 153 52l44 -129c-39 -29 -119 -67 -217 -67c-142 0 -254 81 -254 236v2
c-91 5 -140 55 -140 139zM367 323h152c1 6 1 10 1 18c0 35 -19 59 -58 59c-43 0 -78 -30 -95 -77z" />
    <glyph glyph-name="uni04D9" unicode="&#x4d9;" horiz-adv-x="572" 
d="M19 186c0 38 8 79 21 114h323s1 4 1 12c0 53 -44 79 -105 79c-82 0 -158 -46 -158 -46l-45 125s94 57 221 57c160 0 259 -90 259 -235c0 -162 -123 -304 -302 -304c-137 0 -215 83 -215 198zM177 181c0 -38 24 -63 65 -63c50 0 96 39 111 87h-173c-1 -5 -3 -17 -3 -24z
" />
    <glyph glyph-name="uni04A7" unicode="&#x4a7;" horiz-adv-x="866" 
d="M1 0l100 515h475l-38 -190c34 12 66 18 96 18c105 0 179 -85 179 -225c0 -183 -132 -299 -251 -328l-44 129c62 26 120 76 120 185c0 55 -26 97 -77 97c-14 0 -30 -4 -48 -12l-37 -189h-173l72 370h-129l-72 -370h-173z" />
    <glyph glyph-name="uni0433.BUL" horiz-adv-x="478" 
d="M-3 129c0 174 289 178 289 240c0 12 -7 18 -27 18c-60 0 -109 -14 -145 -36l-49 123c64 36 145 53 210 53c105 0 177 -50 177 -139c0 -177 -289 -192 -289 -242c0 -16 13 -18 36 -18c54 0 114 21 152 47l65 -122c-71 -43 -157 -65 -235 -65c-124 0 -184 61 -184 141z" />
    <glyph glyph-name="uni0434.BUL" horiz-adv-x="624" 
d="M62 -33c29 -19 85 -33 141 -33c61 0 125 23 138 99l3 17c1 6 4 19 4 19h-1c-34 -36 -70 -54 -124 -54c-136 0 -200 97 -200 216c0 144 100 296 275 296c47 0 106 -12 138 -55h3s1 10 2 16l5 27h162l-93 -478c-37 -187 -180 -247 -308 -247c-69 0 -155 14 -213 53z
M198 246c0 -49 23 -87 79 -87c76 0 119 84 119 149c0 60 -39 75 -83 75c-72 0 -115 -62 -115 -137z" />
    <glyph glyph-name="uni0436.BUL" horiz-adv-x="843" 
d="M-47 0l189 276v2l-82 237h168l61 -183h54l75 383h161l-75 -383h55l114 183h187l-178 -262v-2l88 -251h-174l-57 187h-63l-37 -187h-161l37 187h-55l-121 -187h-186z" />
    <glyph glyph-name="uni0438.BUL" horiz-adv-x="620" 
d="M25 134c0 17 3 36 7 57l63 324h173l-58 -296c-2 -12 -3 -23 -3 -30c0 -31 15 -44 46 -44c66 0 120 67 134 142l44 228h173l-100 -515h-167l5 26c5 26 13 51 13 51h-2c-29 -46 -95 -89 -166 -89c-89 0 -162 39 -162 146z" />
    <glyph glyph-name="uni0439.BUL" horiz-adv-x="620" 
d="M25 134c0 17 3 36 7 57l63 324h173l-58 -296c-2 -12 -3 -23 -3 -30c0 -31 15 -44 46 -44c66 0 120 67 134 142l44 228h173l-100 -515h-167l5 26c5 26 13 51 13 51h-2c-29 -46 -95 -89 -166 -89c-89 0 -162 39 -162 146zM365 551c-106 0 -174 53 -174 126c0 9 1 19 5 38
h130c-2 -7 -3 -15 -3 -22c0 -26 16 -49 51 -49c34 0 67 18 75 71h126c-18 -119 -113 -164 -210 -164z" />
    <glyph glyph-name="uni043A.BUL" horiz-adv-x="596" 
d="M1 0l139 715h173l-72 -370h47l136 170h201l-207 -244v-2l115 -269h-183l-75 200h-62l-39 -200h-173z" />
    <glyph glyph-name="uni043B.BUL" horiz-adv-x="573" 
d="M-53 0l278 515h211l74 -515h-175l-25 274c-4 34 -2 89 -2 89h-2s-20 -56 -36 -89l-134 -274h-189z" />
    <glyph glyph-name="uni043F.BUL" horiz-adv-x="627" 
d="M1 0l100 515h167l-5 -26c-5 -26 -13 -51 -13 -51h2c29 46 101 89 172 89c89 0 162 -39 162 -146c0 -17 -3 -36 -7 -57l-63 -324h-173l58 296c2 12 3 23 3 30c0 31 -15 44 -46 44c-68 0 -126 -67 -140 -142l-44 -228h-173z" />
    <glyph glyph-name="uni0442.BUL" horiz-adv-x="909" 
d="M1 0l100 515h167l-8 -40c-3 -16 -10 -37 -10 -37h2c28 36 81 89 156 89c71 0 119 -29 137 -87h2c33 43 99 87 172 87c88 0 147 -38 147 -141c0 -21 -3 -45 -8 -72l-60 -314h-173l59 300c3 16 3 22 3 30c0 24 -9 40 -34 40c-63 0 -109 -74 -125 -157l-42 -213h-173l59 300
c3 16 3 22 3 30c0 24 -9 40 -34 40c-61 0 -109 -74 -125 -157l-42 -213h-173z" />
    <glyph glyph-name="uni0446.BUL" horiz-adv-x="667" 
d="M25 134c0 17 3 36 7 57l63 324h173l-58 -296c-2 -12 -3 -23 -3 -30c0 -31 15 -44 46 -44c66 0 120 67 134 142l44 228h173l-72 -370h86l-51 -265h-153l23 120h-100l5 26c5 26 13 51 13 51h-2c-29 -46 -95 -89 -166 -89c-89 0 -162 39 -162 146z" />
    <glyph glyph-name="uni0448.BUL" horiz-adv-x="907" 
d="M891 515l-100 -515h-167l8 40c3 16 10 37 10 37h-2c-28 -36 -81 -89 -156 -89c-71 0 -119 29 -137 87h-2c-33 -43 -99 -87 -172 -87c-88 0 -147 38 -147 141c0 21 3 45 8 72l60 314h173l-59 -300c-3 -16 -3 -22 -3 -30c0 -24 9 -40 34 -40c63 0 109 74 125 157l42 213
h173l-59 -300c-3 -16 -3 -22 -3 -30c0 -24 9 -40 34 -40c61 0 109 74 125 157l42 213h173z" />
    <glyph glyph-name="uni0449.BUL" horiz-adv-x="954" 
d="M891 515l-72 -370h86l-51 -265h-153l23 120h-100l8 40c3 16 10 37 10 37h-2c-28 -36 -81 -89 -156 -89c-71 0 -119 29 -137 87h-2c-33 -43 -99 -87 -172 -87c-88 0 -147 38 -147 141c0 21 3 45 8 72l60 314h173l-59 -300c-3 -16 -3 -22 -3 -30c0 -24 9 -40 34 -40
c63 0 109 74 125 157l42 213h173l-59 -300c-3 -16 -3 -22 -3 -30c0 -24 9 -40 34 -40c61 0 109 74 125 157l42 213h173z" />
    <glyph glyph-name="uni044A.BUL" horiz-adv-x="603" 
d="M87 158c0 19 3 38 7 60l31 152h-94l28 145h267l-26 -129c-3 -17 -4 -22 -8 -35h2c28 16 64 29 112 29c101 0 161 -66 161 -164c0 -137 -116 -228 -272 -228c-112 0 -208 46 -208 170zM262 189c-6 -35 6 -75 51 -75c49 0 78 45 78 89c0 40 -24 50 -52 50
c-38 0 -70 -27 -77 -64z" />
    <glyph glyph-name="uni044C.BUL" horiz-adv-x="544" 
d="M28 158c0 19 3 38 7 60l59 297h173l-26 -129c-3 -17 -4 -22 -8 -35h2c28 16 64 29 112 29c101 0 161 -66 161 -164c0 -137 -116 -228 -272 -228c-112 0 -208 46 -208 170zM201 170c0 -31 16 -56 53 -56c49 0 78 45 78 89c0 40 -24 50 -52 50c-46 0 -79 -37 -79 -83z" />
    <glyph glyph-name="uni044E.BUL" horiz-adv-x="891" 
d="M1 0l138 715h173l-75 -386h63c48 120 171 198 295 198c152 0 262 -91 262 -231c0 -182 -158 -308 -316 -308c-142 0 -248 78 -261 204h-70l-37 -192h-172zM454 227c0 -60 38 -95 90 -95c67 0 138 59 138 153c0 61 -38 98 -89 98c-66 0 -139 -62 -139 -156z" />
    <glyph glyph-name="uni0432.BUL" horiz-adv-x="619" 
d="M29 205c0 17 2 36 6 55l38 196c31 161 133 271 302 271c134 0 207 -69 207 -154c0 -80 -63 -125 -123 -158v-2c69 -12 119 -76 119 -165c0 -154 -143 -260 -308 -260c-144 0 -241 87 -241 217zM237 427h2c16 16 41 29 63 41l27 15c44 25 82 47 82 77c0 18 -14 36 -53 36
c-37 0 -84 -18 -104 -100zM197 210c0 -51 35 -73 80 -73c71 0 126 54 126 117c0 52 -39 69 -82 69c-74 0 -124 -52 -124 -113z" />
    <glyph glyph-name="uni0437.BUL" horiz-adv-x="476" 
d="M-14 -30c27 -22 73 -34 109 -34c70 0 123 47 123 109c0 37 -19 61 -77 61h-77l27 135h79c55 0 102 39 102 86c0 39 -32 57 -75 57c-36 0 -77 -15 -104 -37l-68 110c63 46 145 70 219 70c126 0 202 -69 202 -168c0 -86 -60 -155 -135 -186v-2c57 -34 80 -82 80 -139
c0 -152 -152 -242 -290 -242c-68 0 -152 22 -189 53z" />
    <glyph glyph-name="currency" unicode="&#xa4;" horiz-adv-x="647" 
d="M54 0l28 142h-65l21 111h65l11 57h-65l26 134h65l53 271h272c140 0 204 -70 204 -174c0 -144 -124 -232 -273 -232h-107l-11 -56h244l-21 -111h-244l-28 -142h-175zM315 444h71c47 0 104 28 104 82c0 30 -17 54 -74 54h-74z" />
    <glyph glyph-name="numero" unicode="&#x2116;" horiz-adv-x="1119" 
d="M765 431c0 100 93 192 199 192c90 0 148 -65 148 -144c0 -100 -95 -189 -201 -189c-89 0 -146 62 -146 141zM889 446c0 -25 16 -40 39 -40c30 0 61 27 61 60c0 23 -15 41 -40 41c-30 0 -60 -27 -60 -61zM714 132l22 115h319l-22 -115h-319zM15 0l139 715h170l133 -334
c19 -47 36 -122 36 -122h2s7 77 16 122l65 334h175l-139 -715h-169l-134 333c-19 47 -37 122 -37 122h-2s-6 -77 -15 -122l-65 -333h-175z" />
    <glyph glyph-name="uni0414.ALT" horiz-adv-x="747" 
d="M-79 -140l57 290h74l310 565h182l89 -565h79l-57 -290h-155l28 140h-425l-28 -140h-154zM240 150h217l-31 257c-6 45 -7 115 -7 115h-2s-25 -70 -47 -115z" />
    <glyph glyph-name="uni041B.ALT" horiz-adv-x="675" 
d="M-63 0l391 715h182l113 -715h-179l-49 407c-5 45 -5 115 -5 115h-2s-26 -70 -49 -115l-205 -407h-197z" />
    <glyph glyph-name="uni0434.ALT" horiz-adv-x="656" 
d="M-69 -120l50 257h67l210 378h221l62 -378h71l-50 -257h-154l23 120h-324l-23 -120h-153zM225 137h151l-21 157c-4 34 -5 89 -5 89h-2s-23 -56 -41 -89z" />
    <glyph glyph-name="uni043B.ALT" horiz-adv-x="573" 
d="M-53 0l278 515h211l74 -515h-175l-25 274c-4 34 -2 89 -2 89h-2s-20 -56 -36 -89l-134 -274h-189z" />
    <glyph glyph-name="uni0409.ALT" horiz-adv-x="956" 
d="M-56 0l376 715h345l-51 -261h109c127 0 207 -89 207 -206c0 -134 -117 -248 -269 -248h-310l110 565h-39l-288 -565h-190zM555 150h89c52 0 108 34 108 93c0 36 -28 61 -81 61h-86z" />
    <glyph glyph-name="uni0459.ALT" horiz-adv-x="834" 
d="M-55 0l301 515h329l-35 -177h75c128 0 180 -59 180 -149c0 -125 -102 -189 -236 -189h-258l76 390h-35l-218 -390h-179zM496 113h56c37 0 78 22 78 64c0 28 -18 47 -59 47h-53z" />
    <glyph glyph-name="uni04C5.ALT" horiz-adv-x="794" 
d="M-63 0l391 715h182l89 -565h167l-18 -91l-128 -199h-117l61 140h-121l-49 407c-6 45 -5 115 -5 115h-2s-27 -70 -49 -115l-205 -407h-196z" />
    <glyph glyph-name="uni04C6.ALT" horiz-adv-x="658" 
d="M333 0l-26 274c-3 34 -1 89 -1 89h-2s-20 -56 -37 -89l-133 -274h-187l277 515h211l54 -370h144l-16 -86l-114 -179h-111l51 120h-110z" />
    </font>
</defs>
</svg>
